<svg viewBox="0 0 32 32" xmlns="http://www.w3.org/2000/svg"><path d="M28 5.25h-1.25V2a.75.75 0 0 0-1.5 0v3.25H6.75V2a.75.75 0 0 0-1.5 0v3.25H4A2.754 2.754 0 0 0 1.25 8v19.998A2.754 2.754 0 0 0 4 30.748h24a2.754 2.754 0 0 0 2.75-2.75V8A2.754 2.754 0 0 0 28 5.25zM4 6.75h24c.69.001 1.249.56 1.25 1.25v3.25H2.75V8c.001-.69.56-1.249 1.25-1.25zm24 22.498H4a1.252 1.252 0 0 1-1.25-1.25V12.75h26.5v15.248a1.252 1.252 0 0 1-1.25 1.25zm-8.457-11.585a.747.747 0 0 0-1.06 0L16 20.147l-2.483-2.484a.75.75 0 1 0-1.061 1.06l2.484 2.485-2.484 2.486a.747.747 0 0 0 .527 1.281.745.745 0 0 0 .533-.223l2.483-2.484 2.483 2.484c.136.136.324.22.531.221h.003a.75.75 0 0 0 .528-1.279l-2.485-2.486 2.485-2.485a.746.746 0 0 0-.002-1.06z"/></svg>