<svg xmlns="http://www.w3.org/2000/svg" viewBox="0 0 512 512" xml:space="preserve"><path d="M375.467 34.133C375.467 15.36 360.107 0 341.333 0H170.667c-18.773 0-34.133 15.36-34.133 34.133 0 15.829 10.921 29.232 25.6 33.046v350.954A93.595 93.595 0 0 0 256 512a96.24 96.24 0 0 0 4.849-.122c49.778-2.502 89.044-43.318 89.871-93.745v-73.387c0-1.074-.315-2.145-.853-3.156V67.179c14.679-3.814 25.6-17.216 25.6-33.046zm-221.867 0c0-9.387 7.68-17.067 17.067-17.067h170.667c9.387 0 17.067 7.68 17.067 17.067S350.721 51.2 341.334 51.2H170.667c-9.387 0-17.067-7.68-17.067-17.067zM332.8 339.1c-32.28 10.89-70.505-11.951-96.427-37.873-15.991-14.468-36.061-23.482-57.173-26.471V68.267h153.6V339.1zM256 494.933c-42.667 0-76.8-34.133-76.8-76.8V291.84c17.067 3.413 32.427 10.24 45.227 21.333 28.16 28.16 69.973 52.053 108.373 42.667v62.293c0 42.667-34.133 76.8-76.8 76.8z"/><path d="M204.8 119.467H256c5.12 0 8.533-3.413 8.533-8.533S261.12 102.4 256 102.4h-51.2c-5.12 0-8.533 3.413-8.533 8.533s3.413 8.534 8.533 8.534zM204.8 153.6h25.6c5.12 0 8.533-3.413 8.533-8.533 0-5.12-3.413-8.533-8.533-8.533h-25.6c-5.12 0-8.533 3.413-8.533 8.533 0 5.12 3.413 8.533 8.533 8.533zM204.8 187.733H256c5.12 0 8.533-3.413 8.533-8.533s-3.413-8.533-8.533-8.533h-51.2c-5.12 0-8.533 3.413-8.533 8.533s3.413 8.533 8.533 8.533zM204.8 221.867h25.6c5.12 0 8.533-3.413 8.533-8.533 0-5.12-3.413-8.533-8.533-8.533h-25.6c-5.12 0-8.533 3.413-8.533 8.533 0 5.119 3.413 8.533 8.533 8.533zM204.8 256H256c5.12 0 8.533-3.413 8.533-8.533s-3.413-8.533-8.533-8.533h-51.2c-5.12 0-8.533 3.413-8.533 8.533S199.68 256 204.8 256z"/></svg>