<?xml version="1.0" encoding="UTF-8"?>
<svg id="Capa_1" xmlns="http://www.w3.org/2000/svg" version="1.1" xmlns:xlink="http://www.w3.org/1999/xlink" viewBox="0 0 244.6 214.9">
  <!-- Generator: Adobe Illustrator 29.0.0, SVG Export Plug-In . SVG Version: 2.1.0 Build 186)  -->
  <defs>
    <style>
      .st0 {
        fill: #b1a3be;
      }

      .st1 {
        fill: #543872;
      }

      .st2 {
        fill: #c8bed2;
      }

      .st3 {
        fill: #907da3;
      }

      .st4 {
        fill: #b0a2be;
      }

      .st5 {
        fill: #7b6592;
      }

      .st6 {
        fill: #a697b6;
      }

      .st7 {
        fill: #c5bacf;
      }

      .st8 {
        fill: #4c2f6c;
      }

      .st9 {
        fill: #9988ab;
      }

      .st10 {
        fill: #907ea4;
      }

      .st11 {
        fill: #d3cada;
      }

      .st12 {
        fill: #b2a5c0;
      }

      .st13 {
        fill: #bdb1c8;
      }

      .st14 {
        fill: #b9adc6;
      }

      .st15 {
        fill: #cac0d3;
      }

      .st16 {
        fill: #5b4078;
      }

      .st17 {
        fill: #c2b7cd;
      }

      .st18 {
        fill: #8e7aa2;
      }

      .st19 {
        fill: #d7cfde;
      }

      .st20 {
        fill: #553973;
      }

      .st21 {
        fill: #c0b5cb;
      }

      .st22 {
        fill: #482a68;
      }

      .st23 {
        fill: #ab9cb9;
      }

      .st24 {
        fill: #cfc6d8;
      }

      .st25 {
        fill: #77608f;
      }

      .st26 {
        fill: #bfb4cb;
      }

      .st27 {
        fill: #593d76;
      }

      .st28 {
        fill: #bbafc7;
      }

      .st29 {
        fill: #aea0bc;
      }

      .st30 {
        fill: #9684a8;
      }

      .st31 {
        fill: #b8abc4;
      }

      .st32 {
        fill: #b7aac3;
      }

      .st33 {
        fill: #aa9bb9;
      }

      .st34 {
        fill: #644a7f;
      }

      .st35 {
        fill: #4e316d;
      }

      .st36 {
        fill: #5c4179;
      }

      .st37 {
        fill: #654b80;
      }

      .st38 {
        fill: #a090b1;
      }

      .st39 {
        fill: #674d81;
      }

      .st40 {
        fill: #7f6995;
      }

      .st41 {
        fill: #ab9dba;
      }

      .st42 {
        fill: #4a2c69;
      }

      .st43 {
        fill: #62487e;
      }

      .st44 {
        fill: #745c8c;
      }

      .st45 {
        fill: none;
      }

      .st46 {
        fill: #ccc2d5;
      }

      .st47 {
        fill: #9d8cae;
      }

      .st48 {
        fill: #60467c;
      }

      .st49 {
        fill: #9a89ac;
      }

      .st50 {
        fill: #826c97;
      }

      .st51 {
        fill: #5e437a;
      }

      .st52 {
        fill: #c6bbd0;
      }

      .st53 {
        fill: #9b8aac;
      }

      .st54 {
        fill: #d6cedd;
      }

      .st55 {
        fill: #796290;
      }

      .st56 {
        fill: #a899b7;
      }

      .st57 {
        fill: #7b6492;
      }

      .st58 {
        fill: #9381a6;
      }

      .st59 {
        fill: #816b97;
      }

      .st60 {
        fill: #8f7ba2;
      }

      .st61 {
        fill: #9685a9;
      }

      .st62 {
        fill: #735b8b;
      }

      .st63 {
        fill: #9482a7;
      }

      .st64 {
        fill: #806a96;
      }

      .st65 {
        fill: #6d5587;
      }

      .st66 {
        clip-path: url(#clippath-1);
      }

      .st67 {
        fill: #705889;
      }

      .st68 {
        fill: #b8acc5;
      }

      .st69 {
        fill: #c9bfd2;
      }

      .st70 {
        fill: #bcb0c8;
      }

      .st71 {
        fill: #6f5788;
      }

      .st72 {
        fill: #523570;
      }

      .st73 {
        fill: #b6a9c3;
      }

      .st74 {
        fill: #d1c8d9;
      }

      .st75 {
        fill: #cec5d7;
      }

      .st76 {
        fill: #b2a4bf;
      }

      .st77 {
        fill: #5d4279;
      }

      .st78 {
        fill: #63497e;
      }

      .st79 {
        fill: #9887aa;
      }

      .st80 {
        fill: #9e8eaf;
      }

      .st81 {
        fill: #c7bdd1;
      }

      .st82 {
        fill: #6a5184;
      }

      .st83 {
        fill: #6c5386;
      }

      .st84 {
        fill: #765f8e;
      }

      .st85 {
        fill: #ad9fbb;
      }

      .st86 {
        fill: #5a3f77;
      }

      .st87 {
        fill: #9786a9;
      }

      .st88 {
        fill: #d0c7d8;
      }

      .st89 {
        fill: #afa1bd;
      }

      .st90 {
        fill: #7e6895;
      }

      .st91 {
        fill: #492b69;
      }

      .st92 {
        fill: #61477d;
      }

      .st93 {
        fill: #609c90;
      }

      .st94 {
        fill: #836e99;
      }

      .st95 {
        fill: #9f8fb0;
      }

      .st96 {
        fill: #a596b5;
      }

      .st97 {
        fill: #7d6794;
      }

      .st98 {
        fill: #d5cddd;
      }

      .st99 {
        fill: #9583a7;
      }

      .st100 {
        fill: #a495b4;
      }

      .st101 {
        fill: #d2c9da;
      }

      .st102 {
        fill: #4b2e6b;
      }

      .st103 {
        fill: #4f326e;
      }

      .st104 {
        fill: #baaec6;
      }

      .st105 {
        fill: #b4a7c1;
      }

      .st106 {
        fill: #d4ccdc;
      }

      .st107 {
        fill: #beb2c9;
      }

      .st108 {
        fill: #89749d;
      }

      .st109 {
        fill: #d4cbdb;
      }

      .st110 {
        fill: #b3a6c1;
      }

      .st111 {
        fill: #a191b1;
      }

      .st112 {
        fill: #4d306c;
      }

      .st113 {
        fill: #a798b6;
      }

      .st114 {
        fill: #6d5486;
      }

      .st115 {
        fill: #917fa4;
      }

      .st116 {
        fill: #583c75;
      }

      .st117 {
        fill: #725a8b;
      }

      .st118 {
        fill: #c4b9ce;
      }

      .st119 {
        fill: #cdc4d6;
      }

      .st120 {
        fill: #9c8bad;
      }

      .st121 {
        fill: #826d98;
      }

      .st122 {
        fill: #cdc3d5;
      }

      .st123 {
        fill: #8d79a1;
      }

      .st124 {
        fill: #71598a;
      }

      .st125 {
        fill: #88739d;
      }

      .st126 {
        fill: #89759e;
      }

      .st127 {
        fill: #664c80;
      }

      .st128 {
        fill: #51346f;
      }

      .st129 {
        fill: #bfb3ca;
      }

      .st130 {
        fill: #745d8d;
      }

      .st131 {
        fill: #846f9a;
      }

      .st132 {
        fill: #4b2d6a;
      }

      .st133 {
        fill: #c3b8cd;
      }

      .st134 {
        fill: #755e8d;
      }

      .st135 {
        fill: #60457b;
      }

      .st136 {
        fill: #c1b6cc;
      }

      .st137 {
        clip-path: url(#clippath-2);
      }

      .st138 {
        fill: #563a74;
      }

      .st139 {
        fill: #8c78a0;
      }

      .st140 {
        fill: #695083;
      }

      .st141 {
        fill: #b5a8c2;
      }

      .st142 {
        fill: #573b74;
      }

      .st143 {
        fill: #674e82;
      }

      .st144 {
        fill: #86719b;
      }

      .st145 {
        fill: #7c6693;
      }

      .st146 {
        fill: #523671;
      }

      .st147 {
        fill: #a494b4;
      }

      .st148 {
        fill: #a292b2;
      }

      .st149 {
        fill: #9280a5;
      }

      .st150 {
        fill: #7a6391;
      }

      .st151 {
        fill: #684f83;
      }

      .st152 {
        fill: #786190;
      }

      .st153 {
        fill: #87729c;
      }

      .st154 {
        fill: #593e76;
      }

      .st155 {
        fill: #ac9ebb;
      }

      .st156 {
        fill: #4d2e74;
      }

      .st157 {
        fill: #8b779f;
      }

      .st158 {
        fill: #5f447b;
      }

      .st159 {
        fill: #8a769f;
      }

      .st160 {
        clip-path: url(#clippath);
      }

      .st161 {
        fill: #a393b3;
      }

      .st162 {
        fill: #a99ab8;
      }

      .st163 {
        fill: #50336e;
      }

      .st164 {
        fill: #c6bcd0;
      }

      .st165 {
        fill: #6e5688;
      }

      .st166 {
        fill: #533771;
      }

      .st167 {
        fill: #9d8daf;
      }

      .st168 {
        fill: #cbc1d4;
      }

      .st169 {
        fill: #6b5285;
      }

      .st170 {
        fill: #85709a;
      }
    </style>
    <clipPath id="clippath">
      <circle class="st45" cx="180.5" cy="69.2" r="12.7"/>
    </clipPath>
    <clipPath id="clippath-1">
      <circle class="st45" cx="193.1" cy="37.2" r="6.6"/>
    </clipPath>
    <clipPath id="clippath-2">
      <circle class="st45" cx="210.9" cy="59.2" r="10"/>
    </clipPath>
  </defs>
  <path class="st156" d="M22.3,156.7V61.6c0-22.2,13.6-33.2,40.8-33.2s40.5,11,40.5,33.2v21.5c0,3.4-2.1,4.9-6.5,4.9h-16.8c-4.4,0-6.5-1.6-6.5-4.9v-25.1c0-5.4-3.2-8.1-9.5-8.1s-9.7,2.7-9.7,8.1v102.3c0,5.4,3.2,8.1,9.7,8.1s9.5-2.7,9.5-8.1v-41.7h-3c-4.4,0-6.5-1.6-6.5-4.9v-10.1c0-3.4,2.1-4.9,6.5-4.9h27.2c4.4,0,6.5,1.6,6.5,4.9v79.2c0,3.4-2.1,4.9-6.5,4.9h-4.4c-3.8,0-6.2-1.3-7.1-4.3l-1.5-4.7c-5,7.4-14.5,11.2-28.4,11.2-22.7,0-34.3-11-34.3-33.2Z"/>
  <path class="st93" d="M131.5,187.6c-4.4,0-6.5-1.6-6.5-4.9V35.6c0-3.4,2.1-4.9,6.5-4.9h19.2c4.4,0,6.5,1.6,6.5,4.9v130.5h30.1v16.6c0,3.4-.2,4.9-.2,4.9h-55.7Z"/>
  <g class="st160">
    <polygon class="st19" points="187.8 81.9 193.1 72.6 193.1 81.9 187.8 81.9"/>
    <polygon class="st19" points="187.6 81.9 193.1 72.3 193.1 72.6 187.8 81.9 187.6 81.9"/>
    <polygon class="st54" points="187.4 81.9 193.1 72 193.1 72.3 187.6 81.9 187.4 81.9"/>
    <polygon class="st98" points="187.3 81.9 193.1 71.7 193.1 72 187.4 81.9 187.3 81.9"/>
    <polygon class="st106" points="187.1 81.9 193.1 71.4 193.1 71.7 187.3 81.9 187.1 81.9"/>
    <polygon class="st109" points="186.9 81.9 193.1 71.1 193.1 71.4 187.1 81.9 186.9 81.9"/>
    <polygon class="st11" points="186.7 81.9 193.1 70.8 193.1 71.1 186.9 81.9 186.7 81.9"/>
    <polygon class="st101" points="186.6 81.9 193.1 70.5 193.1 70.8 186.7 81.9 186.6 81.9"/>
    <polygon class="st74" points="186.4 81.9 193.1 70.2 193.1 70.5 186.6 81.9 186.4 81.9"/>
    <polygon class="st88" points="186.2 81.9 193.1 69.8 193.1 70.2 186.4 81.9 186.2 81.9"/>
    <polygon class="st24" points="186 81.9 193.1 69.5 193.1 69.8 186.2 81.9 186 81.9"/>
    <polygon class="st75" points="185.8 81.9 193.1 69.2 193.1 69.5 186 81.9 185.8 81.9"/>
    <polygon class="st119" points="185.7 81.9 193.1 68.9 193.1 69.2 185.8 81.9 185.7 81.9"/>
    <polygon class="st122" points="185.5 81.9 193.1 68.6 193.1 68.9 185.7 81.9 185.5 81.9"/>
    <polygon class="st46" points="185.3 81.9 193.1 68.3 193.1 68.6 185.5 81.9 185.3 81.9"/>
    <polygon class="st168" points="185.1 81.9 193.1 68 193.1 68.3 185.3 81.9 185.1 81.9"/>
    <polygon class="st15" points="185 81.9 193.1 67.7 193.1 68 185.1 81.9 185 81.9"/>
    <polygon class="st69" points="184.8 81.9 193.1 67.4 193.1 67.7 185 81.9 184.8 81.9"/>
    <polygon class="st2" points="184.6 81.9 193.1 67.1 193.1 67.4 184.8 81.9 184.6 81.9"/>
    <polygon class="st81" points="184.4 81.9 193.1 66.8 193.1 67.1 184.6 81.9 184.4 81.9"/>
    <polygon class="st164" points="184.2 81.9 193.1 66.5 193.1 66.8 184.4 81.9 184.2 81.9"/>
    <polygon class="st52" points="184.1 81.9 193.1 66.2 193.1 66.5 184.2 81.9 184.1 81.9"/>
    <polygon class="st7" points="183.9 81.9 193.1 65.9 193.1 66.2 184.1 81.9 183.9 81.9"/>
    <polygon class="st118" points="183.7 81.9 193.1 65.5 193.1 65.9 183.9 81.9 183.7 81.9"/>
    <polygon class="st133" points="183.5 81.9 193.1 65.2 193.1 65.5 183.7 81.9 183.5 81.9"/>
    <polygon class="st17" points="183.4 81.9 193.1 64.9 193.1 65.2 183.5 81.9 183.4 81.9"/>
    <polygon class="st136" points="183.2 81.9 193.1 64.6 193.1 64.9 183.4 81.9 183.2 81.9"/>
    <polygon class="st21" points="183 81.9 193.1 64.3 193.1 64.6 183.2 81.9 183 81.9"/>
    <polygon class="st26" points="182.8 81.9 193.1 64 193.1 64.3 183 81.9 182.8 81.9"/>
    <polygon class="st129" points="182.6 81.9 193.1 63.7 193.1 64 182.8 81.9 182.6 81.9"/>
    <polygon class="st107" points="182.5 81.9 193.1 63.4 193.1 63.7 182.6 81.9 182.5 81.9"/>
    <polygon class="st13" points="182.3 81.9 193.1 63.1 193.1 63.4 182.5 81.9 182.3 81.9"/>
    <polygon class="st70" points="182.1 81.9 193.1 62.8 193.1 63.1 182.3 81.9 182.1 81.9"/>
    <polygon class="st28" points="181.9 81.9 193.1 62.5 193.1 62.8 182.1 81.9 181.9 81.9"/>
    <polygon class="st104" points="181.8 81.9 193.1 62.2 193.1 62.5 181.9 81.9 181.8 81.9"/>
    <polygon class="st14" points="181.6 81.9 193.1 61.9 193.1 62.2 181.8 81.9 181.6 81.9"/>
    <polygon class="st68" points="181.4 81.9 193.1 61.6 193.1 61.9 181.6 81.9 181.4 81.9"/>
    <polygon class="st31" points="181.2 81.9 193.1 61.2 193.1 61.6 181.4 81.9 181.2 81.9"/>
    <polygon class="st32" points="181.1 81.9 193.1 60.9 193.1 61.2 181.2 81.9 181.1 81.9"/>
    <polygon class="st73" points="180.9 81.9 193.1 60.6 193.1 60.9 181.1 81.9 180.9 81.9"/>
    <polygon class="st141" points="180.7 81.9 193.1 60.3 193.1 60.6 180.9 81.9 180.7 81.9"/>
    <polygon class="st105" points="180.5 81.9 193.1 60 193.1 60.3 180.7 81.9 180.5 81.9"/>
    <polygon class="st110" points="180.3 81.9 193.1 59.7 193.1 60 180.5 81.9 180.3 81.9"/>
    <polygon class="st12" points="180.2 81.9 193.1 59.4 193.1 59.7 180.3 81.9 180.2 81.9"/>
    <polygon class="st76" points="180 81.9 193.1 59.1 193.1 59.4 180.2 81.9 180 81.9"/>
    <polygon class="st0" points="179.8 81.9 193.1 58.8 193.1 59.1 180 81.9 179.8 81.9"/>
    <polygon class="st4" points="179.6 81.9 193.1 58.5 193.1 58.8 179.8 81.9 179.6 81.9"/>
    <polygon class="st89" points="179.5 81.9 193.1 58.2 193.1 58.5 179.6 81.9 179.5 81.9"/>
    <polygon class="st29" points="179.3 81.9 193.1 57.9 193.1 58.2 179.5 81.9 179.3 81.9"/>
    <polygon class="st85" points="179.1 81.9 193.1 57.6 193.1 57.9 179.3 81.9 179.1 81.9"/>
    <polygon class="st155" points="178.9 81.9 193 57.4 193.1 57.5 193.1 57.6 179.1 81.9 178.9 81.9"/>
    <polygon class="st41" points="178.7 81.9 192.9 57.4 193 57.4 178.9 81.9 178.7 81.9"/>
    <polygon class="st23" points="178.6 81.9 192.8 57.3 192.9 57.4 178.7 81.9 178.6 81.9"/>
    <polygon class="st33" points="178.4 81.9 192.6 57.2 192.8 57.3 178.6 81.9 178.4 81.9"/>
    <polygon class="st162" points="178.2 81.9 192.5 57.1 192.6 57.2 178.4 81.9 178.2 81.9"/>
    <polygon class="st56" points="178 81.9 192.4 57.1 192.5 57.1 178.2 81.9 178 81.9"/>
    <polygon class="st113" points="177.9 81.9 192.2 57 192.4 57.1 178 81.9 177.9 81.9"/>
    <polygon class="st6" points="177.7 81.9 192.1 56.9 192.2 57 177.9 81.9 177.7 81.9"/>
    <polygon class="st96" points="177.5 81.9 192 56.8 192.1 56.9 177.7 81.9 177.5 81.9"/>
    <polygon class="st100" points="177.3 81.9 191.8 56.8 192 56.8 177.5 81.9 177.3 81.9"/>
    <polygon class="st147" points="177.2 81.9 191.7 56.7 191.8 56.8 177.3 81.9 177.2 81.9"/>
    <polygon class="st161" points="177 81.9 191.6 56.6 191.7 56.7 177.2 81.9 177 81.9"/>
    <polygon class="st148" points="176.8 81.9 191.4 56.5 191.5 56.5 191.6 56.6 177 81.9 176.8 81.9"/>
    <polygon class="st111" points="176.6 81.9 191.2 56.5 191.4 56.5 176.8 81.9 176.6 81.9"/>
    <polygon class="st38" points="176.4 81.9 191.1 56.5 191.2 56.5 176.6 81.9 176.4 81.9"/>
    <polygon class="st95" points="176.3 81.9 190.9 56.5 191.1 56.5 176.4 81.9 176.3 81.9"/>
    <polygon class="st80" points="176.1 81.9 190.7 56.5 190.9 56.5 176.3 81.9 176.1 81.9"/>
    <polygon class="st167" points="175.9 81.9 190.5 56.5 190.7 56.5 176.1 81.9 175.9 81.9"/>
    <polygon class="st47" points="175.7 81.9 190.4 56.5 190.5 56.5 175.9 81.9 175.7 81.9"/>
    <polygon class="st120" points="175.6 81.9 190.2 56.5 190.4 56.5 175.7 81.9 175.6 81.9"/>
    <polygon class="st53" points="175.4 81.9 190 56.5 190.2 56.5 175.6 81.9 175.4 81.9"/>
    <polygon class="st49" points="175.2 81.9 189.8 56.5 190 56.5 175.4 81.9 175.2 81.9"/>
    <polygon class="st9" points="175 81.9 189.7 56.5 189.8 56.5 175.2 81.9 175 81.9"/>
    <polygon class="st79" points="174.8 81.9 189.5 56.5 189.7 56.5 175 81.9 174.8 81.9"/>
    <polygon class="st87" points="174.7 81.9 189.3 56.5 189.5 56.5 174.8 81.9 174.7 81.9"/>
    <polygon class="st61" points="174.5 81.9 189.1 56.5 189.3 56.5 174.7 81.9 174.5 81.9"/>
    <polygon class="st30" points="174.3 81.9 188.9 56.5 189.1 56.5 174.5 81.9 174.3 81.9"/>
    <polygon class="st99" points="174.1 81.9 188.8 56.5 188.9 56.5 174.3 81.9 174.1 81.9"/>
    <polygon class="st63" points="174 81.9 188.6 56.5 188.8 56.5 174.1 81.9 174 81.9"/>
    <polygon class="st58" points="173.8 81.9 188.4 56.5 188.6 56.5 174 81.9 173.8 81.9"/>
    <polygon class="st149" points="173.6 81.9 188.2 56.5 188.4 56.5 173.8 81.9 173.6 81.9"/>
    <polygon class="st115" points="173.4 81.9 188.1 56.5 188.2 56.5 173.6 81.9 173.4 81.9"/>
    <polygon class="st10" points="173.3 81.9 187.9 56.5 188.1 56.5 173.4 81.9 173.3 81.9"/>
    <polygon class="st3" points="173.1 81.9 187.7 56.5 187.9 56.5 173.3 81.9 173.1 81.9"/>
    <polygon class="st60" points="172.9 81.9 187.5 56.5 187.7 56.5 173.1 81.9 172.9 81.9"/>
    <polygon class="st18" points="172.7 81.9 187.3 56.5 187.5 56.5 172.9 81.9 172.7 81.9"/>
    <polygon class="st123" points="172.5 81.9 187.2 56.5 187.3 56.5 172.7 81.9 172.5 81.9"/>
    <polygon class="st139" points="172.4 81.9 187 56.5 187.2 56.5 172.5 81.9 172.4 81.9"/>
    <polygon class="st157" points="172.2 81.9 186.8 56.5 187 56.5 172.4 81.9 172.2 81.9"/>
    <polygon class="st159" points="172 81.9 186.6 56.5 186.8 56.5 172.2 81.9 172 81.9"/>
    <polygon class="st126" points="171.8 81.9 186.5 56.5 186.6 56.5 172 81.9 171.8 81.9"/>
    <polygon class="st108" points="171.7 81.9 186.3 56.5 186.5 56.5 171.8 81.9 171.7 81.9"/>
    <polygon class="st125" points="171.5 81.9 186.1 56.5 186.3 56.5 171.7 81.9 171.5 81.9"/>
    <polygon class="st153" points="171.3 81.9 185.9 56.5 186.1 56.5 171.5 81.9 171.3 81.9"/>
    <polygon class="st144" points="171.1 81.9 185.8 56.5 185.9 56.5 171.3 81.9 171.1 81.9"/>
    <polygon class="st170" points="170.9 81.9 185.6 56.5 185.8 56.5 171.1 81.9 170.9 81.9"/>
    <polygon class="st131" points="170.8 81.9 185.4 56.5 185.6 56.5 170.9 81.9 170.8 81.9"/>
    <polygon class="st94" points="170.6 81.9 185.2 56.5 185.4 56.5 170.8 81.9 170.6 81.9"/>
    <polygon class="st121" points="170.4 81.9 185 56.5 185.2 56.5 170.6 81.9 170.4 81.9"/>
    <polygon class="st50" points="170.2 81.9 184.9 56.5 185 56.5 170.4 81.9 170.2 81.9"/>
    <polygon class="st59" points="170.1 81.9 184.7 56.5 184.9 56.5 170.2 81.9 170.1 81.9"/>
    <polygon class="st64" points="169.9 81.9 184.5 56.5 184.7 56.5 170.1 81.9 169.9 81.9"/>
    <polygon class="st40" points="169.7 81.9 184.3 56.5 184.5 56.5 169.9 81.9 169.7 81.9"/>
    <polygon class="st90" points="169.5 81.9 184.2 56.5 184.3 56.5 169.7 81.9 169.5 81.9"/>
    <polygon class="st97" points="169.5 81.9 169.4 81.8 184 56.5 184.2 56.5 169.5 81.9 169.5 81.9"/>
    <polygon class="st145" points="169.4 81.8 169.3 81.7 183.8 56.5 184 56.5 169.4 81.8"/>
    <polygon class="st5" points="169.3 81.7 169.1 81.7 183.6 56.5 183.8 56.5 169.3 81.7"/>
    <polygon class="st57" points="169.1 81.7 169 81.6 183.4 56.5 183.6 56.5 169.1 81.7"/>
    <polygon class="st150" points="169 81.6 168.9 81.5 183.3 56.5 183.4 56.5 169 81.6"/>
    <polygon class="st55" points="168.9 81.5 168.7 81.4 183.1 56.5 183.3 56.5 168.9 81.5"/>
    <polygon class="st152" points="168.7 81.4 168.6 81.4 182.9 56.5 183.1 56.5 168.7 81.4"/>
    <polygon class="st25" points="168.6 81.4 168.5 81.3 182.7 56.5 182.9 56.5 168.6 81.4"/>
    <polygon class="st84" points="168.5 81.3 168.3 81.2 182.6 56.5 182.7 56.5 168.5 81.3"/>
    <polygon class="st134" points="168.3 81.2 168.2 81.1 182.4 56.5 182.6 56.5 168.3 81.2"/>
    <polygon class="st130" points="168.2 81.1 168.1 81.1 182.2 56.5 182.4 56.5 168.2 81.1"/>
    <polygon class="st44" points="168.1 81.1 167.9 81 182 56.5 182.2 56.5 168.1 81.1"/>
    <polygon class="st62" points="167.9 81 167.8 80.9 167.8 80.9 181.8 56.5 182 56.5 167.9 81"/>
    <polygon class="st117" points="167.8 80.6 181.7 56.5 181.8 56.5 167.8 80.9 167.8 80.6"/>
    <polygon class="st124" points="167.8 80.3 181.5 56.5 181.7 56.5 167.8 80.6 167.8 80.3"/>
    <polygon class="st67" points="167.8 79.9 181.3 56.5 181.5 56.5 167.8 80.3 167.8 79.9"/>
    <polygon class="st71" points="167.8 79.6 181.1 56.5 181.3 56.5 167.8 79.9 167.8 79.6"/>
    <polygon class="st165" points="167.8 79.3 181 56.5 181.1 56.5 167.8 79.6 167.8 79.3"/>
    <polygon class="st65" points="167.8 79 180.8 56.5 181 56.5 167.8 79.3 167.8 79"/>
    <polygon class="st114" points="167.8 78.7 180.6 56.5 180.8 56.5 167.8 79 167.8 78.7"/>
    <polygon class="st83" points="167.8 78.4 180.4 56.5 180.6 56.5 167.8 78.7 167.8 78.4"/>
    <polygon class="st169" points="167.8 78.1 180.3 56.5 180.4 56.5 167.8 78.4 167.8 78.1"/>
    <polygon class="st82" points="167.8 77.8 180.1 56.5 180.3 56.5 167.8 78.1 167.8 77.8"/>
    <polygon class="st140" points="167.8 77.5 179.9 56.5 180.1 56.5 167.8 77.8 167.8 77.5"/>
    <polygon class="st151" points="167.8 77.2 179.7 56.5 179.9 56.5 167.8 77.5 167.8 77.2"/>
    <polygon class="st143" points="167.8 76.9 179.5 56.5 179.7 56.5 167.8 77.2 167.8 76.9"/>
    <polygon class="st39" points="167.8 76.6 179.4 56.5 179.5 56.5 167.8 76.9 167.8 76.6"/>
    <polygon class="st127" points="167.8 76.3 179.2 56.5 179.4 56.5 167.8 76.6 167.8 76.3"/>
    <polygon class="st37" points="167.8 76 179 56.5 179.2 56.5 167.8 76.3 167.8 76"/>
    <polygon class="st34" points="167.8 75.6 178.8 56.5 179 56.5 167.8 76 167.8 75.6"/>
    <polygon class="st78" points="167.8 75.3 178.7 56.5 178.8 56.5 167.8 75.6 167.8 75.3"/>
    <polygon class="st43" points="167.8 75 178.5 56.5 178.7 56.5 167.8 75.3 167.8 75"/>
    <polygon class="st92" points="167.8 74.7 178.3 56.5 178.5 56.5 167.8 75 167.8 74.7"/>
    <polygon class="st48" points="167.8 74.4 178.1 56.5 178.3 56.5 167.8 74.7 167.8 74.4"/>
    <polygon class="st135" points="167.8 74.1 177.9 56.5 178.1 56.5 167.8 74.4 167.8 74.1"/>
    <polygon class="st158" points="167.8 73.8 177.8 56.5 177.9 56.5 167.8 74.1 167.8 73.8"/>
    <polygon class="st51" points="167.8 73.5 177.6 56.5 177.8 56.5 167.8 73.8 167.8 73.5"/>
    <polygon class="st77" points="167.8 73.2 177.4 56.5 177.6 56.5 167.8 73.5 167.8 73.2"/>
    <polygon class="st36" points="167.8 72.9 177.2 56.5 177.4 56.5 167.8 73.2 167.8 72.9"/>
    <polygon class="st16" points="167.8 72.6 177.1 56.5 177.2 56.5 167.8 72.9 167.8 72.6"/>
    <polygon class="st86" points="167.8 72.3 176.9 56.5 177.1 56.5 167.8 72.6 167.8 72.3"/>
    <polygon class="st154" points="167.8 72 176.7 56.5 176.9 56.5 167.8 72.3 167.8 72"/>
    <polygon class="st27" points="167.8 71.7 176.5 56.5 176.7 56.5 167.8 72 167.8 71.7"/>
    <polygon class="st116" points="167.8 71.3 176.4 56.5 176.5 56.5 167.8 71.7 167.8 71.3"/>
    <polygon class="st142" points="167.8 71 176.2 56.5 176.4 56.5 167.8 71.3 167.8 71"/>
    <polygon class="st138" points="167.8 70.7 176 56.5 176.2 56.5 167.8 71 167.8 70.7"/>
    <polygon class="st20" points="167.8 70.4 175.8 56.5 176 56.5 167.8 70.7 167.8 70.4"/>
    <polygon class="st1" points="167.8 70.1 175.6 56.5 175.8 56.5 167.8 70.4 167.8 70.1"/>
    <polygon class="st166" points="167.8 69.8 175.5 56.5 175.6 56.5 167.8 70.1 167.8 69.8"/>
    <polygon class="st146" points="167.8 69.5 175.3 56.5 175.5 56.5 167.8 69.8 167.8 69.5"/>
    <polygon class="st72" points="167.8 69.2 175.1 56.5 175.3 56.5 167.8 69.5 167.8 69.2"/>
    <polygon class="st128" points="167.8 68.9 174.9 56.5 175.1 56.5 167.8 69.2 167.8 68.9"/>
    <polygon class="st163" points="167.8 68.6 174.8 56.5 174.9 56.5 167.8 68.9 167.8 68.6"/>
    <polygon class="st103" points="167.8 68.3 174.6 56.5 174.8 56.5 167.8 68.6 167.8 68.3"/>
    <polygon class="st35" points="167.8 68 174.4 56.5 174.6 56.5 167.8 68.3 167.8 68"/>
    <polygon class="st112" points="167.8 67.7 174.2 56.5 174.4 56.5 167.8 68 167.8 67.7"/>
    <polygon class="st8" points="167.8 67.4 174 56.5 174.2 56.5 167.8 67.7 167.8 67.4"/>
    <polygon class="st102" points="167.8 67 173.9 56.5 174 56.5 167.8 67.4 167.8 67"/>
    <polygon class="st132" points="167.8 66.7 173.7 56.5 173.9 56.5 167.8 67 167.8 66.7"/>
    <polygon class="st42" points="167.8 66.4 173.5 56.5 173.7 56.5 167.8 66.7 167.8 66.4"/>
    <polygon class="st91" points="167.8 66.1 173.3 56.5 173.5 56.5 167.8 66.4 167.8 66.1"/>
    <polygon class="st22" points="167.8 65.8 173.2 56.5 173.3 56.5 167.8 66.1 167.8 65.8"/>
    <polygon class="st22" points="173.2 56.5 167.8 65.8 167.8 56.5 173.2 56.5"/>
  </g>
  <g class="st66">
    <polygon class="st19" points="197 43.8 199.7 39 199.7 43.8 197 43.8"/>
    <polygon class="st19" points="196.9 43.8 199.7 38.8 199.7 39 197 43.8 196.9 43.8"/>
    <polygon class="st54" points="196.8 43.8 199.7 38.7 199.7 38.8 196.9 43.8 196.8 43.8"/>
    <polygon class="st98" points="196.7 43.8 199.7 38.5 199.7 38.7 196.8 43.8 196.7 43.8"/>
    <polygon class="st106" points="196.6 43.8 199.7 38.3 199.7 38.5 196.7 43.8 196.6 43.8"/>
    <polygon class="st109" points="196.5 43.8 199.7 38.2 199.7 38.3 196.6 43.8 196.5 43.8"/>
    <polygon class="st11" points="196.4 43.8 199.7 38 199.7 38.2 196.5 43.8 196.4 43.8"/>
    <polygon class="st101" points="196.3 43.8 199.7 37.9 199.7 38 196.4 43.8 196.3 43.8"/>
    <polygon class="st74" points="196.2 43.8 199.7 37.7 199.7 37.9 196.3 43.8 196.2 43.8"/>
    <polygon class="st88" points="196.1 43.8 199.7 37.5 199.7 37.7 196.2 43.8 196.1 43.8"/>
    <polygon class="st24" points="196 43.8 199.7 37.4 199.7 37.5 196.1 43.8 196 43.8"/>
    <polygon class="st75" points="195.9 43.8 199.7 37.2 199.7 37.4 196 43.8 195.9 43.8"/>
    <polygon class="st119" points="195.8 43.8 199.7 37.1 199.7 37.2 195.9 43.8 195.8 43.8"/>
    <polygon class="st122" points="195.8 43.8 199.7 36.9 199.7 37.1 195.8 43.8 195.8 43.8"/>
    <polygon class="st46" points="195.7 43.8 199.7 36.7 199.7 36.9 195.8 43.8 195.7 43.8"/>
    <polygon class="st168" points="195.6 43.8 199.7 36.6 199.7 36.7 195.7 43.8 195.6 43.8"/>
    <polygon class="st15" points="195.5 43.8 199.7 36.4 199.7 36.6 195.6 43.8 195.5 43.8"/>
    <polygon class="st69" points="195.4 43.8 199.7 36.3 199.7 36.4 195.5 43.8 195.4 43.8"/>
    <polygon class="st2" points="195.3 43.8 199.7 36.1 199.7 36.3 195.4 43.8 195.3 43.8"/>
    <polygon class="st81" points="195.2 43.8 199.7 35.9 199.7 36.1 195.3 43.8 195.2 43.8"/>
    <polygon class="st164" points="195.1 43.8 199.7 35.8 199.7 35.9 195.2 43.8 195.1 43.8"/>
    <polygon class="st52" points="195 43.8 199.7 35.6 199.7 35.8 195.1 43.8 195 43.8"/>
    <polygon class="st7" points="194.9 43.8 199.7 35.5 199.7 35.6 195 43.8 194.9 43.8"/>
    <polygon class="st118" points="194.8 43.8 199.7 35.3 199.7 35.5 194.9 43.8 194.8 43.8"/>
    <polygon class="st133" points="194.7 43.8 199.7 35.1 199.7 35.3 194.8 43.8 194.7 43.8"/>
    <polygon class="st17" points="194.6 43.8 199.7 35 199.7 35.1 194.7 43.8 194.6 43.8"/>
    <polygon class="st136" points="194.6 43.8 199.7 34.8 199.7 35 194.6 43.8 194.6 43.8"/>
    <polygon class="st21" points="194.5 43.8 199.7 34.7 199.7 34.8 194.6 43.8 194.5 43.8"/>
    <polygon class="st26" points="194.4 43.8 199.7 34.5 199.7 34.7 194.5 43.8 194.4 43.8"/>
    <polygon class="st129" points="194.3 43.8 199.7 34.3 199.7 34.5 194.4 43.8 194.3 43.8"/>
    <polygon class="st107" points="194.2 43.8 199.7 34.2 199.7 34.3 194.3 43.8 194.2 43.8"/>
    <polygon class="st13" points="194.1 43.8 199.7 34 199.7 34.2 194.2 43.8 194.1 43.8"/>
    <polygon class="st70" points="194 43.8 199.7 33.9 199.7 34 194.1 43.8 194 43.8"/>
    <polygon class="st28" points="193.9 43.8 199.7 33.7 199.7 33.9 194 43.8 193.9 43.8"/>
    <polygon class="st104" points="193.8 43.8 199.7 33.5 199.7 33.7 193.9 43.8 193.8 43.8"/>
    <polygon class="st14" points="193.7 43.8 199.7 33.4 199.7 33.5 193.8 43.8 193.7 43.8"/>
    <polygon class="st68" points="193.6 43.8 199.7 33.2 199.7 33.4 193.7 43.8 193.6 43.8"/>
    <polygon class="st31" points="193.5 43.8 199.7 33.1 199.7 33.2 193.6 43.8 193.5 43.8"/>
    <polygon class="st32" points="193.4 43.8 199.7 32.9 199.7 33.1 193.5 43.8 193.4 43.8"/>
    <polygon class="st73" points="193.4 43.8 199.7 32.7 199.7 32.9 193.4 43.8 193.4 43.8"/>
    <polygon class="st141" points="193.3 43.8 199.7 32.6 199.7 32.7 193.4 43.8 193.3 43.8"/>
    <polygon class="st105" points="193.2 43.8 199.7 32.4 199.7 32.6 193.3 43.8 193.2 43.8"/>
    <polygon class="st110" points="193.1 43.8 199.7 32.3 199.7 32.4 193.2 43.8 193.1 43.8"/>
    <polygon class="st12" points="193 43.8 199.7 32.1 199.7 32.3 193.1 43.8 193 43.8"/>
    <polygon class="st76" points="192.9 43.8 199.7 32 199.7 32.1 193 43.8 192.9 43.8"/>
    <polygon class="st0" points="192.8 43.8 199.7 31.8 199.7 32 192.9 43.8 192.8 43.8"/>
    <polygon class="st4" points="192.7 43.8 199.7 31.6 199.7 31.8 192.8 43.8 192.7 43.8"/>
    <polygon class="st89" points="192.6 43.8 199.7 31.5 199.7 31.6 192.7 43.8 192.6 43.8"/>
    <polygon class="st29" points="192.5 43.8 199.7 31.3 199.7 31.5 192.6 43.8 192.5 43.8"/>
    <polygon class="st85" points="192.4 43.8 199.7 31.2 199.7 31.3 192.5 43.8 192.4 43.8"/>
    <polygon class="st155" points="192.3 43.8 199.7 31 199.7 31.2 192.4 43.8 192.3 43.8"/>
    <polygon class="st41" points="192.2 43.8 199.7 30.8 199.7 31 192.3 43.8 192.2 43.8"/>
    <polygon class="st23" points="192.2 43.8 199.7 30.7 199.7 30.8 192.2 43.8 192.2 43.8"/>
    <polygon class="st33" points="192.1 43.8 199.7 30.6 199.7 30.6 199.7 30.7 192.2 43.8 192.1 43.8"/>
    <polygon class="st162" points="192 43.8 199.6 30.6 199.7 30.6 192.1 43.8 192 43.8"/>
    <polygon class="st56" points="191.9 43.8 199.5 30.6 199.6 30.6 192 43.8 191.9 43.8"/>
    <polygon class="st113" points="191.8 43.8 199.4 30.6 199.5 30.6 191.9 43.8 191.8 43.8"/>
    <polygon class="st6" points="191.7 43.8 199.3 30.6 199.4 30.6 191.8 43.8 191.7 43.8"/>
    <polygon class="st96" points="191.6 43.8 199.2 30.6 199.3 30.6 191.7 43.8 191.6 43.8"/>
    <polygon class="st100" points="191.5 43.8 199.1 30.6 199.2 30.6 191.6 43.8 191.5 43.8"/>
    <polygon class="st147" points="191.4 43.8 199 30.6 199.1 30.6 191.5 43.8 191.4 43.8"/>
    <polygon class="st161" points="191.3 43.8 198.9 30.6 199 30.6 191.4 43.8 191.3 43.8"/>
    <polygon class="st148" points="191.2 43.8 198.8 30.6 198.9 30.6 191.3 43.8 191.2 43.8"/>
    <polygon class="st111" points="191.1 43.8 198.7 30.6 198.8 30.6 191.2 43.8 191.1 43.8"/>
    <polygon class="st38" points="191 43.8 198.7 30.6 198.7 30.6 191.1 43.8 191 43.8"/>
    <polygon class="st95" points="191 43.8 198.6 30.6 198.7 30.6 191 43.8 191 43.8"/>
    <polygon class="st80" points="190.9 43.8 198.5 30.6 198.6 30.6 191 43.8 190.9 43.8"/>
    <polygon class="st167" points="190.8 43.8 198.4 30.6 198.5 30.6 190.9 43.8 190.8 43.8"/>
    <polygon class="st47" points="190.7 43.8 198.3 30.6 198.4 30.6 190.8 43.8 190.7 43.8"/>
    <polygon class="st120" points="190.6 43.8 198.2 30.6 198.3 30.6 190.7 43.8 190.6 43.8"/>
    <polygon class="st53" points="190.5 43.8 198.1 30.6 198.2 30.6 190.6 43.8 190.5 43.8"/>
    <polygon class="st49" points="190.4 43.8 198 30.6 198.1 30.6 190.5 43.8 190.4 43.8"/>
    <polygon class="st9" points="190.3 43.8 197.9 30.6 198 30.6 190.4 43.8 190.3 43.8"/>
    <polygon class="st79" points="190.2 43.8 197.8 30.6 197.9 30.6 190.3 43.8 190.2 43.8"/>
    <polygon class="st87" points="190.1 43.8 197.7 30.6 197.8 30.6 190.2 43.8 190.1 43.8"/>
    <polygon class="st61" points="190 43.8 197.6 30.6 197.7 30.6 190.1 43.8 190 43.8"/>
    <polygon class="st30" points="189.9 43.8 197.5 30.6 197.6 30.6 190 43.8 189.9 43.8"/>
    <polygon class="st99" points="189.8 43.8 197.5 30.6 197.5 30.6 189.9 43.8 189.8 43.8"/>
    <polygon class="st63" points="189.8 43.8 197.4 30.6 197.5 30.6 189.8 43.8 189.8 43.8"/>
    <polygon class="st58" points="189.7 43.8 197.3 30.6 197.4 30.6 189.8 43.8 189.7 43.8"/>
    <polygon class="st149" points="189.6 43.8 197.2 30.6 197.3 30.6 189.7 43.8 189.6 43.8"/>
    <polygon class="st115" points="189.5 43.8 197.1 30.6 197.2 30.6 189.6 43.8 189.5 43.8"/>
    <polygon class="st10" points="189.4 43.8 197 30.6 197.1 30.6 189.5 43.8 189.4 43.8"/>
    <polygon class="st3" points="189.3 43.8 196.9 30.6 197 30.6 189.4 43.8 189.3 43.8"/>
    <polygon class="st60" points="189.2 43.8 196.8 30.6 196.9 30.6 189.3 43.8 189.2 43.8"/>
    <polygon class="st18" points="189.1 43.8 196.7 30.6 196.8 30.6 189.2 43.8 189.1 43.8"/>
    <polygon class="st123" points="189 43.8 196.6 30.6 196.7 30.6 189.1 43.8 189 43.8"/>
    <polygon class="st139" points="188.9 43.8 196.5 30.6 196.6 30.6 189 43.8 188.9 43.8"/>
    <polygon class="st157" points="188.8 43.8 196.4 30.6 196.5 30.6 188.9 43.8 188.8 43.8"/>
    <polygon class="st159" points="188.7 43.8 196.3 30.6 196.4 30.6 188.8 43.8 188.7 43.8"/>
    <polygon class="st126" points="188.6 43.8 196.3 30.6 196.3 30.6 188.7 43.8 188.6 43.8"/>
    <polygon class="st108" points="188.6 43.8 196.2 30.6 196.3 30.6 188.6 43.8 188.6 43.8"/>
    <polygon class="st125" points="188.5 43.8 196.1 30.6 196.2 30.6 188.6 43.8 188.5 43.8"/>
    <polygon class="st153" points="188.4 43.8 196 30.6 196.1 30.6 188.5 43.8 188.4 43.8"/>
    <polygon class="st144" points="188.3 43.8 195.9 30.6 196 30.6 188.4 43.8 188.3 43.8"/>
    <polygon class="st170" points="188.2 43.8 195.8 30.6 195.9 30.6 188.3 43.8 188.2 43.8"/>
    <polygon class="st131" points="188.1 43.8 195.7 30.6 195.8 30.6 188.2 43.8 188.1 43.8"/>
    <polygon class="st94" points="188 43.8 195.6 30.6 195.7 30.6 188.1 43.8 188 43.8"/>
    <polygon class="st121" points="187.9 43.8 195.5 30.6 195.6 30.6 188 43.8 187.9 43.8"/>
    <polygon class="st50" points="187.8 43.8 195.4 30.6 195.5 30.6 187.9 43.8 187.8 43.8"/>
    <polygon class="st59" points="187.7 43.8 195.3 30.6 195.4 30.6 187.8 43.8 187.7 43.8"/>
    <polygon class="st64" points="187.6 43.8 195.2 30.6 195.3 30.6 187.7 43.8 187.6 43.8"/>
    <polygon class="st40" points="187.5 43.8 195.1 30.6 195.2 30.6 187.6 43.8 187.5 43.8"/>
    <polygon class="st90" points="187.4 43.8 195.1 30.6 195.1 30.6 187.5 43.8 187.4 43.8"/>
    <polygon class="st97" points="187.4 43.8 195 30.6 195.1 30.6 187.4 43.8 187.4 43.8"/>
    <polygon class="st145" points="187.3 43.8 194.9 30.6 195 30.6 187.4 43.8 187.3 43.8"/>
    <polygon class="st5" points="187.2 43.8 194.8 30.6 194.9 30.6 187.3 43.8 187.2 43.8"/>
    <polygon class="st57" points="187.1 43.8 194.7 30.6 194.8 30.6 187.2 43.8 187.1 43.8"/>
    <polygon class="st150" points="187 43.8 194.6 30.6 194.7 30.6 187.1 43.8 187 43.8"/>
    <polygon class="st55" points="186.9 43.8 194.5 30.6 194.6 30.6 187 43.8 186.9 43.8"/>
    <polygon class="st152" points="186.8 43.8 194.4 30.6 194.5 30.6 186.9 43.8 186.8 43.8"/>
    <polygon class="st25" points="186.7 43.8 194.3 30.6 194.4 30.6 186.8 43.8 186.7 43.8"/>
    <polygon class="st84" points="186.6 43.8 194.2 30.6 194.3 30.6 186.7 43.8 186.6 43.8"/>
    <polygon class="st134" points="186.6 43.8 194.1 30.6 194.2 30.6 186.6 43.8 186.6 43.8 186.6 43.8"/>
    <polygon class="st130" points="186.6 43.6 194 30.6 194.1 30.6 186.6 43.8 186.6 43.6"/>
    <polygon class="st44" points="186.6 43.4 193.9 30.6 194 30.6 186.6 43.6 186.6 43.4"/>
    <polygon class="st62" points="186.6 43.3 193.9 30.6 193.9 30.6 186.6 43.4 186.6 43.3"/>
    <polygon class="st117" points="186.6 43.1 193.8 30.6 193.9 30.6 186.6 43.3 186.6 43.1"/>
    <polygon class="st124" points="186.6 43 193.7 30.6 193.8 30.6 186.6 43.1 186.6 43"/>
    <polygon class="st67" points="186.6 42.8 193.6 30.6 193.7 30.6 186.6 43 186.6 42.8"/>
    <polygon class="st71" points="186.6 42.6 193.5 30.6 193.6 30.6 186.6 42.8 186.6 42.6"/>
    <polygon class="st165" points="186.6 42.5 193.4 30.6 193.5 30.6 186.6 42.6 186.6 42.5"/>
    <polygon class="st65" points="186.6 42.3 193.3 30.6 193.4 30.6 186.6 42.5 186.6 42.3"/>
    <polygon class="st114" points="186.6 42.2 193.2 30.6 193.3 30.6 186.6 42.3 186.6 42.2"/>
    <polygon class="st83" points="186.6 42 193.1 30.6 193.2 30.6 186.6 42.2 186.6 42"/>
    <polygon class="st169" points="186.6 41.8 193 30.6 193.1 30.6 186.6 42 186.6 41.8"/>
    <polygon class="st82" points="186.6 41.7 192.9 30.6 193 30.6 186.6 41.8 186.6 41.7"/>
    <polygon class="st140" points="186.6 41.5 192.8 30.6 192.9 30.6 186.6 41.7 186.6 41.5"/>
    <polygon class="st151" points="186.6 41.4 192.8 30.6 192.8 30.6 186.6 41.5 186.6 41.4"/>
    <polygon class="st143" points="186.6 41.2 192.7 30.6 192.8 30.6 186.6 41.4 186.6 41.2"/>
    <polygon class="st39" points="186.6 41 192.6 30.6 192.7 30.6 186.6 41.2 186.6 41"/>
    <polygon class="st127" points="186.6 40.9 192.5 30.6 192.6 30.6 186.6 41 186.6 40.9"/>
    <polygon class="st37" points="186.6 40.7 192.4 30.6 192.5 30.6 186.6 40.9 186.6 40.7"/>
    <polygon class="st34" points="186.6 40.6 192.3 30.6 192.4 30.6 186.6 40.7 186.6 40.6"/>
    <polygon class="st78" points="186.6 40.4 192.2 30.6 192.3 30.6 186.6 40.6 186.6 40.4"/>
    <polygon class="st43" points="186.6 40.2 192.1 30.6 192.2 30.6 186.6 40.4 186.6 40.2"/>
    <polygon class="st92" points="186.6 40.1 192 30.6 192.1 30.6 186.6 40.2 186.6 40.1"/>
    <polygon class="st48" points="186.6 39.9 191.9 30.6 192 30.6 186.6 40.1 186.6 39.9"/>
    <polygon class="st135" points="186.6 39.8 191.8 30.6 191.9 30.6 186.6 39.9 186.6 39.8"/>
    <polygon class="st158" points="186.6 39.6 191.7 30.6 191.8 30.6 186.6 39.8 186.6 39.6"/>
    <polygon class="st51" points="186.6 39.4 191.6 30.6 191.7 30.6 186.6 39.6 186.6 39.4"/>
    <polygon class="st77" points="186.6 39.3 191.6 30.6 191.6 30.6 186.6 39.4 186.6 39.3"/>
    <polygon class="st36" points="186.6 39.1 191.5 30.6 191.6 30.6 186.6 39.3 186.6 39.1"/>
    <polygon class="st16" points="186.6 39 191.4 30.6 191.5 30.6 186.6 39.1 186.6 39"/>
    <polygon class="st86" points="186.6 38.8 191.3 30.6 191.4 30.6 186.6 39 186.6 38.8"/>
    <polygon class="st154" points="186.6 38.6 191.2 30.6 191.3 30.6 186.6 38.8 186.6 38.6"/>
    <polygon class="st27" points="186.6 38.5 191.1 30.6 191.2 30.6 186.6 38.6 186.6 38.5"/>
    <polygon class="st116" points="186.6 38.3 191 30.6 191.1 30.6 186.6 38.5 186.6 38.3"/>
    <polygon class="st142" points="186.6 38.2 190.9 30.6 191 30.6 186.6 38.3 186.6 38.2"/>
    <polygon class="st138" points="186.6 38 190.8 30.6 190.9 30.6 186.6 38.2 186.6 38"/>
    <polygon class="st20" points="186.6 37.8 190.7 30.6 190.8 30.6 186.6 38 186.6 37.8"/>
    <polygon class="st1" points="186.6 37.7 190.6 30.6 190.7 30.6 186.6 37.8 186.6 37.7"/>
    <polygon class="st166" points="186.6 37.5 190.5 30.6 190.6 30.6 186.6 37.7 186.6 37.5"/>
    <polygon class="st146" points="186.6 37.4 190.4 30.6 190.5 30.6 186.6 37.5 186.6 37.4"/>
    <polygon class="st72" points="186.6 37.2 190.4 30.6 190.4 30.6 186.6 37.4 186.6 37.2"/>
    <polygon class="st128" points="186.6 37 190.3 30.6 190.4 30.6 186.6 37.2 186.6 37"/>
    <polygon class="st163" points="186.6 36.9 190.2 30.6 190.3 30.6 186.6 37 186.6 36.9"/>
    <polygon class="st103" points="186.6 36.7 190.1 30.6 190.2 30.6 186.6 36.9 186.6 36.7"/>
    <polygon class="st35" points="186.6 36.6 190 30.6 190.1 30.6 186.6 36.7 186.6 36.6"/>
    <polygon class="st112" points="186.6 36.4 189.9 30.6 190 30.6 186.6 36.6 186.6 36.4"/>
    <polygon class="st8" points="186.6 36.2 189.8 30.6 189.9 30.6 186.6 36.4 186.6 36.2"/>
    <polygon class="st102" points="186.6 36.1 189.7 30.6 189.8 30.6 186.6 36.2 186.6 36.1"/>
    <polygon class="st132" points="186.6 35.9 189.6 30.6 189.7 30.6 186.6 36.1 186.6 35.9"/>
    <polygon class="st42" points="186.6 35.8 189.5 30.6 189.6 30.6 186.6 35.9 186.6 35.8"/>
    <polygon class="st91" points="186.6 35.6 189.4 30.6 189.5 30.6 186.6 35.8 186.6 35.6"/>
    <polygon class="st22" points="186.6 35.4 189.3 30.6 189.4 30.6 186.6 35.6 186.6 35.4"/>
    <polygon class="st22" points="189.3 30.6 186.6 35.4 186.6 30.6 189.3 30.6"/>
  </g>
  <g class="st137">
    <polygon class="st19" points="216.7 69.2 220.9 61.9 220.9 69.2 216.7 69.2"/>
    <polygon class="st19" points="216.5 69.2 220.9 61.6 220.9 61.9 216.7 69.2 216.5 69.2"/>
    <polygon class="st54" points="216.4 69.2 220.9 61.4 220.9 61.6 216.5 69.2 216.4 69.2"/>
    <polygon class="st98" points="216.2 69.2 220.9 61.1 220.9 61.4 216.4 69.2 216.2 69.2"/>
    <polygon class="st106" points="216.1 69.2 220.9 60.9 220.9 61.1 216.2 69.2 216.1 69.2"/>
    <polygon class="st109" points="216 69.2 220.9 60.6 220.9 60.9 216.1 69.2 216 69.2"/>
    <polygon class="st11" points="215.8 69.2 220.9 60.4 220.9 60.6 216 69.2 215.8 69.2"/>
    <polygon class="st101" points="215.7 69.2 220.9 60.2 220.9 60.4 215.8 69.2 215.7 69.2"/>
    <polygon class="st74" points="215.5 69.2 220.9 59.9 220.9 60.2 215.7 69.2 215.5 69.2"/>
    <polygon class="st88" points="215.4 69.2 220.9 59.7 220.9 59.9 215.5 69.2 215.4 69.2"/>
    <polygon class="st24" points="215.3 69.2 220.9 59.4 220.9 59.7 215.4 69.2 215.3 69.2"/>
    <polygon class="st75" points="215.1 69.2 220.9 59.2 220.9 59.4 215.3 69.2 215.1 69.2"/>
    <polygon class="st119" points="215 69.2 220.9 58.9 220.9 59.2 215.1 69.2 215 69.2"/>
    <polygon class="st122" points="214.8 69.2 220.9 58.7 220.9 58.9 215 69.2 214.8 69.2"/>
    <polygon class="st46" points="214.7 69.2 220.9 58.5 220.9 58.7 214.8 69.2 214.7 69.2"/>
    <polygon class="st168" points="214.6 69.2 220.9 58.2 220.9 58.5 214.7 69.2 214.6 69.2"/>
    <polygon class="st15" points="214.4 69.2 220.9 58 220.9 58.2 214.6 69.2 214.4 69.2"/>
    <polygon class="st69" points="214.3 69.2 220.9 57.7 220.9 58 214.4 69.2 214.3 69.2"/>
    <polygon class="st2" points="214.1 69.2 220.9 57.5 220.9 57.7 214.3 69.2 214.1 69.2"/>
    <polygon class="st81" points="214 69.2 220.9 57.2 220.9 57.5 214.1 69.2 214 69.2"/>
    <polygon class="st164" points="213.8 69.2 220.9 57 220.9 57.2 214 69.2 213.8 69.2"/>
    <polygon class="st52" points="213.7 69.2 220.9 56.7 220.9 57 213.8 69.2 213.7 69.2"/>
    <polygon class="st7" points="213.6 69.2 220.9 56.5 220.9 56.7 213.7 69.2 213.6 69.2"/>
    <polygon class="st118" points="213.4 69.2 220.9 56.3 220.9 56.5 213.6 69.2 213.4 69.2"/>
    <polygon class="st133" points="213.3 69.2 220.9 56 220.9 56.3 213.4 69.2 213.3 69.2"/>
    <polygon class="st17" points="213.1 69.2 220.9 55.8 220.9 56 213.3 69.2 213.1 69.2"/>
    <polygon class="st136" points="213 69.2 220.9 55.5 220.9 55.8 213.1 69.2 213 69.2"/>
    <polygon class="st21" points="212.9 69.2 220.9 55.3 220.9 55.5 213 69.2 212.9 69.2"/>
    <polygon class="st26" points="212.7 69.2 220.9 55 220.9 55.3 212.9 69.2 212.7 69.2"/>
    <polygon class="st129" points="212.6 69.2 220.9 54.8 220.9 55 212.7 69.2 212.6 69.2"/>
    <polygon class="st107" points="212.4 69.2 220.9 54.6 220.9 54.8 212.6 69.2 212.4 69.2"/>
    <polygon class="st13" points="212.3 69.2 220.9 54.3 220.9 54.6 212.4 69.2 212.3 69.2"/>
    <polygon class="st70" points="212.2 69.2 220.9 54.1 220.9 54.3 212.3 69.2 212.2 69.2"/>
    <polygon class="st28" points="212 69.2 220.9 53.8 220.9 54.1 212.2 69.2 212 69.2"/>
    <polygon class="st104" points="211.9 69.2 220.9 53.6 220.9 53.8 212 69.2 211.9 69.2"/>
    <polygon class="st14" points="211.7 69.2 220.9 53.3 220.9 53.6 211.9 69.2 211.7 69.2"/>
    <polygon class="st68" points="211.6 69.2 220.9 53.1 220.9 53.3 211.7 69.2 211.6 69.2"/>
    <polygon class="st31" points="211.5 69.2 220.9 52.8 220.9 53.1 211.6 69.2 211.5 69.2"/>
    <polygon class="st32" points="211.3 69.2 220.9 52.6 220.9 52.8 211.5 69.2 211.3 69.2"/>
    <polygon class="st73" points="211.2 69.2 220.9 52.4 220.9 52.6 211.3 69.2 211.2 69.2"/>
    <polygon class="st141" points="211 69.2 220.9 52.1 220.9 52.4 211.2 69.2 211 69.2"/>
    <polygon class="st105" points="210.9 69.2 220.9 51.9 220.9 52.1 211 69.2 210.9 69.2"/>
    <polygon class="st110" points="210.8 69.2 220.9 51.6 220.9 51.9 210.9 69.2 210.8 69.2"/>
    <polygon class="st12" points="210.6 69.2 220.9 51.4 220.9 51.6 210.8 69.2 210.6 69.2"/>
    <polygon class="st76" points="210.5 69.2 220.9 51.1 220.9 51.4 210.6 69.2 210.5 69.2"/>
    <polygon class="st0" points="210.3 69.2 220.9 50.9 220.9 51.1 210.5 69.2 210.3 69.2"/>
    <polygon class="st4" points="210.2 69.2 220.9 50.7 220.9 50.9 210.3 69.2 210.2 69.2"/>
    <polygon class="st89" points="210 69.2 220.9 50.4 220.9 50.7 210.2 69.2 210 69.2"/>
    <polygon class="st29" points="209.9 69.2 220.9 50.2 220.9 50.4 210 69.2 209.9 69.2"/>
    <polygon class="st85" points="209.8 69.2 220.9 49.9 220.9 50.2 209.9 69.2 209.8 69.2"/>
    <polygon class="st155" points="209.6 69.2 220.9 49.7 220.9 49.9 209.8 69.2 209.6 69.2"/>
    <polygon class="st41" points="209.5 69.2 220.9 49.4 220.9 49.7 209.6 69.2 209.5 69.2"/>
    <polygon class="st23" points="209.3 69.2 220.8 49.4 220.9 49.4 220.9 49.4 209.5 69.2 209.3 69.2"/>
    <polygon class="st33" points="209.2 69.2 220.7 49.3 220.8 49.4 209.3 69.2 209.2 69.2"/>
    <polygon class="st162" points="209.1 69.2 220.6 49.2 220.7 49.3 209.2 69.2 209.1 69.2"/>
    <polygon class="st56" points="208.9 69.2 220.5 49.2 220.6 49.2 209.1 69.2 208.9 69.2"/>
    <polygon class="st113" points="208.8 69.2 220.4 49.1 220.4 49.1 220.5 49.2 208.9 69.2 208.8 69.2"/>
    <polygon class="st6" points="208.6 69.2 220.2 49.1 220.4 49.1 208.8 69.2 208.6 69.2"/>
    <polygon class="st96" points="208.5 69.2 220.1 49.1 220.2 49.1 208.6 69.2 208.5 69.2"/>
    <polygon class="st100" points="208.4 69.2 220 49.1 220.1 49.1 208.5 69.2 208.4 69.2"/>
    <polygon class="st147" points="208.2 69.2 219.8 49.1 220 49.1 208.4 69.2 208.2 69.2"/>
    <polygon class="st161" points="208.1 69.2 219.7 49.1 219.8 49.1 208.2 69.2 208.1 69.2"/>
    <polygon class="st148" points="207.9 69.2 219.5 49.1 219.7 49.1 208.1 69.2 207.9 69.2"/>
    <polygon class="st111" points="207.8 69.2 219.4 49.1 219.5 49.1 207.9 69.2 207.8 69.2"/>
    <polygon class="st38" points="207.7 69.2 219.3 49.1 219.4 49.1 207.8 69.2 207.7 69.2"/>
    <polygon class="st95" points="207.5 69.2 219.1 49.1 219.3 49.1 207.7 69.2 207.5 69.2"/>
    <polygon class="st80" points="207.4 69.2 219 49.1 219.1 49.1 207.5 69.2 207.4 69.2"/>
    <polygon class="st167" points="207.2 69.2 218.8 49.1 219 49.1 207.4 69.2 207.2 69.2"/>
    <polygon class="st47" points="207.1 69.2 218.7 49.1 218.8 49.1 207.2 69.2 207.1 69.2"/>
    <polygon class="st120" points="207 69.2 218.6 49.1 218.7 49.1 207.1 69.2 207 69.2"/>
    <polygon class="st53" points="206.8 69.2 218.4 49.1 218.6 49.1 207 69.2 206.8 69.2"/>
    <polygon class="st49" points="206.7 69.2 218.3 49.1 218.4 49.1 206.8 69.2 206.7 69.2"/>
    <polygon class="st9" points="206.5 69.2 218.1 49.1 218.3 49.1 206.7 69.2 206.5 69.2"/>
    <polygon class="st79" points="206.4 69.2 218 49.1 218.1 49.1 206.5 69.2 206.4 69.2"/>
    <polygon class="st87" points="206.3 69.2 217.9 49.1 218 49.1 206.4 69.2 206.3 69.2"/>
    <polygon class="st61" points="206.1 69.2 217.7 49.1 217.9 49.1 206.3 69.2 206.1 69.2"/>
    <polygon class="st30" points="206 69.2 217.6 49.1 217.7 49.1 206.1 69.2 206 69.2"/>
    <polygon class="st99" points="205.8 69.2 217.4 49.1 217.6 49.1 206 69.2 205.8 69.2"/>
    <polygon class="st63" points="205.7 69.2 217.3 49.1 217.4 49.1 205.8 69.2 205.7 69.2"/>
    <polygon class="st58" points="205.5 69.2 217.2 49.1 217.3 49.1 205.7 69.2 205.5 69.2"/>
    <polygon class="st149" points="205.4 69.2 217 49.1 217.2 49.1 205.5 69.2 205.4 69.2"/>
    <polygon class="st115" points="205.3 69.2 216.9 49.1 217 49.1 205.4 69.2 205.3 69.2"/>
    <polygon class="st10" points="205.1 69.2 216.7 49.1 216.9 49.1 205.3 69.2 205.1 69.2"/>
    <polygon class="st3" points="205 69.2 216.6 49.1 216.7 49.1 205.1 69.2 205 69.2"/>
    <polygon class="st60" points="204.8 69.2 216.4 49.1 216.6 49.1 205 69.2 204.8 69.2"/>
    <polygon class="st18" points="204.7 69.2 216.3 49.1 216.4 49.1 204.8 69.2 204.7 69.2"/>
    <polygon class="st123" points="204.6 69.2 216.2 49.1 216.3 49.1 204.7 69.2 204.6 69.2"/>
    <polygon class="st139" points="204.4 69.2 216 49.1 216.2 49.1 204.6 69.2 204.4 69.2"/>
    <polygon class="st157" points="204.3 69.2 215.9 49.1 216 49.1 204.4 69.2 204.3 69.2"/>
    <polygon class="st159" points="204.1 69.2 215.7 49.1 215.9 49.1 204.3 69.2 204.1 69.2"/>
    <polygon class="st126" points="204 69.2 215.6 49.1 215.7 49.1 204.1 69.2 204 69.2"/>
    <polygon class="st108" points="203.9 69.2 215.5 49.1 215.6 49.1 204 69.2 203.9 69.2"/>
    <polygon class="st125" points="203.7 69.2 215.3 49.1 215.5 49.1 203.9 69.2 203.7 69.2"/>
    <polygon class="st153" points="203.6 69.2 215.2 49.1 215.3 49.1 203.7 69.2 203.6 69.2"/>
    <polygon class="st144" points="203.4 69.2 215 49.1 215.2 49.1 203.6 69.2 203.4 69.2"/>
    <polygon class="st170" points="203.3 69.2 214.9 49.1 215 49.1 203.4 69.2 203.3 69.2"/>
    <polygon class="st131" points="203.2 69.2 214.8 49.1 214.9 49.1 203.3 69.2 203.2 69.2"/>
    <polygon class="st94" points="203 69.2 214.6 49.1 214.8 49.1 203.2 69.2 203 69.2"/>
    <polygon class="st121" points="202.9 69.2 214.5 49.1 214.6 49.1 203 69.2 202.9 69.2"/>
    <polygon class="st50" points="202.7 69.2 214.3 49.1 214.5 49.1 202.9 69.2 202.7 69.2"/>
    <polygon class="st59" points="202.6 69.2 214.2 49.1 214.3 49.1 202.7 69.2 202.6 69.2"/>
    <polygon class="st64" points="202.5 69.2 214.1 49.1 214.2 49.1 202.6 69.2 202.5 69.2"/>
    <polygon class="st40" points="202.3 69.2 213.9 49.1 214.1 49.1 202.5 69.2 202.3 69.2"/>
    <polygon class="st90" points="202.2 69.2 213.8 49.1 213.9 49.1 202.3 69.2 202.2 69.2"/>
    <polygon class="st97" points="202 69.2 213.6 49.1 213.8 49.1 202.2 69.2 202 69.2"/>
    <polygon class="st145" points="201.9 69.2 213.5 49.1 213.6 49.1 202 69.2 201.9 69.2"/>
    <polygon class="st5" points="201.8 69.2 213.4 49.1 213.5 49.1 201.9 69.2 201.8 69.2"/>
    <polygon class="st57" points="201.6 69.2 213.2 49.1 213.4 49.1 201.8 69.2 201.6 69.2"/>
    <polygon class="st150" points="201.5 69.2 213.1 49.1 213.2 49.1 201.6 69.2 201.5 69.2"/>
    <polygon class="st55" points="201.3 69.2 212.9 49.1 213.1 49.1 201.5 69.2 201.3 69.2"/>
    <polygon class="st152" points="201.3 69.2 201.2 69.2 212.8 49.1 212.9 49.1 201.3 69.2 201.3 69.2"/>
    <polygon class="st25" points="201.2 69.2 201.1 69.1 212.6 49.1 212.8 49.1 201.2 69.2"/>
    <polygon class="st84" points="201.1 69.1 201 69 212.5 49.1 212.6 49.1 201.1 69.1"/>
    <polygon class="st134" points="201 69 200.9 69 212.4 49.1 212.5 49.1 201 69"/>
    <polygon class="st130" points="200.9 69 200.8 68.9 200.8 68.9 212.2 49.1 212.4 49.1 200.9 69"/>
    <polygon class="st44" points="200.8 68.7 212.1 49.1 212.2 49.1 200.8 68.9 200.8 68.7"/>
    <polygon class="st62" points="200.8 68.4 211.9 49.1 212.1 49.1 200.8 68.7 200.8 68.4"/>
    <polygon class="st117" points="200.8 68.2 211.8 49.1 211.9 49.1 200.8 68.4 200.8 68.2"/>
    <polygon class="st124" points="200.8 67.9 211.7 49.1 211.8 49.1 200.8 68.2 200.8 67.9"/>
    <polygon class="st67" points="200.8 67.7 211.5 49.1 211.7 49.1 200.8 67.9 200.8 67.7"/>
    <polygon class="st71" points="200.8 67.4 211.4 49.1 211.5 49.1 200.8 67.7 200.8 67.4"/>
    <polygon class="st165" points="200.8 67.2 211.2 49.1 211.4 49.1 200.8 67.4 200.8 67.2"/>
    <polygon class="st65" points="200.8 66.9 211.1 49.1 211.2 49.1 200.8 67.2 200.8 66.9"/>
    <polygon class="st114" points="200.8 66.7 211 49.1 211.1 49.1 200.8 66.9 200.8 66.7"/>
    <polygon class="st83" points="200.8 66.5 210.8 49.1 211 49.1 200.8 66.7 200.8 66.5"/>
    <polygon class="st169" points="200.8 66.2 210.7 49.1 210.8 49.1 200.8 66.5 200.8 66.2"/>
    <polygon class="st82" points="200.8 66 210.5 49.1 210.7 49.1 200.8 66.2 200.8 66"/>
    <polygon class="st140" points="200.8 65.7 210.4 49.1 210.5 49.1 200.8 66 200.8 65.7"/>
    <polygon class="st151" points="200.8 65.5 210.3 49.1 210.4 49.1 200.8 65.7 200.8 65.5"/>
    <polygon class="st143" points="200.8 65.2 210.1 49.1 210.3 49.1 200.8 65.5 200.8 65.2"/>
    <polygon class="st39" points="200.8 65 210 49.1 210.1 49.1 200.8 65.2 200.8 65"/>
    <polygon class="st127" points="200.8 64.8 209.8 49.1 210 49.1 200.8 65 200.8 64.8"/>
    <polygon class="st37" points="200.8 64.5 209.7 49.1 209.8 49.1 200.8 64.8 200.8 64.5"/>
    <polygon class="st34" points="200.8 64.3 209.6 49.1 209.7 49.1 200.8 64.5 200.8 64.3"/>
    <polygon class="st78" points="200.8 64 209.4 49.1 209.6 49.1 200.8 64.3 200.8 64"/>
    <polygon class="st43" points="200.8 63.8 209.3 49.1 209.4 49.1 200.8 64 200.8 63.8"/>
    <polygon class="st92" points="200.8 63.5 209.1 49.1 209.3 49.1 200.8 63.8 200.8 63.5"/>
    <polygon class="st48" points="200.8 63.3 209 49.1 209.1 49.1 200.8 63.5 200.8 63.3"/>
    <polygon class="st135" points="200.8 63 208.9 49.1 209 49.1 200.8 63.3 200.8 63"/>
    <polygon class="st158" points="200.8 62.8 208.7 49.1 208.9 49.1 200.8 63 200.8 62.8"/>
    <polygon class="st51" points="200.8 62.6 208.6 49.1 208.7 49.1 200.8 62.8 200.8 62.6"/>
    <polygon class="st77" points="200.8 62.3 208.4 49.1 208.6 49.1 200.8 62.6 200.8 62.3"/>
    <polygon class="st36" points="200.8 62.1 208.3 49.1 208.4 49.1 200.8 62.3 200.8 62.1"/>
    <polygon class="st16" points="200.8 61.8 208.1 49.1 208.3 49.1 200.8 62.1 200.8 61.8"/>
    <polygon class="st86" points="200.8 61.6 208 49.1 208.1 49.1 200.8 61.8 200.8 61.6"/>
    <polygon class="st154" points="200.8 61.3 207.9 49.1 208 49.1 200.8 61.6 200.8 61.3"/>
    <polygon class="st27" points="200.8 61.1 207.7 49.1 207.9 49.1 200.8 61.3 200.8 61.1"/>
    <polygon class="st116" points="200.8 60.9 207.6 49.1 207.7 49.1 200.8 61.1 200.8 60.9"/>
    <polygon class="st142" points="200.8 60.6 207.4 49.1 207.6 49.1 200.8 60.9 200.8 60.6"/>
    <polygon class="st138" points="200.8 60.4 207.3 49.1 207.4 49.1 200.8 60.6 200.8 60.4"/>
    <polygon class="st20" points="200.8 60.1 207.2 49.1 207.3 49.1 200.8 60.4 200.8 60.1"/>
    <polygon class="st1" points="200.8 59.9 207 49.1 207.2 49.1 200.8 60.1 200.8 59.9"/>
    <polygon class="st166" points="200.8 59.6 206.9 49.1 207 49.1 200.8 59.9 200.8 59.6"/>
    <polygon class="st146" points="200.8 59.4 206.7 49.1 206.9 49.1 200.8 59.6 200.8 59.4"/>
    <polygon class="st72" points="200.8 59.2 206.6 49.1 206.7 49.1 200.8 59.4 200.8 59.2"/>
    <polygon class="st128" points="200.8 58.9 206.5 49.1 206.6 49.1 200.8 59.2 200.8 58.9"/>
    <polygon class="st163" points="200.8 58.7 206.3 49.1 206.5 49.1 200.8 58.9 200.8 58.7"/>
    <polygon class="st103" points="200.8 58.4 206.2 49.1 206.3 49.1 200.8 58.7 200.8 58.4"/>
    <polygon class="st35" points="200.8 58.2 206 49.1 206.2 49.1 200.8 58.4 200.8 58.2"/>
    <polygon class="st112" points="200.8 57.9 205.9 49.1 206 49.1 200.8 58.2 200.8 57.9"/>
    <polygon class="st8" points="200.8 57.7 205.8 49.1 205.9 49.1 200.8 57.9 200.8 57.7"/>
    <polygon class="st102" points="200.8 57.4 205.6 49.1 205.8 49.1 200.8 57.7 200.8 57.4"/>
    <polygon class="st132" points="200.8 57.2 205.5 49.1 205.6 49.1 200.8 57.4 200.8 57.2"/>
    <polygon class="st42" points="200.8 57 205.3 49.1 205.5 49.1 200.8 57.2 200.8 57"/>
    <polygon class="st91" points="200.8 56.7 205.2 49.1 205.3 49.1 200.8 57 200.8 56.7"/>
    <polygon class="st22" points="200.8 56.5 205.1 49.1 205.2 49.1 200.8 56.7 200.8 56.5"/>
    <polygon class="st22" points="205.1 49.1 200.8 56.5 200.8 49.1 205.1 49.1"/>
  </g>
</svg>