<?xml version="1.0" encoding="UTF-8"?>
<svg id="Capa_1" xmlns="http://www.w3.org/2000/svg" version="1.1" xmlns:xlink="http://www.w3.org/1999/xlink" viewBox="0 0 953.1 322.3">
  <!-- Generator: Adobe Illustrator 29.0.0, SVG Export Plug-In . SVG Version: 2.1.0 Build 186)  -->
  <defs>
    <style>
      .st0 {
        fill: #fff;
      }

      .st1 {
        clip-path: url(#clippath-1);
      }

      .st2 {
        clip-path: url(#clippath-3);
      }

      .st3 {
        clip-path: url(#clippath-2);
      }

      .st4 {
        clip-path: url(#clippath);
      }
    </style>
    <clipPath id="clippath">
      <circle class="st0" cx="884" cy="69.2" r="12.7"/>
    </clipPath>
    <clipPath id="clippath-1">
      <path class="st0" d="M896.7,30.6c3.6,0,6.6,3,6.6,6.6s-3,6.6-6.6,6.6-6.6-3-6.6-6.6,3-6.6,6.6-6.6Z"/>
    </clipPath>
    <clipPath id="clippath-2">
      <circle class="st0" cx="914.4" cy="59.2" r="10"/>
    </clipPath>
    <clipPath id="clippath-3">
      <circle class="st0" cx="776.1" cy="232.9" r="12.7"/>
    </clipPath>
  </defs>
  <path class="st0" d="M22.3,156.7V61.6c0-22.2,13.6-33.2,40.8-33.2s40.5,11,40.5,33.2v21.5c0,3.4-2.1,4.9-6.5,4.9h-16.8c-4.4,0-6.5-1.6-6.5-4.9v-25.1c0-5.4-3.2-8.1-9.5-8.1s-9.7,2.7-9.7,8.1v102.3c0,5.4,3.2,8.1,9.7,8.1s9.5-2.7,9.5-8.1v-41.7h-3c-4.4,0-6.5-1.6-6.5-4.9v-10.1c0-3.4,2.1-4.9,6.5-4.9h27.2c4.4,0,6.5,1.6,6.5,4.9v79.2c0,3.4-2.1,4.9-6.5,4.9h-4.4c-3.8,0-6.2-1.3-7.1-4.3l-1.5-4.7c-5,7.4-14.5,11.2-28.4,11.2-22.7,0-34.3-11-34.3-33.2Z"/>
  <path class="st0" d="M126.5,166.5v-15.3c0-10.1,3-17.7,9.7-22.9,7.1-5.4,10.6-7.2,19.2-10.8,4.1-1.6,7.1-2.9,8.9-3.8,3.8-2,8.3-6.1,8.3-10.8v-12.8c0-5.2-2.7-7.6-8.3-7.6s-8.6,2.5-8.6,7.6v16.1c0,3.4-2.1,4.9-6.5,4.9h-13.6c-4.4,0-6.5-1.6-6.5-4.9v-13c0-19.5,12.1-29.4,36-29.4s35.7,9.9,35.7,29.4v66.6c0,10.1.6,17.7,1.5,22.4.6,3.4-1.5,5.2-5.9,5.2h-14.2c-4.1,0-6.5-1.3-7.4-4-.3-1.3-.9-3.4-1.2-6.1-4.1,8.3-11.8,12.3-22.7,12.3-16.2,0-24.5-7.8-24.5-23.3v.2ZM172.6,163.2v-33.4c-13.9,6.1-17.7,10.3-17.7,19.3v15.3c0,4.7,2.7,7.2,8,7.2s9.7-3.6,9.7-8.3h0Z"/>
  <path class="st0" d="M224.6,161.8v-13c0-3.4,2.1-4.9,6.5-4.9h13.3c4.4,0,6.5,1.6,6.5,4.9v15.5c0,5.2,3,7.8,8.6,7.8s8.9-2.5,8.9-7.4v-9.6c0-2.9-.9-5.8-2.7-8.3-3.5-5.4-6.8-7.2-14.8-11.9-5.6-3.4-10-6.1-13-8.3-5.6-4.5-13.3-15.7-13.3-29.4v-6.3c0-17.7,13-26.9,36.3-26.9s35.7,9.4,35.7,28v11.2c0,3.4-2.1,4.9-6.5,4.9h-13.3c-4.4,0-6.5-1.6-6.5-4.9v-13.7c0-5.2-3-7.8-8.6-7.8s-8.9,2.5-8.9,7.4v8.3c0,2.9.9,5.8,2.7,8.5,3.8,5.2,6.5,6.7,14.8,11.9,5.6,3.4,10,6.3,12.7,8.5,5.9,4.5,13.6,15.7,13.6,28.9v7.6c0,17.7-13,26.9-36.3,26.9s-35.7-9.4-35.7-28h0Z"/>
  <path class="st0" d="M324.1,167.9v-83.2h-2.4c-4.4,0-6.5-1.6-6.5-4.9v-8.5c0-3.4,2.1-4.9,6.5-4.9h2.4v-17.3c0-3.4,2.1-4.9,6.5-4.9h15.4c4.4,0,6.5,1.6,6.5,4.9v17.3h8.3c4.4,0,6.5,1.6,6.5,4.9v8.5c0,3.4-2.1,4.9-6.5,4.9h-8.3v79.8c0,3.8,2.4,5.6,6.8,5.6h2.4c3.8,0,5.6,1.6,5.6,4.5v8.5c0,2.9-1.8,4.7-5.6,5.2-3.5.4-7.1.7-10.9.7-18.9,0-26.6-5.8-26.6-21.1h0Z"/>
  <path class="st0" d="M394.1,187.6c-4.4,0-6.5-1.6-6.5-4.9v-114.8c0-1.4,2.1-1.6,6.5-1.6h19.8v11.9c3.2-8.3,11.5-14.1,23.6-14.1s22.2,6.7,22.2,24v24.7h-19.8c-4.4,0-6.5,0-6.5,0v-22.6c0-5.2-2.7-7.6-8-7.6s-9.5,3.4-9.5,8.1v92c0,3.4-2.1,4.9-6.5,4.9h-15.4,0Z"/>
  <path class="st0" d="M480.9,93.4c0-19.5,12.4-29.4,37.2-29.4s37.2,9.9,37.2,29.4v67.1c0,19.5-12.4,29.4-37.2,29.4s-37.2-9.9-37.2-29.4v-67.1h0ZM527,90.3c0-5.2-3-7.6-8.9-7.6s-8.9,2.5-8.9,7.6v73.3c0,5.2,3,7.6,8.9,7.6s8.9-2.5,8.9-7.6v-73.3Z"/>
  <path class="st0" d="M587.5,187.6c-4.4,0-6.5-1.6-6.5-4.9V35.6c0-3.4,2.1-4.9,6.5-4.9h19.2c4.4,0,6.5,1.6,6.5,4.9v130.5h30.1v16.6c0,3.4-.2,4.9-.2,4.9h-55.7.1Z"/>
  <path class="st0" d="M659.9,166.5v-15.3c0-10.1,3-17.7,9.7-22.9,7.1-5.4,10.6-7.2,19.2-10.8,4.1-1.6,7.1-2.9,8.9-3.8,3.8-2,8.3-6.1,8.3-10.8v-12.8c0-5.2-2.7-7.6-8.3-7.6s-8.6,2.5-8.6,7.6v16.1c0,3.4-2.1,4.9-6.5,4.9h-13.6c-4.4,0-6.5.4-6.5.4v-18.4c0-19.5,12.1-29.4,36-29.4s35.7,9.9,35.7,29.4v66.6c0,10.1.6,17.7,1.5,22.4.6,3.4-1.5,5.2-5.9,5.2h-14.2c-4.1,0-6.5-1.3-7.4-4-.3-1.3-.9-3.4-1.2-6.1-4.1,8.3-11.8,12.3-22.7,12.3-16.2,0-24.5-7.8-24.5-23.3v.3ZM706,163.2v-33.4c-13.9,6.1-17.7,10.3-17.7,19.3v15.3c0,4.7,2.7,7.2,8,7.2s9.7-3.6,9.7-8.3h0Z"/>
  <path class="st0" d="M786.6,176.4l-2.4,7c-.9,2.9-3.5,4.3-7.4,4.3h-10c-4.4,0-6.5-1.6-6.5-4.9V30.6h28.4v43.5c4.4-6.7,11.8-10.1,21.6-10.1,16.2,0,24.5,8.1,24.5,24.4v76.9c0,16.4-8.3,24.4-24.5,24.4s-20.1-5.4-23.6-13.5v.2ZM806.4,163.6v-73.3c0-5.2-2.7-7.6-8.3-7.6s-9.5,3.4-9.5,8.1v72.4c0,4.7,3.8,8.1,9.5,8.1s8.3-2.5,8.3-7.6h0Z"/>
  <g>
    <circle class="st0" cx="884" cy="69.2" r="12.7"/>
    <g class="st4">
      <g>
        <polygon class="st0" points="891.4 81.9 896.7 72.6 896.7 81.9 891.4 81.9"/>
        <polygon class="st0" points="891.2 81.9 896.7 72.3 896.7 72.6 891.4 81.9 891.2 81.9"/>
        <polygon class="st0" points="891 81.9 896.7 72 896.7 72.3 891.2 81.9 891 81.9"/>
        <polygon class="st0" points="890.8 81.9 896.7 71.7 896.7 72 891 81.9 890.8 81.9"/>
        <polygon class="st0" points="890.6 81.9 896.7 71.4 896.7 71.7 890.8 81.9 890.6 81.9"/>
        <polygon class="st0" points="890.5 81.9 896.7 71.1 896.7 71.4 890.6 81.9 890.5 81.9"/>
        <polygon class="st0" points="890.3 81.9 896.7 70.8 896.7 71.1 890.5 81.9 890.3 81.9"/>
        <polygon class="st0" points="890.1 81.9 896.7 70.5 896.7 70.8 890.3 81.9 890.1 81.9"/>
        <polygon class="st0" points="889.9 81.9 896.7 70.2 896.7 70.5 890.1 81.9 889.9 81.9"/>
        <polygon class="st0" points="889.8 81.9 896.7 69.8 896.7 70.2 889.9 81.9 889.8 81.9"/>
        <polygon class="st0" points="889.6 81.9 896.7 69.5 896.7 69.8 889.8 81.9 889.6 81.9"/>
        <polygon class="st0" points="889.4 81.9 896.7 69.2 896.7 69.5 889.6 81.9 889.4 81.9"/>
        <polygon class="st0" points="889.2 81.9 896.7 68.9 896.7 69.2 889.4 81.9 889.2 81.9"/>
        <polygon class="st0" points="889.1 81.9 896.7 68.6 896.7 68.9 889.2 81.9 889.1 81.9"/>
        <polygon class="st0" points="888.9 81.9 896.7 68.3 896.7 68.6 889.1 81.9 888.9 81.9"/>
        <polygon class="st0" points="888.7 81.9 896.7 68 896.7 68.3 888.9 81.9 888.7 81.9"/>
        <polygon class="st0" points="888.5 81.9 896.7 67.7 896.7 68 888.7 81.9 888.5 81.9"/>
        <polygon class="st0" points="888.3 81.9 896.7 67.4 896.7 67.7 888.5 81.9 888.3 81.9"/>
        <polygon class="st0" points="888.2 81.9 896.7 67.1 896.7 67.4 888.3 81.9 888.2 81.9"/>
        <polygon class="st0" points="888 81.9 896.7 66.8 896.7 67.1 888.2 81.9 888 81.9"/>
        <polygon class="st0" points="887.8 81.9 896.7 66.5 896.7 66.8 888 81.9 887.8 81.9"/>
        <polygon class="st0" points="887.6 81.9 896.7 66.2 896.7 66.5 887.8 81.9 887.6 81.9"/>
        <polygon class="st0" points="887.5 81.9 896.7 65.9 896.7 66.2 887.6 81.9 887.5 81.9"/>
        <polygon class="st0" points="887.3 81.9 896.7 65.5 896.7 65.9 887.5 81.9 887.3 81.9"/>
        <polygon class="st0" points="887.1 81.9 896.7 65.2 896.7 65.5 887.3 81.9 887.1 81.9"/>
        <polygon class="st0" points="886.9 81.9 896.7 64.9 896.7 65.2 887.1 81.9 886.9 81.9"/>
        <polygon class="st0" points="886.7 81.9 896.7 64.6 896.7 64.9 886.9 81.9 886.7 81.9"/>
        <polygon class="st0" points="886.6 81.9 896.7 64.3 896.7 64.6 886.7 81.9 886.6 81.9"/>
        <polygon class="st0" points="886.4 81.9 896.7 64 896.7 64.3 886.6 81.9 886.4 81.9"/>
        <polygon class="st0" points="886.2 81.9 896.7 63.7 896.7 64 886.4 81.9 886.2 81.9"/>
        <polygon class="st0" points="886 81.9 896.7 63.4 896.7 63.7 886.2 81.9 886 81.9"/>
        <polygon class="st0" points="885.9 81.9 896.7 63.1 896.7 63.4 886 81.9 885.9 81.9"/>
        <polygon class="st0" points="885.7 81.9 896.7 62.8 896.7 63.1 885.9 81.9 885.7 81.9"/>
        <polygon class="st0" points="885.5 81.9 896.7 62.5 896.7 62.8 885.7 81.9 885.5 81.9"/>
        <polygon class="st0" points="885.3 81.9 896.7 62.2 896.7 62.5 885.5 81.9 885.3 81.9"/>
        <polygon class="st0" points="885.2 81.9 896.7 61.9 896.7 62.2 885.3 81.9 885.2 81.9"/>
        <polygon class="st0" points="885 81.9 896.7 61.6 896.7 61.9 885.2 81.9 885 81.9"/>
        <polygon class="st0" points="884.8 81.9 896.7 61.2 896.7 61.6 885 81.9 884.8 81.9"/>
        <polygon class="st0" points="884.6 81.9 896.7 60.9 896.7 61.2 884.8 81.9 884.6 81.9"/>
        <polygon class="st0" points="884.4 81.9 896.7 60.6 896.7 60.9 884.6 81.9 884.4 81.9"/>
        <polygon class="st0" points="884.3 81.9 896.7 60.3 896.7 60.6 884.4 81.9 884.3 81.9"/>
        <polygon class="st0" points="884.1 81.9 896.7 60 896.7 60.3 884.3 81.9 884.1 81.9"/>
        <polygon class="st0" points="883.9 81.9 896.7 59.7 896.7 60 884.1 81.9 883.9 81.9"/>
        <polygon class="st0" points="883.7 81.9 896.7 59.4 896.7 59.7 883.9 81.9 883.7 81.9"/>
        <polygon class="st0" points="883.6 81.9 896.7 59.1 896.7 59.4 883.7 81.9 883.6 81.9"/>
        <polygon class="st0" points="883.4 81.9 896.7 58.8 896.7 59.1 883.6 81.9 883.4 81.9"/>
        <polygon class="st0" points="883.2 81.9 896.7 58.5 896.7 58.8 883.4 81.9 883.2 81.9"/>
        <polygon class="st0" points="883 81.9 896.7 58.2 896.7 58.5 883.2 81.9 883 81.9"/>
        <polygon class="st0" points="882.8 81.9 896.7 57.9 896.7 58.2 883 81.9 882.8 81.9"/>
        <polygon class="st0" points="882.7 81.9 896.7 57.6 896.7 57.9 882.8 81.9 882.7 81.9"/>
        <polygon class="st0" points="882.5 81.9 896.6 57.4 896.7 57.5 896.7 57.6 882.7 81.9 882.5 81.9"/>
        <polygon class="st0" points="882.3 81.9 896.5 57.4 896.6 57.4 882.5 81.9 882.3 81.9"/>
        <polygon class="st0" points="882.1 81.9 896.3 57.3 896.5 57.4 882.3 81.9 882.1 81.9"/>
        <polygon class="st0" points="882 81.9 896.2 57.2 896.3 57.3 882.1 81.9 882 81.9"/>
        <polygon class="st0" points="881.8 81.9 896.1 57.1 896.2 57.2 882 81.9 881.8 81.9"/>
        <polygon class="st0" points="881.6 81.9 895.9 57.1 896.1 57.1 881.8 81.9 881.6 81.9"/>
        <polygon class="st0" points="881.4 81.9 895.8 57 895.9 57.1 881.6 81.9 881.4 81.9"/>
        <polygon class="st0" points="881.3 81.9 895.7 56.9 895.8 57 881.4 81.9 881.3 81.9"/>
        <polygon class="st0" points="881.1 81.9 895.5 56.8 895.7 56.9 881.3 81.9 881.1 81.9"/>
        <polygon class="st0" points="880.9 81.9 895.4 56.8 895.5 56.8 881.1 81.9 880.9 81.9"/>
        <polygon class="st0" points="880.7 81.9 895.3 56.7 895.4 56.8 880.9 81.9 880.7 81.9"/>
        <polygon class="st0" points="880.5 81.9 895.1 56.6 895.3 56.7 880.7 81.9 880.5 81.9"/>
        <polygon class="st0" points="880.4 81.9 895 56.5 895 56.5 895.1 56.6 880.5 81.9 880.4 81.9"/>
        <polygon class="st0" points="880.2 81.9 894.8 56.5 895 56.5 880.4 81.9 880.2 81.9"/>
        <polygon class="st0" points="880 81.9 894.6 56.5 894.8 56.5 880.2 81.9 880 81.9"/>
        <polygon class="st0" points="879.8 81.9 894.5 56.5 894.6 56.5 880 81.9 879.8 81.9"/>
        <polygon class="st0" points="879.7 81.9 894.3 56.5 894.5 56.5 879.8 81.9 879.7 81.9"/>
        <polygon class="st0" points="879.5 81.9 894.1 56.5 894.3 56.5 879.7 81.9 879.5 81.9"/>
        <polygon class="st0" points="879.3 81.9 893.9 56.5 894.1 56.5 879.5 81.9 879.3 81.9"/>
        <polygon class="st0" points="879.1 81.9 893.7 56.5 893.9 56.5 879.3 81.9 879.1 81.9"/>
        <polygon class="st0" points="878.9 81.9 893.6 56.5 893.7 56.5 879.1 81.9 878.9 81.9"/>
        <polygon class="st0" points="878.8 81.9 893.4 56.5 893.6 56.5 878.9 81.9 878.8 81.9"/>
        <polygon class="st0" points="878.6 81.9 893.2 56.5 893.4 56.5 878.8 81.9 878.6 81.9"/>
        <polygon class="st0" points="878.4 81.9 893 56.5 893.2 56.5 878.6 81.9 878.4 81.9"/>
        <polygon class="st0" points="878.2 81.9 892.9 56.5 893 56.5 878.4 81.9 878.2 81.9"/>
        <polygon class="st0" points="878.1 81.9 892.7 56.5 892.9 56.5 878.2 81.9 878.1 81.9"/>
        <polygon class="st0" points="877.9 81.9 892.5 56.5 892.7 56.5 878.1 81.9 877.9 81.9"/>
        <polygon class="st0" points="877.7 81.9 892.3 56.5 892.5 56.5 877.9 81.9 877.7 81.9"/>
        <polygon class="st0" points="877.5 81.9 892.2 56.5 892.3 56.5 877.7 81.9 877.5 81.9"/>
        <polygon class="st0" points="877.3 81.9 892 56.5 892.2 56.5 877.5 81.9 877.3 81.9"/>
        <polygon class="st0" points="877.2 81.9 891.8 56.5 892 56.5 877.3 81.9 877.2 81.9"/>
        <polygon class="st0" points="877 81.9 891.6 56.5 891.8 56.5 877.2 81.9 877 81.9"/>
        <polygon class="st0" points="876.8 81.9 891.4 56.5 891.6 56.5 877 81.9 876.8 81.9"/>
        <polygon class="st0" points="876.6 81.9 891.3 56.5 891.4 56.5 876.8 81.9 876.6 81.9"/>
        <polygon class="st0" points="876.5 81.9 891.1 56.5 891.3 56.5 876.6 81.9 876.5 81.9"/>
        <polygon class="st0" points="876.3 81.9 890.9 56.5 891.1 56.5 876.5 81.9 876.3 81.9"/>
        <polygon class="st0" points="876.1 81.9 890.7 56.5 890.9 56.5 876.3 81.9 876.1 81.9"/>
        <polygon class="st0" points="875.9 81.9 890.6 56.5 890.7 56.5 876.1 81.9 875.9 81.9"/>
        <polygon class="st0" points="875.8 81.9 890.4 56.5 890.6 56.5 875.9 81.9 875.8 81.9"/>
        <polygon class="st0" points="875.6 81.9 890.2 56.5 890.4 56.5 875.8 81.9 875.6 81.9"/>
        <polygon class="st0" points="875.4 81.9 890 56.5 890.2 56.5 875.6 81.9 875.4 81.9"/>
        <polygon class="st0" points="875.2 81.9 889.8 56.5 890 56.5 875.4 81.9 875.2 81.9"/>
        <polygon class="st0" points="875 81.9 889.7 56.5 889.8 56.5 875.2 81.9 875 81.9"/>
        <polygon class="st0" points="874.9 81.9 889.5 56.5 889.7 56.5 875 81.9 874.9 81.9"/>
        <polygon class="st0" points="874.7 81.9 889.3 56.5 889.5 56.5 874.9 81.9 874.7 81.9"/>
        <polygon class="st0" points="874.5 81.9 889.1 56.5 889.3 56.5 874.7 81.9 874.5 81.9"/>
        <polygon class="st0" points="874.3 81.9 889 56.5 889.1 56.5 874.5 81.9 874.3 81.9"/>
        <polygon class="st0" points="874.2 81.9 888.8 56.5 889 56.5 874.3 81.9 874.2 81.9"/>
        <polygon class="st0" points="874 81.9 888.6 56.5 888.8 56.5 874.2 81.9 874 81.9"/>
        <polygon class="st0" points="873.8 81.9 888.4 56.5 888.6 56.5 874 81.9 873.8 81.9"/>
        <polygon class="st0" points="873.6 81.9 888.3 56.5 888.4 56.5 873.8 81.9 873.6 81.9"/>
        <polygon class="st0" points="873.4 81.9 888.1 56.5 888.3 56.5 873.6 81.9 873.4 81.9"/>
        <polygon class="st0" points="873.3 81.9 887.9 56.5 888.1 56.5 873.4 81.9 873.3 81.9"/>
        <polygon class="st0" points="873.1 81.9 887.7 56.5 887.9 56.5 873.3 81.9 873.1 81.9"/>
        <polygon class="st0" points="873 81.9 872.9 81.8 887.5 56.5 887.7 56.5 873.1 81.9 873 81.9"/>
        <polygon class="st0" points="872.9 81.8 872.8 81.7 887.4 56.5 887.5 56.5 872.9 81.8"/>
        <polygon class="st0" points="872.8 81.7 872.7 81.7 887.2 56.5 887.4 56.5 872.8 81.7"/>
        <polygon class="st0" points="872.7 81.7 872.5 81.6 887 56.5 887.2 56.5 872.7 81.7"/>
        <polygon class="st0" points="872.5 81.6 872.4 81.5 886.8 56.5 887 56.5 872.5 81.6"/>
        <polygon class="st0" points="872.4 81.5 872.3 81.4 886.7 56.5 886.8 56.5 872.4 81.5"/>
        <polygon class="st0" points="872.3 81.4 872.2 81.4 886.5 56.5 886.7 56.5 872.3 81.4"/>
        <polygon class="st0" points="872.2 81.4 872 81.3 886.3 56.5 886.5 56.5 872.2 81.4"/>
        <polygon class="st0" points="872 81.3 871.9 81.2 886.1 56.5 886.3 56.5 872 81.3"/>
        <polygon class="st0" points="871.9 81.2 871.8 81.1 885.9 56.5 886.1 56.5 871.9 81.2"/>
        <polygon class="st0" points="871.8 81.1 871.6 81.1 885.8 56.5 885.9 56.5 871.8 81.1"/>
        <polygon class="st0" points="871.6 81.1 871.5 81 885.6 56.5 885.8 56.5 871.6 81.1"/>
        <polygon class="st0" points="871.5 81 871.4 80.9 871.4 80.9 885.4 56.5 885.6 56.5 871.5 81"/>
        <polygon class="st0" points="871.4 80.6 885.2 56.5 885.4 56.5 871.4 80.9 871.4 80.6"/>
        <polygon class="st0" points="871.4 80.3 885.1 56.5 885.2 56.5 871.4 80.6 871.4 80.3"/>
        <polygon class="st0" points="871.4 79.9 884.9 56.5 885.1 56.5 871.4 80.3 871.4 79.9"/>
        <polygon class="st0" points="871.4 79.6 884.7 56.5 884.9 56.5 871.4 79.9 871.4 79.6"/>
        <polygon class="st0" points="871.4 79.3 884.5 56.5 884.7 56.5 871.4 79.6 871.4 79.3"/>
        <polygon class="st0" points="871.4 79 884.4 56.5 884.5 56.5 871.4 79.3 871.4 79"/>
        <polygon class="st0" points="871.4 78.7 884.2 56.5 884.4 56.5 871.4 79 871.4 78.7"/>
        <polygon class="st0" points="871.4 78.4 884 56.5 884.2 56.5 871.4 78.7 871.4 78.4"/>
        <polygon class="st0" points="871.4 78.1 883.8 56.5 884 56.5 871.4 78.4 871.4 78.1"/>
        <polygon class="st0" points="871.4 77.8 883.6 56.5 883.8 56.5 871.4 78.1 871.4 77.8"/>
        <polygon class="st0" points="871.4 77.5 883.5 56.5 883.6 56.5 871.4 77.8 871.4 77.5"/>
        <polygon class="st0" points="871.4 77.2 883.3 56.5 883.5 56.5 871.4 77.5 871.4 77.2"/>
        <polygon class="st0" points="871.4 76.9 883.1 56.5 883.3 56.5 871.4 77.2 871.4 76.9"/>
        <polygon class="st0" points="871.4 76.6 882.9 56.5 883.1 56.5 871.4 76.9 871.4 76.6"/>
        <polygon class="st0" points="871.4 76.3 882.8 56.5 882.9 56.5 871.4 76.6 871.4 76.3"/>
        <polygon class="st0" points="871.4 76 882.6 56.5 882.8 56.5 871.4 76.3 871.4 76"/>
        <polygon class="st0" points="871.4 75.6 882.4 56.5 882.6 56.5 871.4 76 871.4 75.6"/>
        <polygon class="st0" points="871.4 75.3 882.2 56.5 882.4 56.5 871.4 75.6 871.4 75.3"/>
        <polygon class="st0" points="871.4 75 882 56.5 882.2 56.5 871.4 75.3 871.4 75"/>
        <polygon class="st0" points="871.4 74.7 881.9 56.5 882 56.5 871.4 75 871.4 74.7"/>
        <polygon class="st0" points="871.4 74.4 881.7 56.5 881.9 56.5 871.4 74.7 871.4 74.4"/>
        <polygon class="st0" points="871.4 74.1 881.5 56.5 881.7 56.5 871.4 74.4 871.4 74.1"/>
        <polygon class="st0" points="871.4 73.8 881.3 56.5 881.5 56.5 871.4 74.1 871.4 73.8"/>
        <polygon class="st0" points="871.4 73.5 881.2 56.5 881.3 56.5 871.4 73.8 871.4 73.5"/>
        <polygon class="st0" points="871.4 73.2 881 56.5 881.2 56.5 871.4 73.5 871.4 73.2"/>
        <polygon class="st0" points="871.4 72.9 880.8 56.5 881 56.5 871.4 73.2 871.4 72.9"/>
        <polygon class="st0" points="871.4 72.6 880.6 56.5 880.8 56.5 871.4 72.9 871.4 72.6"/>
        <polygon class="st0" points="871.4 72.3 880.4 56.5 880.6 56.5 871.4 72.6 871.4 72.3"/>
        <polygon class="st0" points="871.4 72 880.3 56.5 880.4 56.5 871.4 72.3 871.4 72"/>
        <polygon class="st0" points="871.4 71.7 880.1 56.5 880.3 56.5 871.4 72 871.4 71.7"/>
        <polygon class="st0" points="871.4 71.3 879.9 56.5 880.1 56.5 871.4 71.7 871.4 71.3"/>
        <polygon class="st0" points="871.4 71 879.7 56.5 879.9 56.5 871.4 71.3 871.4 71"/>
        <polygon class="st0" points="871.4 70.7 879.6 56.5 879.7 56.5 871.4 71 871.4 70.7"/>
        <polygon class="st0" points="871.4 70.4 879.4 56.5 879.6 56.5 871.4 70.7 871.4 70.4"/>
        <polygon class="st0" points="871.4 70.1 879.2 56.5 879.4 56.5 871.4 70.4 871.4 70.1"/>
        <polygon class="st0" points="871.4 69.8 879 56.5 879.2 56.5 871.4 70.1 871.4 69.8"/>
        <polygon class="st0" points="871.4 69.5 878.9 56.5 879 56.5 871.4 69.8 871.4 69.5"/>
        <polygon class="st0" points="871.4 69.2 878.7 56.5 878.9 56.5 871.4 69.5 871.4 69.2"/>
        <polygon class="st0" points="871.4 68.9 878.5 56.5 878.7 56.5 871.4 69.2 871.4 68.9"/>
        <polygon class="st0" points="871.4 68.6 878.3 56.5 878.5 56.5 871.4 68.9 871.4 68.6"/>
        <polygon class="st0" points="871.4 68.3 878.1 56.5 878.3 56.5 871.4 68.6 871.4 68.3"/>
        <polygon class="st0" points="871.4 68 878 56.5 878.1 56.5 871.4 68.3 871.4 68"/>
        <polygon class="st0" points="871.4 67.7 877.8 56.5 878 56.5 871.4 68 871.4 67.7"/>
        <polygon class="st0" points="871.4 67.4 877.6 56.5 877.8 56.5 871.4 67.7 871.4 67.4"/>
        <polygon class="st0" points="871.4 67 877.4 56.5 877.6 56.5 871.4 67.4 871.4 67"/>
        <polygon class="st0" points="871.4 66.7 877.3 56.5 877.4 56.5 871.4 67 871.4 66.7"/>
        <polygon class="st0" points="871.4 66.4 877.1 56.5 877.3 56.5 871.4 66.7 871.4 66.4"/>
        <polygon class="st0" points="871.4 66.1 876.9 56.5 877.1 56.5 871.4 66.4 871.4 66.1"/>
        <polygon class="st0" points="871.4 65.8 876.7 56.5 876.9 56.5 871.4 66.1 871.4 65.8"/>
        <polygon class="st0" points="876.7 56.5 871.4 65.8 871.4 56.5 876.7 56.5"/>
      </g>
    </g>
  </g>
  <g>
    <path class="st0" d="M896.7,30.6c3.6,0,6.6,3,6.6,6.6s-3,6.6-6.6,6.6-6.6-3-6.6-6.6,3-6.6,6.6-6.6Z"/>
    <g class="st1">
      <g>
        <polygon class="st0" points="900.5 43.8 903.3 39 903.3 43.8 900.5 43.8"/>
        <polygon class="st0" points="900.4 43.8 903.3 38.8 903.3 39 900.5 43.8 900.4 43.8"/>
        <polygon class="st0" points="900.3 43.8 903.3 38.7 903.3 38.8 900.4 43.8 900.3 43.8"/>
        <polygon class="st0" points="900.2 43.8 903.3 38.5 903.3 38.7 900.3 43.8 900.2 43.8"/>
        <polygon class="st0" points="900.1 43.8 903.3 38.3 903.3 38.5 900.2 43.8 900.1 43.8"/>
        <polygon class="st0" points="900.1 43.8 903.3 38.2 903.3 38.3 900.1 43.8 900.1 43.8"/>
        <polygon class="st0" points="900 43.8 903.3 38 903.3 38.2 900.1 43.8 900 43.8"/>
        <polygon class="st0" points="899.9 43.8 903.3 37.9 903.3 38 900 43.8 899.9 43.8"/>
        <polygon class="st0" points="899.8 43.8 903.3 37.7 903.3 37.9 899.9 43.8 899.8 43.8"/>
        <polygon class="st0" points="899.7 43.8 903.3 37.5 903.3 37.7 899.8 43.8 899.7 43.8"/>
        <polygon class="st0" points="899.6 43.8 903.3 37.4 903.3 37.5 899.7 43.8 899.6 43.8"/>
        <polygon class="st0" points="899.5 43.8 903.3 37.2 903.3 37.4 899.6 43.8 899.5 43.8"/>
        <polygon class="st0" points="899.4 43.8 903.3 37.1 903.3 37.2 899.5 43.8 899.4 43.8"/>
        <polygon class="st0" points="899.3 43.8 903.3 36.9 903.3 37.1 899.4 43.8 899.3 43.8"/>
        <polygon class="st0" points="899.2 43.8 903.3 36.7 903.3 36.9 899.3 43.8 899.2 43.8"/>
        <polygon class="st0" points="899.1 43.8 903.3 36.6 903.3 36.7 899.2 43.8 899.1 43.8"/>
        <polygon class="st0" points="899 43.8 903.3 36.4 903.3 36.6 899.1 43.8 899 43.8"/>
        <polygon class="st0" points="898.9 43.8 903.3 36.3 903.3 36.4 899 43.8 898.9 43.8"/>
        <polygon class="st0" points="898.9 43.8 903.3 36.1 903.3 36.3 898.9 43.8 898.9 43.8"/>
        <polygon class="st0" points="898.8 43.8 903.3 35.9 903.3 36.1 898.9 43.8 898.8 43.8"/>
        <polygon class="st0" points="898.7 43.8 903.3 35.8 903.3 35.9 898.8 43.8 898.7 43.8"/>
        <polygon class="st0" points="898.6 43.8 903.3 35.6 903.3 35.8 898.7 43.8 898.6 43.8"/>
        <polygon class="st0" points="898.5 43.8 903.3 35.5 903.3 35.6 898.6 43.8 898.5 43.8"/>
        <polygon class="st0" points="898.4 43.8 903.3 35.3 903.3 35.5 898.5 43.8 898.4 43.8"/>
        <polygon class="st0" points="898.3 43.8 903.3 35.1 903.3 35.3 898.4 43.8 898.3 43.8"/>
        <polygon class="st0" points="898.2 43.8 903.3 35 903.3 35.1 898.3 43.8 898.2 43.8"/>
        <polygon class="st0" points="898.1 43.8 903.3 34.8 903.3 35 898.2 43.8 898.1 43.8"/>
        <polygon class="st0" points="898 43.8 903.3 34.7 903.3 34.8 898.1 43.8 898 43.8"/>
        <polygon class="st0" points="897.9 43.8 903.3 34.5 903.3 34.7 898 43.8 897.9 43.8"/>
        <polygon class="st0" points="897.8 43.8 903.3 34.3 903.3 34.5 897.9 43.8 897.8 43.8"/>
        <polygon class="st0" points="897.7 43.8 903.3 34.2 903.3 34.3 897.8 43.8 897.7 43.8"/>
        <polygon class="st0" points="897.7 43.8 903.3 34 903.3 34.2 897.7 43.8 897.7 43.8"/>
        <polygon class="st0" points="897.6 43.8 903.3 33.9 903.3 34 897.7 43.8 897.6 43.8"/>
        <polygon class="st0" points="897.5 43.8 903.3 33.7 903.3 33.9 897.6 43.8 897.5 43.8"/>
        <polygon class="st0" points="897.4 43.8 903.3 33.5 903.3 33.7 897.5 43.8 897.4 43.8"/>
        <polygon class="st0" points="897.3 43.8 903.3 33.4 903.3 33.5 897.4 43.8 897.3 43.8"/>
        <polygon class="st0" points="897.2 43.8 903.3 33.2 903.3 33.4 897.3 43.8 897.2 43.8"/>
        <polygon class="st0" points="897.1 43.8 903.3 33.1 903.3 33.2 897.2 43.8 897.1 43.8"/>
        <polygon class="st0" points="897 43.8 903.3 32.9 903.3 33.1 897.1 43.8 897 43.8"/>
        <polygon class="st0" points="896.9 43.8 903.3 32.7 903.3 32.9 897 43.8 896.9 43.8"/>
        <polygon class="st0" points="896.8 43.8 903.3 32.6 903.3 32.7 896.9 43.8 896.8 43.8"/>
        <polygon class="st0" points="896.7 43.8 903.3 32.4 903.3 32.6 896.8 43.8 896.7 43.8"/>
        <polygon class="st0" points="896.6 43.8 903.3 32.3 903.3 32.4 896.7 43.8 896.6 43.8"/>
        <polygon class="st0" points="896.5 43.8 903.3 32.1 903.3 32.3 896.6 43.8 896.5 43.8"/>
        <polygon class="st0" points="896.5 43.8 903.3 32 903.3 32.1 896.5 43.8 896.5 43.8"/>
        <polygon class="st0" points="896.4 43.8 903.3 31.8 903.3 32 896.5 43.8 896.4 43.8"/>
        <polygon class="st0" points="896.3 43.8 903.3 31.6 903.3 31.8 896.4 43.8 896.3 43.8"/>
        <polygon class="st0" points="896.2 43.8 903.3 31.5 903.3 31.6 896.3 43.8 896.2 43.8"/>
        <polygon class="st0" points="896.1 43.8 903.3 31.3 903.3 31.5 896.2 43.8 896.1 43.8"/>
        <polygon class="st0" points="896 43.8 903.3 31.2 903.3 31.3 896.1 43.8 896 43.8"/>
        <polygon class="st0" points="895.9 43.8 903.3 31 903.3 31.2 896 43.8 895.9 43.8"/>
        <polygon class="st0" points="895.8 43.8 903.3 30.8 903.3 31 895.9 43.8 895.8 43.8"/>
        <polygon class="st0" points="895.7 43.8 903.3 30.7 903.3 30.8 895.8 43.8 895.7 43.8"/>
        <polygon class="st0" points="895.6 43.8 903.2 30.6 903.3 30.6 903.3 30.7 895.7 43.8 895.6 43.8"/>
        <polygon class="st0" points="895.5 43.8 903.1 30.6 903.2 30.6 895.6 43.8 895.5 43.8"/>
        <polygon class="st0" points="895.4 43.8 903.1 30.6 903.1 30.6 895.5 43.8 895.4 43.8"/>
        <polygon class="st0" points="895.3 43.8 903 30.6 903.1 30.6 895.4 43.8 895.3 43.8"/>
        <polygon class="st0" points="895.3 43.8 902.9 30.6 903 30.6 895.3 43.8 895.3 43.8"/>
        <polygon class="st0" points="895.2 43.8 902.8 30.6 902.9 30.6 895.3 43.8 895.2 43.8"/>
        <polygon class="st0" points="895.1 43.8 902.7 30.6 902.8 30.6 895.2 43.8 895.1 43.8"/>
        <polygon class="st0" points="895 43.8 902.6 30.6 902.7 30.6 895.1 43.8 895 43.8"/>
        <polygon class="st0" points="894.9 43.8 902.5 30.6 902.6 30.6 895 43.8 894.9 43.8"/>
        <polygon class="st0" points="894.8 43.8 902.4 30.6 902.5 30.6 894.9 43.8 894.8 43.8"/>
        <polygon class="st0" points="894.7 43.8 902.3 30.6 902.4 30.6 894.8 43.8 894.7 43.8"/>
        <polygon class="st0" points="894.6 43.8 902.2 30.6 902.3 30.6 894.7 43.8 894.6 43.8"/>
        <polygon class="st0" points="894.5 43.8 902.1 30.6 902.2 30.6 894.6 43.8 894.5 43.8"/>
        <polygon class="st0" points="894.4 43.8 902 30.6 902.1 30.6 894.5 43.8 894.4 43.8"/>
        <polygon class="st0" points="894.3 43.8 901.9 30.6 902 30.6 894.4 43.8 894.3 43.8"/>
        <polygon class="st0" points="894.2 43.8 901.9 30.6 901.9 30.6 894.3 43.8 894.2 43.8"/>
        <polygon class="st0" points="894.1 43.8 901.8 30.6 901.9 30.6 894.2 43.8 894.1 43.8"/>
        <polygon class="st0" points="894.1 43.8 901.7 30.6 901.8 30.6 894.1 43.8 894.1 43.8"/>
        <polygon class="st0" points="894 43.8 901.6 30.6 901.7 30.6 894.1 43.8 894 43.8"/>
        <polygon class="st0" points="893.9 43.8 901.5 30.6 901.6 30.6 894 43.8 893.9 43.8"/>
        <polygon class="st0" points="893.8 43.8 901.4 30.6 901.5 30.6 893.9 43.8 893.8 43.8"/>
        <polygon class="st0" points="893.7 43.8 901.3 30.6 901.4 30.6 893.8 43.8 893.7 43.8"/>
        <polygon class="st0" points="893.6 43.8 901.2 30.6 901.3 30.6 893.7 43.8 893.6 43.8"/>
        <polygon class="st0" points="893.5 43.8 901.1 30.6 901.2 30.6 893.6 43.8 893.5 43.8"/>
        <polygon class="st0" points="893.4 43.8 901 30.6 901.1 30.6 893.5 43.8 893.4 43.8"/>
        <polygon class="st0" points="893.3 43.8 900.9 30.6 901 30.6 893.4 43.8 893.3 43.8"/>
        <polygon class="st0" points="893.2 43.8 900.8 30.6 900.9 30.6 893.3 43.8 893.2 43.8"/>
        <polygon class="st0" points="893.1 43.8 900.7 30.6 900.8 30.6 893.2 43.8 893.1 43.8"/>
        <polygon class="st0" points="893 43.8 900.7 30.6 900.7 30.6 893.1 43.8 893 43.8"/>
        <polygon class="st0" points="892.9 43.8 900.6 30.6 900.7 30.6 893 43.8 892.9 43.8"/>
        <polygon class="st0" points="892.9 43.8 900.5 30.6 900.6 30.6 892.9 43.8 892.9 43.8"/>
        <polygon class="st0" points="892.8 43.8 900.4 30.6 900.5 30.6 892.9 43.8 892.8 43.8"/>
        <polygon class="st0" points="892.7 43.8 900.3 30.6 900.4 30.6 892.8 43.8 892.7 43.8"/>
        <polygon class="st0" points="892.6 43.8 900.2 30.6 900.3 30.6 892.7 43.8 892.6 43.8"/>
        <polygon class="st0" points="892.5 43.8 900.1 30.6 900.2 30.6 892.6 43.8 892.5 43.8"/>
        <polygon class="st0" points="892.4 43.8 900 30.6 900.1 30.6 892.5 43.8 892.4 43.8"/>
        <polygon class="st0" points="892.3 43.8 899.9 30.6 900 30.6 892.4 43.8 892.3 43.8"/>
        <polygon class="st0" points="892.2 43.8 899.8 30.6 899.9 30.6 892.3 43.8 892.2 43.8"/>
        <polygon class="st0" points="892.1 43.8 899.7 30.6 899.8 30.6 892.2 43.8 892.1 43.8"/>
        <polygon class="st0" points="892 43.8 899.6 30.6 899.7 30.6 892.1 43.8 892 43.8"/>
        <polygon class="st0" points="891.9 43.8 899.5 30.6 899.6 30.6 892 43.8 891.9 43.8"/>
        <polygon class="st0" points="891.8 43.8 899.5 30.6 899.5 30.6 891.9 43.8 891.8 43.8"/>
        <polygon class="st0" points="891.7 43.8 899.4 30.6 899.5 30.6 891.8 43.8 891.7 43.8"/>
        <polygon class="st0" points="891.7 43.8 899.3 30.6 899.4 30.6 891.7 43.8 891.7 43.8"/>
        <polygon class="st0" points="891.6 43.8 899.2 30.6 899.3 30.6 891.7 43.8 891.6 43.8"/>
        <polygon class="st0" points="891.5 43.8 899.1 30.6 899.2 30.6 891.6 43.8 891.5 43.8"/>
        <polygon class="st0" points="891.4 43.8 899 30.6 899.1 30.6 891.5 43.8 891.4 43.8"/>
        <polygon class="st0" points="891.3 43.8 898.9 30.6 899 30.6 891.4 43.8 891.3 43.8"/>
        <polygon class="st0" points="891.2 43.8 898.8 30.6 898.9 30.6 891.3 43.8 891.2 43.8"/>
        <polygon class="st0" points="891.1 43.8 898.7 30.6 898.8 30.6 891.2 43.8 891.1 43.8"/>
        <polygon class="st0" points="891 43.8 898.6 30.6 898.7 30.6 891.1 43.8 891 43.8"/>
        <polygon class="st0" points="890.9 43.8 898.5 30.6 898.6 30.6 891 43.8 890.9 43.8"/>
        <polygon class="st0" points="890.8 43.8 898.4 30.6 898.5 30.6 890.9 43.8 890.8 43.8"/>
        <polygon class="st0" points="890.7 43.8 898.3 30.6 898.4 30.6 890.8 43.8 890.7 43.8"/>
        <polygon class="st0" points="890.6 43.8 898.3 30.6 898.3 30.6 890.7 43.8 890.6 43.8"/>
        <polygon class="st0" points="890.5 43.8 898.2 30.6 898.3 30.6 890.6 43.8 890.5 43.8"/>
        <polygon class="st0" points="890.5 43.8 898.1 30.6 898.2 30.6 890.5 43.8 890.5 43.8"/>
        <polygon class="st0" points="890.4 43.8 898 30.6 898.1 30.6 890.5 43.8 890.4 43.8"/>
        <polygon class="st0" points="890.3 43.8 897.9 30.6 898 30.6 890.4 43.8 890.3 43.8"/>
        <polygon class="st0" points="890.2 43.8 897.8 30.6 897.9 30.6 890.3 43.8 890.2 43.8"/>
        <polygon class="st0" points="890.1 43.8 897.7 30.6 897.8 30.6 890.2 43.8 890.1 43.8 890.1 43.8"/>
        <polygon class="st0" points="890.1 43.6 897.6 30.6 897.7 30.6 890.1 43.8 890.1 43.6"/>
        <polygon class="st0" points="890.1 43.4 897.5 30.6 897.6 30.6 890.1 43.6 890.1 43.4"/>
        <polygon class="st0" points="890.1 43.3 897.4 30.6 897.5 30.6 890.1 43.4 890.1 43.3"/>
        <polygon class="st0" points="890.1 43.1 897.3 30.6 897.4 30.6 890.1 43.3 890.1 43.1"/>
        <polygon class="st0" points="890.1 43 897.2 30.6 897.3 30.6 890.1 43.1 890.1 43"/>
        <polygon class="st0" points="890.1 42.8 897.1 30.6 897.2 30.6 890.1 43 890.1 42.8"/>
        <polygon class="st0" points="890.1 42.6 897.1 30.6 897.1 30.6 890.1 42.8 890.1 42.6"/>
        <polygon class="st0" points="890.1 42.5 897 30.6 897.1 30.6 890.1 42.6 890.1 42.5"/>
        <polygon class="st0" points="890.1 42.3 896.9 30.6 897 30.6 890.1 42.5 890.1 42.3"/>
        <polygon class="st0" points="890.1 42.2 896.8 30.6 896.9 30.6 890.1 42.3 890.1 42.2"/>
        <polygon class="st0" points="890.1 42 896.7 30.6 896.8 30.6 890.1 42.2 890.1 42"/>
        <polygon class="st0" points="890.1 41.8 896.6 30.6 896.7 30.6 890.1 42 890.1 41.8"/>
        <polygon class="st0" points="890.1 41.7 896.5 30.6 896.6 30.6 890.1 41.8 890.1 41.7"/>
        <polygon class="st0" points="890.1 41.5 896.4 30.6 896.5 30.6 890.1 41.7 890.1 41.5"/>
        <polygon class="st0" points="890.1 41.4 896.3 30.6 896.4 30.6 890.1 41.5 890.1 41.4"/>
        <polygon class="st0" points="890.1 41.2 896.2 30.6 896.3 30.6 890.1 41.4 890.1 41.2"/>
        <polygon class="st0" points="890.1 41 896.1 30.6 896.2 30.6 890.1 41.2 890.1 41"/>
        <polygon class="st0" points="890.1 40.9 896 30.6 896.1 30.6 890.1 41 890.1 40.9"/>
        <polygon class="st0" points="890.1 40.7 895.9 30.6 896 30.6 890.1 40.9 890.1 40.7"/>
        <polygon class="st0" points="890.1 40.6 895.9 30.6 895.9 30.6 890.1 40.7 890.1 40.6"/>
        <polygon class="st0" points="890.1 40.4 895.8 30.6 895.9 30.6 890.1 40.6 890.1 40.4"/>
        <polygon class="st0" points="890.1 40.2 895.7 30.6 895.8 30.6 890.1 40.4 890.1 40.2"/>
        <polygon class="st0" points="890.1 40.1 895.6 30.6 895.7 30.6 890.1 40.2 890.1 40.1"/>
        <polygon class="st0" points="890.1 39.9 895.5 30.6 895.6 30.6 890.1 40.1 890.1 39.9"/>
        <polygon class="st0" points="890.1 39.8 895.4 30.6 895.5 30.6 890.1 39.9 890.1 39.8"/>
        <polygon class="st0" points="890.1 39.6 895.3 30.6 895.4 30.6 890.1 39.8 890.1 39.6"/>
        <polygon class="st0" points="890.1 39.4 895.2 30.6 895.3 30.6 890.1 39.6 890.1 39.4"/>
        <polygon class="st0" points="890.1 39.3 895.1 30.6 895.2 30.6 890.1 39.4 890.1 39.3"/>
        <polygon class="st0" points="890.1 39.1 895 30.6 895.1 30.6 890.1 39.3 890.1 39.1"/>
        <polygon class="st0" points="890.1 39 894.9 30.6 895 30.6 890.1 39.1 890.1 39"/>
        <polygon class="st0" points="890.1 38.8 894.8 30.6 894.9 30.6 890.1 39 890.1 38.8"/>
        <polygon class="st0" points="890.1 38.6 894.7 30.6 894.8 30.6 890.1 38.8 890.1 38.6"/>
        <polygon class="st0" points="890.1 38.5 894.7 30.6 894.7 30.6 890.1 38.6 890.1 38.5"/>
        <polygon class="st0" points="890.1 38.3 894.6 30.6 894.7 30.6 890.1 38.5 890.1 38.3"/>
        <polygon class="st0" points="890.1 38.2 894.5 30.6 894.6 30.6 890.1 38.3 890.1 38.2"/>
        <polygon class="st0" points="890.1 38 894.4 30.6 894.5 30.6 890.1 38.2 890.1 38"/>
        <polygon class="st0" points="890.1 37.8 894.3 30.6 894.4 30.6 890.1 38 890.1 37.8"/>
        <polygon class="st0" points="890.1 37.7 894.2 30.6 894.3 30.6 890.1 37.8 890.1 37.7"/>
        <polygon class="st0" points="890.1 37.5 894.1 30.6 894.2 30.6 890.1 37.7 890.1 37.5"/>
        <polygon class="st0" points="890.1 37.4 894 30.6 894.1 30.6 890.1 37.5 890.1 37.4"/>
        <polygon class="st0" points="890.1 37.2 893.9 30.6 894 30.6 890.1 37.4 890.1 37.2"/>
        <polygon class="st0" points="890.1 37 893.8 30.6 893.9 30.6 890.1 37.2 890.1 37"/>
        <polygon class="st0" points="890.1 36.9 893.7 30.6 893.8 30.6 890.1 37 890.1 36.9"/>
        <polygon class="st0" points="890.1 36.7 893.6 30.6 893.7 30.6 890.1 36.9 890.1 36.7"/>
        <polygon class="st0" points="890.1 36.6 893.5 30.6 893.6 30.6 890.1 36.7 890.1 36.6"/>
        <polygon class="st0" points="890.1 36.4 893.5 30.6 893.5 30.6 890.1 36.6 890.1 36.4"/>
        <polygon class="st0" points="890.1 36.2 893.4 30.6 893.5 30.6 890.1 36.4 890.1 36.2"/>
        <polygon class="st0" points="890.1 36.1 893.3 30.6 893.4 30.6 890.1 36.2 890.1 36.1"/>
        <polygon class="st0" points="890.1 35.9 893.2 30.6 893.3 30.6 890.1 36.1 890.1 35.9"/>
        <polygon class="st0" points="890.1 35.8 893.1 30.6 893.2 30.6 890.1 35.9 890.1 35.8"/>
        <polygon class="st0" points="890.1 35.6 893 30.6 893.1 30.6 890.1 35.8 890.1 35.6"/>
        <polygon class="st0" points="890.1 35.4 892.9 30.6 893 30.6 890.1 35.6 890.1 35.4"/>
        <polygon class="st0" points="892.9 30.6 890.1 35.4 890.1 30.6 892.9 30.6"/>
      </g>
    </g>
  </g>
  <g>
    <circle class="st0" cx="914.4" cy="59.2" r="10"/>
    <g class="st3">
      <g>
        <polygon class="st0" points="920.2 69.2 924.5 61.9 924.5 69.2 920.2 69.2"/>
        <polygon class="st0" points="920.1 69.2 924.5 61.6 924.5 61.9 920.2 69.2 920.1 69.2"/>
        <polygon class="st0" points="919.9 69.2 924.5 61.4 924.5 61.6 920.1 69.2 919.9 69.2"/>
        <polygon class="st0" points="919.8 69.2 924.5 61.1 924.5 61.4 919.9 69.2 919.8 69.2"/>
        <polygon class="st0" points="919.7 69.2 924.5 60.9 924.5 61.1 919.8 69.2 919.7 69.2"/>
        <polygon class="st0" points="919.5 69.2 924.5 60.6 924.5 60.9 919.7 69.2 919.5 69.2"/>
        <polygon class="st0" points="919.4 69.2 924.5 60.4 924.5 60.6 919.5 69.2 919.4 69.2"/>
        <polygon class="st0" points="919.2 69.2 924.5 60.2 924.5 60.4 919.4 69.2 919.2 69.2"/>
        <polygon class="st0" points="919.1 69.2 924.5 59.9 924.5 60.2 919.2 69.2 919.1 69.2"/>
        <polygon class="st0" points="919 69.2 924.5 59.7 924.5 59.9 919.1 69.2 919 69.2"/>
        <polygon class="st0" points="918.8 69.2 924.5 59.4 924.5 59.7 919 69.2 918.8 69.2"/>
        <polygon class="st0" points="918.7 69.2 924.5 59.2 924.5 59.4 918.8 69.2 918.7 69.2"/>
        <polygon class="st0" points="918.5 69.2 924.5 58.9 924.5 59.2 918.7 69.2 918.5 69.2"/>
        <polygon class="st0" points="918.4 69.2 924.5 58.7 924.5 58.9 918.5 69.2 918.4 69.2"/>
        <polygon class="st0" points="918.3 69.2 924.5 58.5 924.5 58.7 918.4 69.2 918.3 69.2"/>
        <polygon class="st0" points="918.1 69.2 924.5 58.2 924.5 58.5 918.3 69.2 918.1 69.2"/>
        <polygon class="st0" points="918 69.2 924.5 58 924.5 58.2 918.1 69.2 918 69.2"/>
        <polygon class="st0" points="917.8 69.2 924.5 57.7 924.5 58 918 69.2 917.8 69.2"/>
        <polygon class="st0" points="917.7 69.2 924.5 57.5 924.5 57.7 917.8 69.2 917.7 69.2"/>
        <polygon class="st0" points="917.6 69.2 924.5 57.2 924.5 57.5 917.7 69.2 917.6 69.2"/>
        <polygon class="st0" points="917.4 69.2 924.5 57 924.5 57.2 917.6 69.2 917.4 69.2"/>
        <polygon class="st0" points="917.3 69.2 924.5 56.7 924.5 57 917.4 69.2 917.3 69.2"/>
        <polygon class="st0" points="917.1 69.2 924.5 56.5 924.5 56.7 917.3 69.2 917.1 69.2"/>
        <polygon class="st0" points="917 69.2 924.5 56.3 924.5 56.5 917.1 69.2 917 69.2"/>
        <polygon class="st0" points="916.8 69.2 924.5 56 924.5 56.3 917 69.2 916.8 69.2"/>
        <polygon class="st0" points="916.7 69.2 924.5 55.8 924.5 56 916.8 69.2 916.7 69.2"/>
        <polygon class="st0" points="916.6 69.2 924.5 55.5 924.5 55.8 916.7 69.2 916.6 69.2"/>
        <polygon class="st0" points="916.4 69.2 924.5 55.3 924.5 55.5 916.6 69.2 916.4 69.2"/>
        <polygon class="st0" points="916.3 69.2 924.5 55 924.5 55.3 916.4 69.2 916.3 69.2"/>
        <polygon class="st0" points="916.1 69.2 924.5 54.8 924.5 55 916.3 69.2 916.1 69.2"/>
        <polygon class="st0" points="916 69.2 924.5 54.6 924.5 54.8 916.1 69.2 916 69.2"/>
        <polygon class="st0" points="915.9 69.2 924.5 54.3 924.5 54.6 916 69.2 915.9 69.2"/>
        <polygon class="st0" points="915.7 69.2 924.5 54.1 924.5 54.3 915.9 69.2 915.7 69.2"/>
        <polygon class="st0" points="915.6 69.2 924.5 53.8 924.5 54.1 915.7 69.2 915.6 69.2"/>
        <polygon class="st0" points="915.4 69.2 924.5 53.6 924.5 53.8 915.6 69.2 915.4 69.2"/>
        <polygon class="st0" points="915.3 69.2 924.5 53.3 924.5 53.6 915.4 69.2 915.3 69.2"/>
        <polygon class="st0" points="915.2 69.2 924.5 53.1 924.5 53.3 915.3 69.2 915.2 69.2"/>
        <polygon class="st0" points="915 69.2 924.5 52.8 924.5 53.1 915.2 69.2 915 69.2"/>
        <polygon class="st0" points="914.9 69.2 924.5 52.6 924.5 52.8 915 69.2 914.9 69.2"/>
        <polygon class="st0" points="914.7 69.2 924.5 52.4 924.5 52.6 914.9 69.2 914.7 69.2"/>
        <polygon class="st0" points="914.6 69.2 924.5 52.1 924.5 52.4 914.7 69.2 914.6 69.2"/>
        <polygon class="st0" points="914.5 69.2 924.5 51.9 924.5 52.1 914.6 69.2 914.5 69.2"/>
        <polygon class="st0" points="914.3 69.2 924.5 51.6 924.5 51.9 914.5 69.2 914.3 69.2"/>
        <polygon class="st0" points="914.2 69.2 924.5 51.4 924.5 51.6 914.3 69.2 914.2 69.2"/>
        <polygon class="st0" points="914 69.2 924.5 51.1 924.5 51.4 914.2 69.2 914 69.2"/>
        <polygon class="st0" points="913.9 69.2 924.5 50.9 924.5 51.1 914 69.2 913.9 69.2"/>
        <polygon class="st0" points="913.8 69.2 924.5 50.7 924.5 50.9 913.9 69.2 913.8 69.2"/>
        <polygon class="st0" points="913.6 69.2 924.5 50.4 924.5 50.7 913.8 69.2 913.6 69.2"/>
        <polygon class="st0" points="913.5 69.2 924.5 50.2 924.5 50.4 913.6 69.2 913.5 69.2"/>
        <polygon class="st0" points="913.3 69.2 924.5 49.9 924.5 50.2 913.5 69.2 913.3 69.2"/>
        <polygon class="st0" points="913.2 69.2 924.5 49.7 924.5 49.9 913.3 69.2 913.2 69.2"/>
        <polygon class="st0" points="913.1 69.2 924.5 49.4 924.5 49.7 913.2 69.2 913.1 69.2"/>
        <polygon class="st0" points="912.9 69.2 924.4 49.4 924.5 49.4 924.5 49.4 913.1 69.2 912.9 69.2"/>
        <polygon class="st0" points="912.8 69.2 924.3 49.3 924.4 49.4 912.9 69.2 912.8 69.2"/>
        <polygon class="st0" points="912.6 69.2 924.2 49.2 924.3 49.3 912.8 69.2 912.6 69.2"/>
        <polygon class="st0" points="912.5 69.2 924.1 49.2 924.2 49.2 912.6 69.2 912.5 69.2"/>
        <polygon class="st0" points="912.3 69.2 924 49.1 924 49.1 924.1 49.2 912.5 69.2 912.3 69.2"/>
        <polygon class="st0" points="912.2 69.2 923.8 49.1 924 49.1 912.3 69.2 912.2 69.2"/>
        <polygon class="st0" points="912.1 69.2 923.7 49.1 923.8 49.1 912.2 69.2 912.1 69.2"/>
        <polygon class="st0" points="911.9 69.2 923.5 49.1 923.7 49.1 912.1 69.2 911.9 69.2"/>
        <polygon class="st0" points="911.8 69.2 923.4 49.1 923.5 49.1 911.9 69.2 911.8 69.2"/>
        <polygon class="st0" points="911.6 69.2 923.2 49.1 923.4 49.1 911.8 69.2 911.6 69.2"/>
        <polygon class="st0" points="911.5 69.2 923.1 49.1 923.2 49.1 911.6 69.2 911.5 69.2"/>
        <polygon class="st0" points="911.4 69.2 923 49.1 923.1 49.1 911.5 69.2 911.4 69.2"/>
        <polygon class="st0" points="911.2 69.2 922.8 49.1 923 49.1 911.4 69.2 911.2 69.2"/>
        <polygon class="st0" points="911.1 69.2 922.7 49.1 922.8 49.1 911.2 69.2 911.1 69.2"/>
        <polygon class="st0" points="910.9 69.2 922.5 49.1 922.7 49.1 911.1 69.2 910.9 69.2"/>
        <polygon class="st0" points="910.8 69.2 922.4 49.1 922.5 49.1 910.9 69.2 910.8 69.2"/>
        <polygon class="st0" points="910.7 69.2 922.3 49.1 922.4 49.1 910.8 69.2 910.7 69.2"/>
        <polygon class="st0" points="910.5 69.2 922.1 49.1 922.3 49.1 910.7 69.2 910.5 69.2"/>
        <polygon class="st0" points="910.4 69.2 922 49.1 922.1 49.1 910.5 69.2 910.4 69.2"/>
        <polygon class="st0" points="910.2 69.2 921.8 49.1 922 49.1 910.4 69.2 910.2 69.2"/>
        <polygon class="st0" points="910.1 69.2 921.7 49.1 921.8 49.1 910.2 69.2 910.1 69.2"/>
        <polygon class="st0" points="910 69.2 921.6 49.1 921.7 49.1 910.1 69.2 910 69.2"/>
        <polygon class="st0" points="909.8 69.2 921.4 49.1 921.6 49.1 910 69.2 909.8 69.2"/>
        <polygon class="st0" points="909.7 69.2 921.3 49.1 921.4 49.1 909.8 69.2 909.7 69.2"/>
        <polygon class="st0" points="909.5 69.2 921.1 49.1 921.3 49.1 909.7 69.2 909.5 69.2"/>
        <polygon class="st0" points="909.4 69.2 921 49.1 921.1 49.1 909.5 69.2 909.4 69.2"/>
        <polygon class="st0" points="909.3 69.2 920.9 49.1 921 49.1 909.4 69.2 909.3 69.2"/>
        <polygon class="st0" points="909.1 69.2 920.7 49.1 920.9 49.1 909.3 69.2 909.1 69.2"/>
        <polygon class="st0" points="909 69.2 920.6 49.1 920.7 49.1 909.1 69.2 909 69.2"/>
        <polygon class="st0" points="908.8 69.2 920.4 49.1 920.6 49.1 909 69.2 908.8 69.2"/>
        <polygon class="st0" points="908.7 69.2 920.3 49.1 920.4 49.1 908.8 69.2 908.7 69.2"/>
        <polygon class="st0" points="908.6 69.2 920.2 49.1 920.3 49.1 908.7 69.2 908.6 69.2"/>
        <polygon class="st0" points="908.4 69.2 920 49.1 920.2 49.1 908.6 69.2 908.4 69.2"/>
        <polygon class="st0" points="908.3 69.2 919.9 49.1 920 49.1 908.4 69.2 908.3 69.2"/>
        <polygon class="st0" points="908.1 69.2 919.7 49.1 919.9 49.1 908.3 69.2 908.1 69.2"/>
        <polygon class="st0" points="908 69.2 919.6 49.1 919.7 49.1 908.1 69.2 908 69.2"/>
        <polygon class="st0" points="907.8 69.2 919.4 49.1 919.6 49.1 908 69.2 907.8 69.2"/>
        <polygon class="st0" points="907.7 69.2 919.3 49.1 919.4 49.1 907.8 69.2 907.7 69.2"/>
        <polygon class="st0" points="907.6 69.2 919.2 49.1 919.3 49.1 907.7 69.2 907.6 69.2"/>
        <polygon class="st0" points="907.4 69.2 919 49.1 919.2 49.1 907.6 69.2 907.4 69.2"/>
        <polygon class="st0" points="907.3 69.2 918.9 49.1 919 49.1 907.4 69.2 907.3 69.2"/>
        <polygon class="st0" points="907.1 69.2 918.7 49.1 918.9 49.1 907.3 69.2 907.1 69.2"/>
        <polygon class="st0" points="907 69.2 918.6 49.1 918.7 49.1 907.1 69.2 907 69.2"/>
        <polygon class="st0" points="906.9 69.2 918.5 49.1 918.6 49.1 907 69.2 906.9 69.2"/>
        <polygon class="st0" points="906.7 69.2 918.3 49.1 918.5 49.1 906.9 69.2 906.7 69.2"/>
        <polygon class="st0" points="906.6 69.2 918.2 49.1 918.3 49.1 906.7 69.2 906.6 69.2"/>
        <polygon class="st0" points="906.4 69.2 918 49.1 918.2 49.1 906.6 69.2 906.4 69.2"/>
        <polygon class="st0" points="906.3 69.2 917.9 49.1 918 49.1 906.4 69.2 906.3 69.2"/>
        <polygon class="st0" points="906.2 69.2 917.8 49.1 917.9 49.1 906.3 69.2 906.2 69.2"/>
        <polygon class="st0" points="906 69.2 917.6 49.1 917.8 49.1 906.2 69.2 906 69.2"/>
        <polygon class="st0" points="905.9 69.2 917.5 49.1 917.6 49.1 906 69.2 905.9 69.2"/>
        <polygon class="st0" points="905.7 69.2 917.3 49.1 917.5 49.1 905.9 69.2 905.7 69.2"/>
        <polygon class="st0" points="905.6 69.2 917.2 49.1 917.3 49.1 905.7 69.2 905.6 69.2"/>
        <polygon class="st0" points="905.5 69.2 917.1 49.1 917.2 49.1 905.6 69.2 905.5 69.2"/>
        <polygon class="st0" points="905.3 69.2 916.9 49.1 917.1 49.1 905.5 69.2 905.3 69.2"/>
        <polygon class="st0" points="905.2 69.2 916.8 49.1 916.9 49.1 905.3 69.2 905.2 69.2"/>
        <polygon class="st0" points="905 69.2 916.6 49.1 916.8 49.1 905.2 69.2 905 69.2"/>
        <polygon class="st0" points="904.9 69.2 916.5 49.1 916.6 49.1 905 69.2 904.9 69.2"/>
        <polygon class="st0" points="904.9 69.2 904.8 69.2 916.4 49.1 916.5 49.1 904.9 69.2 904.9 69.2"/>
        <polygon class="st0" points="904.8 69.2 904.7 69.1 916.2 49.1 916.4 49.1 904.8 69.2"/>
        <polygon class="st0" points="904.7 69.1 904.6 69 916.1 49.1 916.2 49.1 904.7 69.1"/>
        <polygon class="st0" points="904.6 69 904.5 69 915.9 49.1 916.1 49.1 904.6 69"/>
        <polygon class="st0" points="904.5 69 904.4 68.9 904.4 68.9 915.8 49.1 915.9 49.1 904.5 69"/>
        <polygon class="st0" points="904.4 68.7 915.7 49.1 915.8 49.1 904.4 68.9 904.4 68.7"/>
        <polygon class="st0" points="904.4 68.4 915.5 49.1 915.7 49.1 904.4 68.7 904.4 68.4"/>
        <polygon class="st0" points="904.4 68.2 915.4 49.1 915.5 49.1 904.4 68.4 904.4 68.2"/>
        <polygon class="st0" points="904.4 67.9 915.2 49.1 915.4 49.1 904.4 68.2 904.4 67.9"/>
        <polygon class="st0" points="904.4 67.7 915.1 49.1 915.2 49.1 904.4 67.9 904.4 67.7"/>
        <polygon class="st0" points="904.4 67.4 914.9 49.1 915.1 49.1 904.4 67.7 904.4 67.4"/>
        <polygon class="st0" points="904.4 67.2 914.8 49.1 914.9 49.1 904.4 67.4 904.4 67.2"/>
        <polygon class="st0" points="904.4 66.9 914.7 49.1 914.8 49.1 904.4 67.2 904.4 66.9"/>
        <polygon class="st0" points="904.4 66.7 914.5 49.1 914.7 49.1 904.4 66.9 904.4 66.7"/>
        <polygon class="st0" points="904.4 66.5 914.4 49.1 914.5 49.1 904.4 66.7 904.4 66.5"/>
        <polygon class="st0" points="904.4 66.2 914.2 49.1 914.4 49.1 904.4 66.5 904.4 66.2"/>
        <polygon class="st0" points="904.4 66 914.1 49.1 914.2 49.1 904.4 66.2 904.4 66"/>
        <polygon class="st0" points="904.4 65.7 914 49.1 914.1 49.1 904.4 66 904.4 65.7"/>
        <polygon class="st0" points="904.4 65.5 913.8 49.1 914 49.1 904.4 65.7 904.4 65.5"/>
        <polygon class="st0" points="904.4 65.2 913.7 49.1 913.8 49.1 904.4 65.5 904.4 65.2"/>
        <polygon class="st0" points="904.4 65 913.5 49.1 913.7 49.1 904.4 65.2 904.4 65"/>
        <polygon class="st0" points="904.4 64.8 913.4 49.1 913.5 49.1 904.4 65 904.4 64.8"/>
        <polygon class="st0" points="904.4 64.5 913.3 49.1 913.4 49.1 904.4 64.8 904.4 64.5"/>
        <polygon class="st0" points="904.4 64.3 913.1 49.1 913.3 49.1 904.4 64.5 904.4 64.3"/>
        <polygon class="st0" points="904.4 64 913 49.1 913.1 49.1 904.4 64.3 904.4 64"/>
        <polygon class="st0" points="904.4 63.8 912.8 49.1 913 49.1 904.4 64 904.4 63.8"/>
        <polygon class="st0" points="904.4 63.5 912.7 49.1 912.8 49.1 904.4 63.8 904.4 63.5"/>
        <polygon class="st0" points="904.4 63.3 912.6 49.1 912.7 49.1 904.4 63.5 904.4 63.3"/>
        <polygon class="st0" points="904.4 63 912.4 49.1 912.6 49.1 904.4 63.3 904.4 63"/>
        <polygon class="st0" points="904.4 62.8 912.3 49.1 912.4 49.1 904.4 63 904.4 62.8"/>
        <polygon class="st0" points="904.4 62.6 912.1 49.1 912.3 49.1 904.4 62.8 904.4 62.6"/>
        <polygon class="st0" points="904.4 62.3 912 49.1 912.1 49.1 904.4 62.6 904.4 62.3"/>
        <polygon class="st0" points="904.4 62.1 911.9 49.1 912 49.1 904.4 62.3 904.4 62.1"/>
        <polygon class="st0" points="904.4 61.8 911.7 49.1 911.9 49.1 904.4 62.1 904.4 61.8"/>
        <polygon class="st0" points="904.4 61.6 911.6 49.1 911.7 49.1 904.4 61.8 904.4 61.6"/>
        <polygon class="st0" points="904.4 61.3 911.4 49.1 911.6 49.1 904.4 61.6 904.4 61.3"/>
        <polygon class="st0" points="904.4 61.1 911.3 49.1 911.4 49.1 904.4 61.3 904.4 61.1"/>
        <polygon class="st0" points="904.4 60.9 911.2 49.1 911.3 49.1 904.4 61.1 904.4 60.9"/>
        <polygon class="st0" points="904.4 60.6 911 49.1 911.2 49.1 904.4 60.9 904.4 60.6"/>
        <polygon class="st0" points="904.4 60.4 910.9 49.1 911 49.1 904.4 60.6 904.4 60.4"/>
        <polygon class="st0" points="904.4 60.1 910.7 49.1 910.9 49.1 904.4 60.4 904.4 60.1"/>
        <polygon class="st0" points="904.4 59.9 910.6 49.1 910.7 49.1 904.4 60.1 904.4 59.9"/>
        <polygon class="st0" points="904.4 59.6 910.4 49.1 910.6 49.1 904.4 59.9 904.4 59.6"/>
        <polygon class="st0" points="904.4 59.4 910.3 49.1 910.4 49.1 904.4 59.6 904.4 59.4"/>
        <polygon class="st0" points="904.4 59.2 910.2 49.1 910.3 49.1 904.4 59.4 904.4 59.2"/>
        <polygon class="st0" points="904.4 58.9 910 49.1 910.2 49.1 904.4 59.2 904.4 58.9"/>
        <polygon class="st0" points="904.4 58.7 909.9 49.1 910 49.1 904.4 58.9 904.4 58.7"/>
        <polygon class="st0" points="904.4 58.4 909.7 49.1 909.9 49.1 904.4 58.7 904.4 58.4"/>
        <polygon class="st0" points="904.4 58.2 909.6 49.1 909.7 49.1 904.4 58.4 904.4 58.2"/>
        <polygon class="st0" points="904.4 57.9 909.5 49.1 909.6 49.1 904.4 58.2 904.4 57.9"/>
        <polygon class="st0" points="904.4 57.7 909.3 49.1 909.5 49.1 904.4 57.9 904.4 57.7"/>
        <polygon class="st0" points="904.4 57.4 909.2 49.1 909.3 49.1 904.4 57.7 904.4 57.4"/>
        <polygon class="st0" points="904.4 57.2 909 49.1 909.2 49.1 904.4 57.4 904.4 57.2"/>
        <polygon class="st0" points="904.4 57 908.9 49.1 909 49.1 904.4 57.2 904.4 57"/>
        <polygon class="st0" points="904.4 56.7 908.8 49.1 908.9 49.1 904.4 57 904.4 56.7"/>
        <polygon class="st0" points="904.4 56.5 908.6 49.1 908.8 49.1 904.4 56.7 904.4 56.5"/>
        <polygon class="st0" points="908.6 49.1 904.4 56.5 904.4 49.1 908.6 49.1"/>
      </g>
    </g>
  </g>
  <rect class="st0" x="243.4" y="231.9" width="531" height="2"/>
  <g>
    <circle class="st0" cx="776.1" cy="232.9" r="12.7"/>
    <g class="st2">
      <g>
        <polygon class="st0" points="783.5 245.6 788.8 236.3 788.8 245.6 783.5 245.6"/>
        <polygon class="st0" points="783.3 245.6 788.8 236 788.8 236.3 783.5 245.6 783.3 245.6"/>
        <polygon class="st0" points="783.1 245.6 788.8 235.7 788.8 236 783.3 245.6 783.1 245.6"/>
        <polygon class="st0" points="782.9 245.6 788.8 235.4 788.8 235.7 783.1 245.6 782.9 245.6"/>
        <polygon class="st0" points="782.7 245.6 788.8 235.1 788.8 235.4 782.9 245.6 782.7 245.6"/>
        <polygon class="st0" points="782.6 245.6 788.8 234.8 788.8 235.1 782.7 245.6 782.6 245.6"/>
        <polygon class="st0" points="782.4 245.6 788.8 234.5 788.8 234.8 782.6 245.6 782.4 245.6"/>
        <polygon class="st0" points="782.2 245.6 788.8 234.2 788.8 234.5 782.4 245.6 782.2 245.6"/>
        <polygon class="st0" points="782 245.6 788.8 233.9 788.8 234.2 782.2 245.6 782 245.6"/>
        <polygon class="st0" points="781.9 245.6 788.8 233.6 788.8 233.9 782 245.6 781.9 245.6"/>
        <polygon class="st0" points="781.7 245.6 788.8 233.3 788.8 233.6 781.9 245.6 781.7 245.6"/>
        <polygon class="st0" points="781.5 245.6 788.8 232.9 788.8 233.3 781.7 245.6 781.5 245.6"/>
        <polygon class="st0" points="781.3 245.6 788.8 232.6 788.8 232.9 781.5 245.6 781.3 245.6"/>
        <polygon class="st0" points="781.1 245.6 788.8 232.3 788.8 232.6 781.3 245.6 781.1 245.6"/>
        <polygon class="st0" points="781 245.6 788.8 232 788.8 232.3 781.1 245.6 781 245.6"/>
        <polygon class="st0" points="780.8 245.6 788.8 231.7 788.8 232 781 245.6 780.8 245.6"/>
        <polygon class="st0" points="780.6 245.6 788.8 231.4 788.8 231.7 780.8 245.6 780.6 245.6"/>
        <polygon class="st0" points="780.4 245.6 788.8 231.1 788.8 231.4 780.6 245.6 780.4 245.6"/>
        <polygon class="st0" points="780.3 245.6 788.8 230.8 788.8 231.1 780.4 245.6 780.3 245.6"/>
        <polygon class="st0" points="780.1 245.6 788.8 230.5 788.8 230.8 780.3 245.6 780.1 245.6"/>
        <polygon class="st0" points="779.9 245.6 788.8 230.2 788.8 230.5 780.1 245.6 779.9 245.6"/>
        <polygon class="st0" points="779.7 245.6 788.8 229.9 788.8 230.2 779.9 245.6 779.7 245.6"/>
        <polygon class="st0" points="779.6 245.6 788.8 229.6 788.8 229.9 779.7 245.6 779.6 245.6"/>
        <polygon class="st0" points="779.4 245.6 788.8 229.3 788.8 229.6 779.6 245.6 779.4 245.6"/>
        <polygon class="st0" points="779.2 245.6 788.8 229 788.8 229.3 779.4 245.6 779.2 245.6"/>
        <polygon class="st0" points="779 245.6 788.8 228.6 788.8 229 779.2 245.6 779 245.6"/>
        <polygon class="st0" points="778.8 245.6 788.8 228.3 788.8 228.6 779 245.6 778.8 245.6"/>
        <polygon class="st0" points="778.7 245.6 788.8 228 788.8 228.3 778.8 245.6 778.7 245.6"/>
        <polygon class="st0" points="778.5 245.6 788.8 227.7 788.8 228 778.7 245.6 778.5 245.6"/>
        <polygon class="st0" points="778.3 245.6 788.8 227.4 788.8 227.7 778.5 245.6 778.3 245.6"/>
        <polygon class="st0" points="778.1 245.6 788.8 227.1 788.8 227.4 778.3 245.6 778.1 245.6"/>
        <polygon class="st0" points="778 245.6 788.8 226.8 788.8 227.1 778.1 245.6 778 245.6"/>
        <polygon class="st0" points="777.8 245.6 788.8 226.5 788.8 226.8 778 245.6 777.8 245.6"/>
        <polygon class="st0" points="777.6 245.6 788.8 226.2 788.8 226.5 777.8 245.6 777.6 245.6"/>
        <polygon class="st0" points="777.4 245.6 788.8 225.9 788.8 226.2 777.6 245.6 777.4 245.6"/>
        <polygon class="st0" points="777.2 245.6 788.8 225.6 788.8 225.9 777.4 245.6 777.2 245.6"/>
        <polygon class="st0" points="777.1 245.6 788.8 225.3 788.8 225.6 777.2 245.6 777.1 245.6"/>
        <polygon class="st0" points="776.9 245.6 788.8 225 788.8 225.3 777.1 245.6 776.9 245.6"/>
        <polygon class="st0" points="776.7 245.6 788.8 224.7 788.8 225 776.9 245.6 776.7 245.6"/>
        <polygon class="st0" points="776.5 245.6 788.8 224.3 788.8 224.7 776.7 245.6 776.5 245.6"/>
        <polygon class="st0" points="776.4 245.6 788.8 224 788.8 224.3 776.5 245.6 776.4 245.6"/>
        <polygon class="st0" points="776.2 245.6 788.8 223.7 788.8 224 776.4 245.6 776.2 245.6"/>
        <polygon class="st0" points="776 245.6 788.8 223.4 788.8 223.7 776.2 245.6 776 245.6"/>
        <polygon class="st0" points="775.8 245.6 788.8 223.1 788.8 223.4 776 245.6 775.8 245.6"/>
        <polygon class="st0" points="775.7 245.6 788.8 222.8 788.8 223.1 775.8 245.6 775.7 245.6"/>
        <polygon class="st0" points="775.5 245.6 788.8 222.5 788.8 222.8 775.7 245.6 775.5 245.6"/>
        <polygon class="st0" points="775.3 245.6 788.8 222.2 788.8 222.5 775.5 245.6 775.3 245.6"/>
        <polygon class="st0" points="775.1 245.6 788.8 221.9 788.8 222.2 775.3 245.6 775.1 245.6"/>
        <polygon class="st0" points="774.9 245.6 788.8 221.6 788.8 221.9 775.1 245.6 774.9 245.6"/>
        <polygon class="st0" points="774.8 245.6 788.8 221.3 788.8 221.6 774.9 245.6 774.8 245.6"/>
        <polygon class="st0" points="774.6 245.6 788.7 221.2 788.8 221.2 788.8 221.3 774.8 245.6 774.6 245.6"/>
        <polygon class="st0" points="774.4 245.6 788.6 221.1 788.7 221.2 774.6 245.6 774.4 245.6"/>
        <polygon class="st0" points="774.2 245.6 788.4 221 788.6 221.1 774.4 245.6 774.2 245.6"/>
        <polygon class="st0" points="774.1 245.6 788.3 220.9 788.4 221 774.2 245.6 774.1 245.6"/>
        <polygon class="st0" points="773.9 245.6 788.2 220.9 788.3 220.9 774.1 245.6 773.9 245.6"/>
        <polygon class="st0" points="773.7 245.6 788 220.8 788.2 220.9 773.9 245.6 773.7 245.6"/>
        <polygon class="st0" points="773.5 245.6 787.9 220.7 788 220.8 773.7 245.6 773.5 245.6"/>
        <polygon class="st0" points="773.3 245.6 787.8 220.6 787.9 220.7 773.5 245.6 773.3 245.6"/>
        <polygon class="st0" points="773.2 245.6 787.6 220.5 787.8 220.6 773.3 245.6 773.2 245.6"/>
        <polygon class="st0" points="773 245.6 787.5 220.5 787.6 220.5 773.2 245.6 773 245.6"/>
        <polygon class="st0" points="772.8 245.6 787.4 220.4 787.5 220.5 773 245.6 772.8 245.6"/>
        <polygon class="st0" points="772.6 245.6 787.2 220.3 787.4 220.4 772.8 245.6 772.6 245.6"/>
        <polygon class="st0" points="772.5 245.6 787.1 220.3 787.1 220.3 787.2 220.3 772.6 245.6 772.5 245.6"/>
        <polygon class="st0" points="772.3 245.6 786.9 220.3 787.1 220.3 772.5 245.6 772.3 245.6"/>
        <polygon class="st0" points="772.1 245.6 786.7 220.3 786.9 220.3 772.3 245.6 772.1 245.6"/>
        <polygon class="st0" points="771.9 245.6 786.6 220.3 786.7 220.3 772.1 245.6 771.9 245.6"/>
        <polygon class="st0" points="771.7 245.6 786.4 220.3 786.6 220.3 771.9 245.6 771.7 245.6"/>
        <polygon class="st0" points="771.6 245.6 786.2 220.3 786.4 220.3 771.7 245.6 771.6 245.6"/>
        <polygon class="st0" points="771.4 245.6 786 220.3 786.2 220.3 771.6 245.6 771.4 245.6"/>
        <polygon class="st0" points="771.2 245.6 785.8 220.3 786 220.3 771.4 245.6 771.2 245.6"/>
        <polygon class="st0" points="771 245.6 785.7 220.3 785.8 220.3 771.2 245.6 771 245.6"/>
        <polygon class="st0" points="770.9 245.6 785.5 220.3 785.7 220.3 771 245.6 770.9 245.6"/>
        <polygon class="st0" points="770.7 245.6 785.3 220.3 785.5 220.3 770.9 245.6 770.7 245.6"/>
        <polygon class="st0" points="770.5 245.6 785.1 220.3 785.3 220.3 770.7 245.6 770.5 245.6"/>
        <polygon class="st0" points="770.3 245.6 785 220.3 785.1 220.3 770.5 245.6 770.3 245.6"/>
        <polygon class="st0" points="770.2 245.6 784.8 220.3 785 220.3 770.3 245.6 770.2 245.6"/>
        <polygon class="st0" points="770 245.6 784.6 220.3 784.8 220.3 770.2 245.6 770 245.6"/>
        <polygon class="st0" points="769.8 245.6 784.4 220.3 784.6 220.3 770 245.6 769.8 245.6"/>
        <polygon class="st0" points="769.6 245.6 784.2 220.3 784.4 220.3 769.8 245.6 769.6 245.6"/>
        <polygon class="st0" points="769.4 245.6 784.1 220.3 784.2 220.3 769.6 245.6 769.4 245.6"/>
        <polygon class="st0" points="769.3 245.6 783.9 220.3 784.1 220.3 769.4 245.6 769.3 245.6"/>
        <polygon class="st0" points="769.1 245.6 783.7 220.3 783.9 220.3 769.3 245.6 769.1 245.6"/>
        <polygon class="st0" points="768.9 245.6 783.5 220.3 783.7 220.3 769.1 245.6 768.9 245.6"/>
        <polygon class="st0" points="768.7 245.6 783.4 220.3 783.5 220.3 768.9 245.6 768.7 245.6"/>
        <polygon class="st0" points="768.6 245.6 783.2 220.3 783.4 220.3 768.7 245.6 768.6 245.6"/>
        <polygon class="st0" points="768.4 245.6 783 220.3 783.2 220.3 768.6 245.6 768.4 245.6"/>
        <polygon class="st0" points="768.2 245.6 782.8 220.3 783 220.3 768.4 245.6 768.2 245.6"/>
        <polygon class="st0" points="768 245.6 782.7 220.3 782.8 220.3 768.2 245.6 768 245.6"/>
        <polygon class="st0" points="767.8 245.6 782.5 220.3 782.7 220.3 768 245.6 767.8 245.6"/>
        <polygon class="st0" points="767.7 245.6 782.3 220.3 782.5 220.3 767.8 245.6 767.7 245.6"/>
        <polygon class="st0" points="767.5 245.6 782.1 220.3 782.3 220.3 767.7 245.6 767.5 245.6"/>
        <polygon class="st0" points="767.3 245.6 781.9 220.3 782.1 220.3 767.5 245.6 767.3 245.6"/>
        <polygon class="st0" points="767.1 245.6 781.8 220.3 781.9 220.3 767.3 245.6 767.1 245.6"/>
        <polygon class="st0" points="767 245.6 781.6 220.3 781.8 220.3 767.1 245.6 767 245.6"/>
        <polygon class="st0" points="766.8 245.6 781.4 220.3 781.6 220.3 767 245.6 766.8 245.6"/>
        <polygon class="st0" points="766.6 245.6 781.2 220.3 781.4 220.3 766.8 245.6 766.6 245.6"/>
        <polygon class="st0" points="766.4 245.6 781.1 220.3 781.2 220.3 766.6 245.6 766.4 245.6"/>
        <polygon class="st0" points="766.3 245.6 780.9 220.3 781.1 220.3 766.4 245.6 766.3 245.6"/>
        <polygon class="st0" points="766.1 245.6 780.7 220.3 780.9 220.3 766.3 245.6 766.1 245.6"/>
        <polygon class="st0" points="765.9 245.6 780.5 220.3 780.7 220.3 766.1 245.6 765.9 245.6"/>
        <polygon class="st0" points="765.7 245.6 780.3 220.3 780.5 220.3 765.9 245.6 765.7 245.6"/>
        <polygon class="st0" points="765.5 245.6 780.2 220.3 780.3 220.3 765.7 245.6 765.5 245.6"/>
        <polygon class="st0" points="765.4 245.6 780 220.3 780.2 220.3 765.5 245.6 765.4 245.6"/>
        <polygon class="st0" points="765.2 245.6 779.8 220.3 780 220.3 765.4 245.6 765.2 245.6"/>
        <polygon class="st0" points="765.1 245.6 765 245.5 779.6 220.3 779.8 220.3 765.2 245.6 765.1 245.6"/>
        <polygon class="st0" points="765 245.5 764.9 245.5 779.5 220.3 779.6 220.3 765 245.5"/>
        <polygon class="st0" points="764.9 245.5 764.8 245.4 779.3 220.3 779.5 220.3 764.9 245.5"/>
        <polygon class="st0" points="764.8 245.4 764.6 245.3 779.1 220.3 779.3 220.3 764.8 245.4"/>
        <polygon class="st0" points="764.6 245.3 764.5 245.2 778.9 220.3 779.1 220.3 764.6 245.3"/>
        <polygon class="st0" points="764.5 245.2 764.4 245.2 778.8 220.3 778.9 220.3 764.5 245.2"/>
        <polygon class="st0" points="764.4 245.2 764.2 245.1 778.6 220.3 778.8 220.3 764.4 245.2"/>
        <polygon class="st0" points="764.2 245.1 764.1 245 778.4 220.3 778.6 220.3 764.2 245.1"/>
        <polygon class="st0" points="764.1 245 764 244.9 778.2 220.3 778.4 220.3 764.1 245"/>
        <polygon class="st0" points="764 244.9 763.8 244.8 778 220.3 778.2 220.3 764 244.9"/>
        <polygon class="st0" points="763.8 244.8 763.7 244.8 777.9 220.3 778 220.3 763.8 244.8"/>
        <polygon class="st0" points="763.7 244.8 763.6 244.7 777.7 220.3 777.9 220.3 763.7 244.8"/>
        <polygon class="st0" points="763.6 244.7 763.5 244.6 763.5 244.6 777.5 220.3 777.7 220.3 763.6 244.7"/>
        <polygon class="st0" points="763.5 244.3 777.3 220.3 777.5 220.3 763.5 244.6 763.5 244.3"/>
        <polygon class="st0" points="763.5 244 777.2 220.3 777.3 220.3 763.5 244.3 763.5 244"/>
        <polygon class="st0" points="763.5 243.7 777 220.3 777.2 220.3 763.5 244 763.5 243.7"/>
        <polygon class="st0" points="763.5 243.4 776.8 220.3 777 220.3 763.5 243.7 763.5 243.4"/>
        <polygon class="st0" points="763.5 243 776.6 220.3 776.8 220.3 763.5 243.4 763.5 243"/>
        <polygon class="st0" points="763.5 242.7 776.4 220.3 776.6 220.3 763.5 243 763.5 242.7"/>
        <polygon class="st0" points="763.5 242.4 776.3 220.3 776.4 220.3 763.5 242.7 763.5 242.4"/>
        <polygon class="st0" points="763.5 242.1 776.1 220.3 776.3 220.3 763.5 242.4 763.5 242.1"/>
        <polygon class="st0" points="763.5 241.8 775.9 220.3 776.1 220.3 763.5 242.1 763.5 241.8"/>
        <polygon class="st0" points="763.5 241.5 775.7 220.3 775.9 220.3 763.5 241.8 763.5 241.5"/>
        <polygon class="st0" points="763.5 241.2 775.6 220.3 775.7 220.3 763.5 241.5 763.5 241.2"/>
        <polygon class="st0" points="763.5 240.9 775.4 220.3 775.6 220.3 763.5 241.2 763.5 240.9"/>
        <polygon class="st0" points="763.5 240.6 775.2 220.3 775.4 220.3 763.5 240.9 763.5 240.6"/>
        <polygon class="st0" points="763.5 240.3 775 220.3 775.2 220.3 763.5 240.6 763.5 240.3"/>
        <polygon class="st0" points="763.5 240 774.9 220.3 775 220.3 763.5 240.3 763.5 240"/>
        <polygon class="st0" points="763.5 239.7 774.7 220.3 774.9 220.3 763.5 240 763.5 239.7"/>
        <polygon class="st0" points="763.5 239.4 774.5 220.3 774.7 220.3 763.5 239.7 763.5 239.4"/>
        <polygon class="st0" points="763.5 239.1 774.3 220.3 774.5 220.3 763.5 239.4 763.5 239.1"/>
        <polygon class="st0" points="763.5 238.7 774.1 220.3 774.3 220.3 763.5 239.1 763.5 238.7"/>
        <polygon class="st0" points="763.5 238.4 774 220.3 774.1 220.3 763.5 238.7 763.5 238.4"/>
        <polygon class="st0" points="763.5 238.1 773.8 220.3 774 220.3 763.5 238.4 763.5 238.1"/>
        <polygon class="st0" points="763.5 237.8 773.6 220.3 773.8 220.3 763.5 238.1 763.5 237.8"/>
        <polygon class="st0" points="763.5 237.5 773.4 220.3 773.6 220.3 763.5 237.8 763.5 237.5"/>
        <polygon class="st0" points="763.5 237.2 773.3 220.3 773.4 220.3 763.5 237.5 763.5 237.2"/>
        <polygon class="st0" points="763.5 236.9 773.1 220.3 773.3 220.3 763.5 237.2 763.5 236.9"/>
        <polygon class="st0" points="763.5 236.6 772.9 220.3 773.1 220.3 763.5 236.9 763.5 236.6"/>
        <polygon class="st0" points="763.5 236.3 772.7 220.3 772.9 220.3 763.5 236.6 763.5 236.3"/>
        <polygon class="st0" points="763.5 236 772.5 220.3 772.7 220.3 763.5 236.3 763.5 236"/>
        <polygon class="st0" points="763.5 235.7 772.4 220.3 772.5 220.3 763.5 236 763.5 235.7"/>
        <polygon class="st0" points="763.5 235.4 772.2 220.3 772.4 220.3 763.5 235.7 763.5 235.4"/>
        <polygon class="st0" points="763.5 235.1 772 220.3 772.2 220.3 763.5 235.4 763.5 235.1"/>
        <polygon class="st0" points="763.5 234.8 771.8 220.3 772 220.3 763.5 235.1 763.5 234.8"/>
        <polygon class="st0" points="763.5 234.4 771.7 220.3 771.8 220.3 763.5 234.8 763.5 234.4"/>
        <polygon class="st0" points="763.5 234.1 771.5 220.3 771.7 220.3 763.5 234.4 763.5 234.1"/>
        <polygon class="st0" points="763.5 233.8 771.3 220.3 771.5 220.3 763.5 234.1 763.5 233.8"/>
        <polygon class="st0" points="763.5 233.5 771.1 220.3 771.3 220.3 763.5 233.8 763.5 233.5"/>
        <polygon class="st0" points="763.5 233.2 770.9 220.3 771.1 220.3 763.5 233.5 763.5 233.2"/>
        <polygon class="st0" points="763.5 232.9 770.8 220.3 770.9 220.3 763.5 233.2 763.5 232.9"/>
        <polygon class="st0" points="763.5 232.6 770.6 220.3 770.8 220.3 763.5 232.9 763.5 232.6"/>
        <polygon class="st0" points="763.5 232.3 770.4 220.3 770.6 220.3 763.5 232.6 763.5 232.3"/>
        <polygon class="st0" points="763.5 232 770.2 220.3 770.4 220.3 763.5 232.3 763.5 232"/>
        <polygon class="st0" points="763.5 231.7 770.1 220.3 770.2 220.3 763.5 232 763.5 231.7"/>
        <polygon class="st0" points="763.5 231.4 769.9 220.3 770.1 220.3 763.5 231.7 763.5 231.4"/>
        <polygon class="st0" points="763.5 231.1 769.7 220.3 769.9 220.3 763.5 231.4 763.5 231.1"/>
        <polygon class="st0" points="763.5 230.8 769.5 220.3 769.7 220.3 763.5 231.1 763.5 230.8"/>
        <polygon class="st0" points="763.5 230.5 769.4 220.3 769.5 220.3 763.5 230.8 763.5 230.5"/>
        <polygon class="st0" points="763.5 230.1 769.2 220.3 769.4 220.3 763.5 230.5 763.5 230.1"/>
        <polygon class="st0" points="763.5 229.8 769 220.3 769.2 220.3 763.5 230.1 763.5 229.8"/>
        <polygon class="st0" points="763.5 229.5 768.8 220.3 769 220.3 763.5 229.8 763.5 229.5"/>
        <polygon class="st0" points="768.8 220.3 763.5 229.5 763.5 220.3 768.8 220.3"/>
      </g>
    </g>
  </g>
  <g>
    <path class="st0" d="M235.8,291.3l-7.7-15.9h0l-2.7,15.9h-4.6l5.9-34.2h10c6.1,0,9.4,2.7,9.4,8.5s-5.4,12.9-11.1,13l6.7,12.8h-5.9ZM231.7,274.8c7,0,9.6-4.3,9.6-7.9s-2.4-5.2-5.9-5.2h-5l-2.3,13.1h3.6,0Z"/>
    <path class="st0" d="M267.3,291.3l.7-4h0c-2.2,3-5.5,4.6-8.8,4.6-6.1,0-10.5-4.3-10.5-10.7,0-9.1,7.4-16.2,15.1-16.2s6.1,1.5,7.3,4.3h0l.6-3.6h4.4l-4.4,25.6h-4.4ZM262.9,269.4c-5.1,0-9.8,5.2-9.8,10.8s2.8,7.4,6.7,7.4,10-5.1,10-10.7-2.6-7.4-6.8-7.4h-.1ZM261.5,263.1l-1.2-3.5,10.6-5.9,1.2,3.7-10.6,5.6h0Z"/>
    <path class="st0" d="M278.5,299.9l5.9-34.2h4.1l-.7,3.9h0c2.4-2.9,5.6-4.6,9.2-4.6,6.2,0,10.2,4.4,10.2,11s-6.9,16-14.5,16-6.6-1.6-7.6-4.3h0l-2.1,12.3h-4.5ZM302.7,277c0-4.7-2.7-7.6-6.7-7.6s-9.6,5.4-9.6,10.9,2.7,7.3,6.6,7.3,9.7-5,9.7-10.5h0Z"/>
    <path class="st0" d="M311,291.3l4.4-25.6h4.4l-4.4,25.6h-4.4ZM315.9,262.7l.9-5.6h4.4l-.9,5.6h-4.4Z"/>
    <path class="st0" d="M342.4,291.3l.6-3.7h0c-2.4,2.8-5.6,4.3-9.1,4.3-6.1,0-10.2-4.3-10.2-10.8s7.1-16.2,14.8-16.2,6,1.4,7.4,3.8h0l2-11.7h4.4l-5.9,34.2h-4.1.1ZM337.9,269.4c-4.9,0-9.8,5.1-9.8,10.5s2.7,7.6,6.7,7.6,10-5.2,10-10.8-2.6-7.4-6.8-7.4h-.1Z"/>
    <path class="st0" d="M365.4,292c-6.2,0-10.6-4.8-10.6-11.3s7.7-15.6,15.3-15.6,10.7,4.6,10.7,10.8-7.4,16.2-15.3,16.2h-.1ZM369,269.4c-4.9,0-9.8,5.2-9.8,10.7s2.9,7.5,6.9,7.5,10-5.2,10-10.5-2.8-7.6-7.1-7.6h0Z"/>
    <path class="st0" d="M384.3,291.3l1-5.6h4.4l-1,5.6h-4.4Z"/>
    <path class="st0" d="M438.4,282.9c-4.2,6-10.1,9.1-15.9,9.1s-13.4-6.4-13.4-14.4c0-11.6,9.7-21.1,19.6-21.1s10.9,3.2,12.9,9.4h-5.6c-2.1-3.3-4.4-4.8-8.2-4.8-7.1,0-14,7.6-14,15.3s4.1,11.1,9.6,11.1,6.6-1.7,9.4-4.5h5.7-.1Z"/>
    <path class="st0" d="M453.4,292c-6.2,0-10.6-4.8-10.6-11.3s7.7-15.6,15.3-15.6,10.7,4.6,10.7,10.8-7.4,16.2-15.3,16.2h-.1ZM457.1,269.4c-4.9,0-9.8,5.2-9.8,10.7s2.9,7.5,6.9,7.5,10-5.2,10-10.5-2.8-7.6-7.1-7.6h0Z"/>
    <path class="st0" d="M489.1,291.3l2.4-13.6c0-.5.3-1.7.3-3.1,0-3.4-1.6-5.2-4.8-5.2s-6.8,3-7.6,7.7l-2.4,14.2h-4.4l4.4-25.6h4.1l-.5,2.7h0c2-2.3,4.5-3.4,7.5-3.4,5,0,8.2,3.1,8.2,8.2s-.2,2.7-.4,4l-2.4,14.1h-4.4Z"/>
    <path class="st0" d="M511.6,291.3l3.6-21.2h-6l-3.6,21.2h-4.4l3.6-21.2h-2.1l.8-4.4h2.1l.3-1.4c.8-4.3,4.1-7.2,8.9-7.2h.9l-.7,4.4c-2.8,0-4.3,1.1-4.7,3l-.2,1.2h10.5l-4.4,25.6h-4.6ZM516.5,262.7l.9-5.6h4.4l-.9,5.6h-4.4Z"/>
    <path class="st0" d="M542.9,291.3l.7-4h0c-2.2,3-5.5,4.6-8.8,4.6-6.1,0-10.5-4.3-10.5-10.7,0-9.1,7.4-16.2,15.1-16.2s6.1,1.5,7.3,4.3h0l.6-3.6h4.4l-4.4,25.6h-4.4,0ZM538.5,269.4c-5.1,0-9.8,5.2-9.8,10.8s2.8,7.4,6.7,7.4,10-5.1,10-10.7-2.6-7.4-6.8-7.4h-.1Z"/>
    <path class="st0" d="M555,291.3l5.9-34.2h4.4l-2.1,12.2h0c2.4-2.7,5.5-4.3,8.8-4.3,5.7,0,10.2,4.7,10.2,10.8,0,9-7.4,16.1-14.7,16.1s-5.9-1.5-7.5-4.3h0l-.6,3.7h-4.4ZM571.1,269.4c-4.9,0-9.7,5-9.7,10.9s2.8,7.3,6.7,7.3,9.8-5.4,9.8-10.5-2.6-7.6-6.7-7.6h0Z"/>
    <path class="st0" d="M586.1,291.3l5.9-34.2h4.4l-5.9,34.2h-4.4Z"/>
    <path class="st0" d="M603,280.6c.3,4.3,2.9,7,6.6,7s5.7-1.7,7.5-4.3h4.4c-2.8,5.3-7.8,8.7-12.9,8.7s-10-4.8-10-11,7.4-16,14.7-16,10,4.5,10,10.7-.4,3.2-.8,4.9h-19.6,0ZM619,276.9v-.6c0-4.1-2.7-6.9-6.5-6.9s-7.8,3.1-8.9,7.5h15.4Z"/>
    <path class="st0" d="M627,291.3l1-5.6h4.4l-1,5.6h-4.4Z"/>
    <path class="st0" d="M650.2,291.3l5.9-34.2h17.1l-.8,4.6h-12.4l-1.8,10.1h12.4l-.8,4.6h-12.4l-1.8,10.4h12.4l-.8,4.6h-17.1,0Z"/>
    <path class="st0" d="M688.2,291.3l-4.3-9.1-7.3,9.1h-5.2l10.5-13.1-5.8-12.5h5.4l3.8,8.4,6.6-8.4h5.4l-9.9,12.5,6,13.1h-5.2Z"/>
    <path class="st0" d="M716.8,291.3l.7-4h0c-2.2,3-5.5,4.6-8.8,4.6-6.1,0-10.5-4.3-10.5-10.7,0-9.1,7.4-16.2,15.1-16.2s6.1,1.5,7.3,4.3h0l.6-3.6h4.4l-4.4,25.6h-4.4,0ZM712.4,269.4c-5.1,0-9.8,5.2-9.8,10.8s2.8,7.4,6.7,7.4,10-5.1,10-10.7-2.6-7.4-6.8-7.4h-.1Z"/>
    <path class="st0" d="M752.7,282.9c-2.7,5.6-7.9,9.1-13.2,9.1s-10-4.5-10-10.9,6.5-16,14.9-16,9.6,4.5,9.9,9.2h-4.9c-.9-3.1-2.8-4.8-5.9-4.8-5.3,0-9.5,5.3-9.5,10.8s2.4,7.4,6.3,7.4,5.8-1.8,7.5-4.7h5,0Z"/>
    <path class="st0" d="M757.7,291.3l3.6-21.2h-3.2l.8-4.4h3.2l1.5-8.6h4.4l-1.5,8.6h3.9l-.8,4.4h-3.9l-3.6,21.2h-4.4Z"/>
    <path class="st0" d="M782.2,292c-6.2,0-10.6-4.8-10.6-11.3s7.7-15.6,15.3-15.6,10.7,4.6,10.7,10.8-7.4,16.2-15.3,16.2h-.1ZM785.9,269.4c-4.9,0-9.8,5.2-9.8,10.7s2.9,7.5,6.9,7.5,10-5.2,10-10.5-2.8-7.6-7.1-7.6h0Z"/>
  </g>
</svg>