<?xml version="1.0" encoding="UTF-8"?>
<svg id="Capa_1" xmlns="http://www.w3.org/2000/svg" version="1.1" viewBox="0 0 1920 1080">
  <!-- Generator: Adobe Illustrator 29.0.0, SVG Export Plug-In . SVG Version: 2.1.0 Build 186)  -->
  <defs>
    <style>
      .st0 {
        fill: #fff;
      }

      .st1 {
        fill: #0354a2;
      }

      .st2 {
        fill: #fdfefe;
      }
    </style>
  </defs>
  <path class="st1" d="M514.35,260.29c7.24,4.63,4.07,68.54,4.41,80.72,2.2,77.01,4.43,154.02,6.31,231.25,1.11,45.54,8.99,107.37,4.29,151.31-1.8,16.82-23.35,12.03-35.76,18.91,11.34,19.73,34.16,34.67,17.79,59.79-4.63,7.11-57.95,45.37-66.05,47.45-39.79,10.24-50.36-52.23-67.53-76.68l-223.92,60.63c-24.33,2.91-68.44-11.4-75.62-37.46-2.65-9.63-4.1-28.39-5.09-39.06-7.61-82.34-9.2-165.47-12.66-248.03-1.77-42.33-7.51-90.63-6.37-132.55.89-32.87,17.98-46.67,41.14-66.08,61.7-51.72,131.83-96.63,192.49-150.18,21.18-17.52,29.89,13.92,18.58,29.09-42.46,28.97-86.22,56.47-127.91,86.53-15.44,11.14-52.63,35.36-63.29,48.14-15.31,18.35,1.09,32.54,19.99,34.91,121.03-29.18,240.67-64.96,360.89-97.62,4.07-.94,15.41-2.92,18.3-1.08ZM450.93,605.38l-167.64-102.47c-6.55-2.9-13.04-1.79-12.69,6.18l17.94,217.71c1.99,3.01,6.77,2.58,9.51.9l59.84-43.02,72.91,137.42c3.41,5.57,6.8,3.49,11.48,1.46,5.55-2.41,43.17-29.17,47.68-33.71,1.61-1.62,2.92-2.81,2.89-5.32l-97.82-126.52c-.64-2.79,1.73-3.26,3.2-4.62,8.07-7.52,53.71-35.15,55.05-41.6.42-2.03-.98-4.85-2.35-6.41Z"/>
  <path class="st1" d="M688.53,615.72l424.04-.26c9.37,1.13,20.74,9.63,23.4,18.65,2.13,7.21,2.1,45.28.82,53.56-1.98,12.84-15.33,23.6-28.24,24.32l-414.03-.13c-14.66-4.03-24.62-12.67-26.41-28.25-2.12-18.55-3.54-62.47,20.42-67.88ZM716.47,695.16h30.48c12.43,0,24.93-20.28,24.27-32.51-1.59-29.25-32.29-30.09-54.75-28.45v60.97ZM800.57,634.19h-14.72v60.97h14.72v-60.97ZM878.35,661.52h-29.43v12.63s14.72,0,14.72,0c-15.74,24.7-47.64-5.95-26.33-23.19,17.38-14.06,24.98,12.51,36.75-5.21-22.27-24.73-61.09-10.17-56.73,25.29s68.09,31.07,61.01-9.52ZM909.89,634.19h-14.72v60.97h14.72v-60.97ZM972.96,634.19h-48.35v12.63s16.82-.01,16.82-.01v48.35h14.72v-48.35h16.83s-.01-12.61-.01-12.61ZM1033.91,695.15l-19.93-58.89c-2.45-2.83-15.52-3.1-17.61-1.77-2.69,1.72-18.08,53.19-19.22,60.66,17.9,4.18,11.77-7.52,14.95-10.27.9-.78,21.83-.87,23.7-.36,2.65.73,1.8,9.14,3.68,10.37,2.32,1.52,10.85-.43,14.43.26ZM1061.25,634.19h-12.61v60.97h42.05v-12.63c-6.54-1.43-29.43,4.21-29.43-5.24v-43.1Z"/>
  <path class="st0" d="M1172.68,569.02h-25.23v-55.71c0-12.78-29.43-11.28-29.43,0v55.71h-25.23v-55.71c0-6.89-13.04-10.99-19.52-9.06-5.03,1.5-12.02,12.71-12.02,17.47v47.3h-23.13v-86.19c6.13,1.12,16.76-1.52,21.98-.14,2.84.75-1.15,8.29,4.26,6.43,6.41-2.2,9.2-8.69,20.96-8.46,10.28.2,23.6,10.42,24.96,10.3,2.79-.26,8.91-5.95,13.53-7.57,13.98-4.89,32.17-2.63,41.6,9.85,2.11,2.79,7.25,15.47,7.25,17.98v57.81Z"/>
  <path class="st1" d="M425.8,195.26c22.02-4.47,16.62,21.04,9.86,33.02l-284.15,111.23c-6.92,1.6-10.16-6.77-3.21-9.67l277.51-134.59Z"/>
  <path class="st0" d="M1029.72,569.02c-6.87-1.13-17.77,1.61-23.85,0-1.72-.45-1.22-4.42-2.38-4.22-3.57.61-9.25,5.6-16.86,6.32-63.2,6.01-70.79-95.46,4.02-88.13,4.36.43,9.93,4.29,12.65,4.15,1.17-.06.96-3.89,2.59-4.3,6.31-1.57,16.82,1.05,23.82-.02v86.19ZM976.56,504.29c-24.95,5.66-20.65,49.55,9.5,45.4,32.05-4.41,22.85-52.74-9.5-45.4Z"/>
  <path class="st0" d="M1271.48,569.02c-6.46-.97-15.88,1.42-21.73-.02-1.64-.4-1.42-4.27-2.53-4.3-2.79-.09-10.24,5.05-15.13,5.92-28.26,4.98-53.81-16.08-53.26-44.72.71-36.33,39.1-54.82,69.5-36.74-2.86-11.58,15.29-4.52,23.14-6.32v86.19ZM1218.33,504.28c-25.05,5.67-20.09,51.45,11.64,45.39,29.04-5.55,21.26-52.83-11.64-45.39Z"/>
  <path class="st0" d="M1681.44,533.28h-65.17c1.08,22.92,33.32,22.55,43.13,6.24,17.83,8.08,24.9,13.84,4.61,25.74-28.72,16.85-69.55,2.71-72.97-33.02-6.44-67.16,98.13-69.21,90.4,1.04ZM1656.21,516.46c-1.22-20.2-37.83-20.74-39.94,0h39.94Z"/>
  <path class="st0" d="M806.87,533.28h-65.17c2.8,15.01,18.31,21.29,31.96,16.18,9.79-3.66,13.71-14.66,25.87-1.46,4.71,5.11,2.03,8.08-2.72,12.61-19.18,18.27-62.7,13.91-74.39-11.2-34.34-73.76,91.77-100.14,84.46-16.13ZM781.64,516.46c-2.46-21.89-35.64-20.52-39.94,0h39.94Z"/>
  <path class="st0" d="M1441.26,481.28c63.35-8.71,71.69,80.54,19.98,89.34-71.43,12.15-78.05-81.35-19.98-89.34ZM1466.34,543.15c18.78-21.22-10.17-55.36-33.09-34.15-24.76,22.92,12.04,57.93,33.09,34.15Z"/>
  <path class="st0" d="M1584.73,569.02c-.92.93-25.23,4.42-25.23-1.05v-54.66c0-13.31-33.64-12.04-33.64,6.31v51.51h-23.13v-88.3c7.86,1.8,26-5.26,23.14,6.32,16.29-10.78,38.62-12.76,51.3,4.38,2.33,3.15,7.55,12.31,7.55,15.58,0,8.12,2.11,57.79,0,59.92Z"/>
  <path class="st0" d="M1754.31,491.94c15.42,15.89,2.13,27.15-15.68,18.93-3.72-1.72-2.14-5.83-4.63-8-9.14-7.96-30.49,1.97-16.69,10.3,13.78,8.33,48.25-.43,48.27,29.56.02,38.92-79.5,39.56-77.84-1.05,6.28.94,16.19-1.58,21.74.34,3.19,1.1,4.45,6.58,7.72,9.08,7.66,5.85,23.6,2.72,21.12-8.19-18.72-8.41-52.02-3.99-50.72-33.78,1.28-29.36,49.21-35.22,66.7-17.19Z"/>
  <path class="st0" d="M798.46,293.62v37.84c8.06-2.9,12.73-7.46,22.06-8.41,21.06-2.14,38.9,6.81,47.04,26.56,18.13,43.97-32.04,81.07-69.08,51.23,2.68,13.18-6.75,7.38-16.84,8.41v-115.63h16.82ZM818.91,338.26c-34.87,7.25-25.95,67.24,15.45,57.46,34.31-8.11,25.97-66.07-15.45-57.46Z"/>
  <path class="st0" d="M1141.14,293.62v115.63c-10.85-.64-15.44,4.19-15.79-8.43-43.64,36.5-99.01-25.85-61.02-65.22,17.48-18.12,41.55-14.47,62.09-4.13v-37.84h14.72ZM1119.38,387.49c25.99-28.62-17.83-69.85-44.26-41.11-26.47,28.79,17.64,70.43,44.26,41.11Z"/>
  <path class="st0" d="M899.36,505.91c-5.87.67-12.28,8.54-17.92,8.4-4.6-.11-8.05-7.82-13.48-9.52-39.61-12.42-39.95,54.74-1.68,44.78,7.65-1.99,12.31-12.22,13.23-12.22,5.58-.01,13.41,10.24,19.85,10.68-10.55,26.7-50.55,30.82-71.3,13.46-17.43-14.58-20.04-43.2-7.39-61.72,18.61-27.24,65.73-25.25,78.69,6.13Z"/>
  <path class="st0" d="M1343.32,513.98c-1.31-.79-1.93-7.05-8.66-9.18-34.01-10.76-42.56,35.73-16.59,43.9,20.05,6.31,21.94-9.9,28.35-11,1.16-.2,15.93,9.13,16.66,10.29,5.46,8.72-20.41,21.93-27.66,22.95-75.03,10.5-74.64-94.75-6.17-90.21,9.22.61,37.72,13.66,34.62,23.92-.88,2.91-16.74,11.62-20.55,9.33Z"/>
  <path class="st0" d="M1237.85,371.4h-68.33c-6.24,0,.1,11.8,2.23,14.59,8.15,10.65,21.92,12.99,34.62,9.65,11.9-3.13,13.2-17.85,26.74-7.98,1.46,1.06,3.56-.4,2.57,3.64-25.02,36.46-87.32,21.52-86.21-25.07,1.45-60.51,97.46-57.19,88.36,5.17ZM1221.03,358.79c-2.46-31.19-49.59-30.48-54.66,0h54.66Z"/>
  <path class="st0" d="M933.74,398.01c-35.61-38.27,14.4-99.46,60.1-67.47,54.24,37.98-16.12,114.72-60.1,67.47ZM946.34,344.79c-16.81,16.96-7.7,49.67,17.17,51.85,42.61,3.73,41.32-55.15,10.55-58.91-9.5-1.16-20.73,0-27.72,7.06Z"/>
  <rect class="st0" x="903.58" y="453.39" width="27.33" height="115.63"/>
  <path class="st0" d="M687.04,293.62v100.91h58.86v14.72h-75.68v-112.47c0-4.06,13.42-3.34,16.82-3.15Z"/>
  <path class="st0" d="M668.12,482.83c3.76.61,22.31-.84,23.14-.01,1.03,1.04-1.66,8.96,1.03,10.51,5.91-7.95,14.78-10.64,24.17-12.59-.71,4.11,1.06,23.98-.08,25.13-.98.99-23.03,2.88-23.03,13.75v49.4h-25.23v-86.19Z"/>
  <path class="st0" d="M1395.52,482.83v88.3c-4.49-.41-25.23,1.84-25.23-3.15v-85.14h25.23Z"/>
  <path class="st0" d="M880.45,326.2c1.12-3.65,9.79-4.34,12.76-2.24,3.62,2.56.48,9.09,2.99,11.69,7.02-8.48,14.58-13.88,26.29-12.61,3.59,22.36-7.32,12.84-17.9,21-3.07,2.37-9.43,12.81-9.43,15.8v49.4h-14.72v-83.04Z"/>
  <path class="st0" d="M771.13,409.25h-14.72v-86.19c2.97-.36,14.72-.56,14.72,3.15v83.04Z"/>
  <rect class="st0" x="1370.28" y="453.38" width="25.25" height="23.15"/>
  <rect class="st0" x="756.41" y="293.61" width="14.74" height="16.84"/>
  <path class="st2" d="M450.93,605.38c1.38,1.57,2.78,4.38,2.35,6.41-1.34,6.44-46.98,34.08-55.05,41.6-1.46,1.36-3.83,1.82-3.2,4.62l97.82,126.52c.03,2.51-1.28,3.7-2.89,5.32-4.51,4.54-42.13,31.3-47.68,33.71-4.68,2.03-8.07,4.11-11.48-1.46l-72.91-137.42-59.84,43.02c-2.74,1.68-7.51,2.11-9.51-.9l-17.94-217.71c-.35-7.97,6.14-9.08,12.69-6.18l167.64,102.47Z"/>
  <path class="st2" d="M878.35,661.52c7.07,40.6-56.49,46.24-61.01,9.52s34.46-50.02,56.73-25.29c-11.77,17.72-19.38-8.85-36.75,5.21-21.31,17.25,10.59,47.89,26.33,23.19h-14.73s.01-12.63.01-12.63h29.43Z"/>
  <path class="st2" d="M716.47,695.16v-60.97c22.46-1.64,53.16-.79,54.75,28.45.67,12.23-11.83,32.51-24.27,32.51h-30.48ZM729.09,682.55c37.15,6.18,37.4-41.4,0-35.74v35.74Z"/>
  <path class="st2" d="M1033.91,695.15c-3.57-.69-12.11,1.27-14.43-.26-1.88-1.23-1.03-9.64-3.68-10.37-1.87-.52-22.8-.42-23.7.36-3.19,2.76,2.95,14.45-14.95,10.27,1.15-7.47,16.53-58.94,19.22-60.66,2.09-1.33,15.16-1.07,17.61,1.77l19.93,58.89ZM1006.57,651.01c-3.46-3.69-3.56,1.2-4.38,2.96-1.23,2.65-5.33,16.74-4.01,18.05h12.62c.76-.76-3.5-20.24-4.23-21.02Z"/>
  <polygon class="st2" points="972.96 634.19 972.97 646.82 956.14 646.81 956.14 695.16 941.42 695.16 941.42 646.81 924.59 646.82 924.6 634.19 972.96 634.19"/>
  <path class="st2" d="M1061.25,634.19v43.1c0,9.45,22.89,3.82,29.44,5.24v12.63h-42.06v-60.97h12.61Z"/>
  <rect class="st2" x="895.17" y="634.19" width="14.72" height="60.97"/>
  <rect class="st2" x="785.85" y="634.19" width="14.72" height="60.97"/>
  <path class="st1" d="M729.09,682.55v-35.74c37.4-5.66,37.15,41.92,0,35.74Z"/>
  <path class="st1" d="M1006.57,651.01c.73.78,4.99,20.26,4.23,21.02h-12.62c-1.32-1.31,2.78-15.4,4.01-18.05.82-1.76.92-6.65,4.38-2.96Z"/>
</svg>