<svg xmlns="http://www.w3.org/2000/svg" fill="none" viewBox="0 0 80 80"><path fill="url(#a)" d="M40 70.476c16.831 0 30.476-13.645 30.476-30.476S56.831 9.524 40 9.524 9.524 23.169 9.524 40 23.169 70.476 40 70.476Z"/><path fill="url(#b)" d="M40 70.476c16.831 0 30.476-13.645 30.476-30.476S56.831 9.524 40 9.524 9.524 23.169 9.524 40 23.169 70.476 40 70.476Z" opacity=".5"/><path fill="url(#c)" d="M33.41 25.505c-.077-1.467-1.448-2.305-3.715-2.19-1.924.113-6.095 1.618-8.762 6.266-.495.857.362 1.276.857.705 1.695-1.924 6.362-4.534 10.134-4.248 1.523.114 1.485-.533 1.485-.533Z"/><path fill="url(#d)" d="M30.057 41.314c1.62 0 2.934-1.987 2.934-4.438 0-2.45-1.314-4.438-2.934-4.438s-2.933 1.987-2.933 4.438c0 2.451 1.313 4.438 2.933 4.438Z"/><path fill="url(#e)" d="M30.057 33.943c1.257 0 2.362 1.105 2.934 2.724-.038-2.4-1.334-4.324-2.934-4.324s-2.895 1.924-2.933 4.324c.571-1.638 1.657-2.724 2.933-2.724Z"/><path fill="url(#f)" d="M49.943 41.314c1.62 0 2.933-1.987 2.933-4.438 0-2.45-1.313-4.438-2.933-4.438-1.62 0-2.933 1.987-2.933 4.438 0 2.451 1.313 4.438 2.933 4.438Z"/><path fill="url(#g)" d="M46.59 25.6c.077-1.467 1.448-2.305 3.715-2.19 1.923.114 6.095 1.619 8.762 6.266.495.857-.362 1.276-.858.705-1.695-1.924-6.361-4.534-10.133-4.248-1.524.134-1.486-.533-1.486-.533Z"/><path fill="url(#h)" d="M49.943 34.038c-1.257 0-2.362 1.105-2.933 2.724.038-2.4 1.333-4.324 2.933-4.324 1.6 0 2.895 1.924 2.933 4.324-.571-1.619-1.657-2.724-2.933-2.724Z"/><path fill="url(#i)" d="M53.447 57.524c.591-.477.705-1.353.248-1.962-2.686-3.62-6.971-6.876-13.695-6.876s-11.01 3.257-13.695 6.876a1.432 1.432 0 0 0 .247 1.962c.629.514 1.581.4 2.057-.267 2.305-3.048 5.829-5.6 11.372-5.6s9.085 2.552 11.371 5.6a1.474 1.474 0 0 0 2.096.267Z"/><path fill="url(#j)" d="M53.962 56.571a1.408 1.408 0 0 0-.267-1.01C51.01 51.944 46.724 48.687 40 48.687s-11.01 3.257-13.695 6.876a1.408 1.408 0 0 0-.267 1.01c2.914-3.544 7.333-6.534 13.962-6.534s11.067 2.99 13.962 6.533Z"/><defs><radialGradient id="a" cx="0" cy="0" r="1" gradientTransform="translate(34.004 27.655) scale(36.7656)" gradientUnits="userSpaceOnUse"><stop stop-color="#FFE030"/><stop offset="1" stop-color="#FFB92E"/></radialGradient><radialGradient id="b" cx="0" cy="0" r="1" gradientTransform="translate(34.004 27.655) scale(28.9251)" gradientUnits="userSpaceOnUse"><stop stop-color="#FFEA5F"/><stop offset="1" stop-color="#FFBC47" stop-opacity="0"/></radialGradient><radialGradient id="d" cx="0" cy="0" r="1" gradientTransform="matrix(1.19746 4.13621 -2.67606 .77474 29.163 36.987)" gradientUnits="userSpaceOnUse"><stop offset=".001" stop-color="#7A4400"/><stop offset="1" stop-color="#643800"/></radialGradient><radialGradient id="f" cx="0" cy="0" r="1" gradientTransform="rotate(73.854 -.075 51.135) scale(4.30606 2.78595)" gradientUnits="userSpaceOnUse"><stop offset=".001" stop-color="#7A4400"/><stop offset="1" stop-color="#643800"/></radialGradient><radialGradient id="i" cx="0" cy="0" r="1" gradientTransform="matrix(11.8411 0 0 13.3556 46.104 49.292)" gradientUnits="userSpaceOnUse"><stop offset=".001" stop-color="#7A4400"/><stop offset="1" stop-color="#643800"/></radialGradient><linearGradient id="c" x1="27.13" x2="26.918" y1="28.29" y2="24.443" gradientUnits="userSpaceOnUse"><stop offset=".001" stop-color="#3C2200"/><stop offset="1" stop-color="#7A4400"/></linearGradient><linearGradient id="e" x1="30.05" x2="30.05" y1="32.408" y2="36.544" gradientUnits="userSpaceOnUse"><stop offset=".001" stop-color="#3C2200"/><stop offset="1" stop-color="#512D00"/></linearGradient><linearGradient id="g" x1="52.888" x2="53.1" y1="28.399" y2="24.552" gradientUnits="userSpaceOnUse"><stop offset=".001" stop-color="#3C2200"/><stop offset="1" stop-color="#7A4400"/></linearGradient><linearGradient id="h" x1="49.95" x2="49.95" y1="32.517" y2="36.653" gradientUnits="userSpaceOnUse"><stop offset=".001" stop-color="#3C2200"/><stop offset="1" stop-color="#512D00"/></linearGradient><linearGradient id="j" x1="26.02" x2="53.98" y1="52.628" y2="52.628" gradientUnits="userSpaceOnUse"><stop offset=".001" stop-color="#3C2200"/><stop offset="1" stop-color="#512D00"/></linearGradient></defs></svg>