<svg xmlns="http://www.w3.org/2000/svg" fill="none" viewBox="0 0 80 80"><path fill="url(#a)" d="M40 70.476c16.832 0 30.476-13.645 30.476-30.476S56.832 9.524 40 9.524C23.17 9.524 9.524 23.169 9.524 40S23.169 70.476 40 70.476Z"/><path fill="url(#b)" d="M40 70.476c16.832 0 30.476-13.645 30.476-30.476S56.832 9.524 40 9.524C23.17 9.524 9.524 23.169 9.524 40S23.169 70.476 40 70.476Z" opacity=".5"/><path fill="url(#c)" d="M33.295 24.21c0-1.22-1.314-1.981-3.6-1.981-1.924 0-6.171 1.066-9.085 4.819-.534.685.285 1.066.819.628 1.79-1.524 6.61-3.485 10.362-3.066 1.504.152 1.504-.4 1.504-.4Z"/><path fill="url(#d)" d="M30.038 39.01c1.62 0 2.934-1.987 2.934-4.438 0-2.452-1.314-4.439-2.934-4.439s-2.933 1.987-2.933 4.439c0 2.45 1.313 4.438 2.933 4.438Z"/><path fill="url(#e)" d="M30.038 31.638c1.258 0 2.362 1.105 2.934 2.724-.038-2.4-1.334-4.324-2.934-4.324s-2.895 1.924-2.933 4.324c.571-1.62 1.676-2.724 2.933-2.724Z"/><path fill="url(#f)" d="M46.705 24.21c0-1.22 1.314-1.981 3.6-1.981 1.924 0 6.171 1.066 9.086 4.819.533.685-.286 1.066-.82.628-1.79-1.524-6.609-3.485-10.361-3.066-1.524.152-1.505-.4-1.505-.4Z"/><path fill="#643800" d="M53.467 48.914a.811.811 0 0 0-.686.21c-3.276 3.066-8.324 4.724-12.133 4.724h-1.296c-3.81 0-8.857-1.657-12.133-4.724a.83.83 0 0 0-.686-.21c-.266.057-.4.343-.266.572a15.678 15.678 0 0 0 13.58 7.828h.344c5.618 0 10.78-2.99 13.58-7.828a.424.424 0 0 0-.304-.572Z"/><path fill="url(#g)" d="M49.943 39.01c1.62 0 2.933-1.987 2.933-4.438 0-2.452-1.313-4.439-2.933-4.439-1.62 0-2.933 1.987-2.933 4.439 0 2.45 1.313 4.438 2.933 4.438Z"/><path fill="url(#h)" d="M49.943 31.638c-1.257 0-2.362 1.105-2.933 2.724.038-2.4 1.333-4.324 2.933-4.324 1.6 0 2.895 1.924 2.933 4.324-.571-1.62-1.676-2.724-2.933-2.724Z"/><path fill="url(#i)" d="M53.467 48.914a.812.812 0 0 0-.686.21c-3.276 3.066-8.324 4.724-12.133 4.724h-1.296c-3.81 0-8.857-1.657-12.133-4.724a.83.83 0 0 0-.686-.21c-.266.057-.4.343-.266.572a.341.341 0 0 0 .095.133c.267-.152.552-.305.838.02 3.105 3.485 7.714 5.58 12.648 5.58H40.19c4.97 0 9.6-2.114 12.704-5.657.286-.324.553-.171.8 0 .02-.038.038-.057.057-.095.115-.21-.019-.496-.285-.553Z"/><defs><linearGradient id="c" x1="26.861" x2="26.861" y1="26.252" y2="23.041" gradientUnits="userSpaceOnUse"><stop offset=".001" stop-color="#3C2200"/><stop offset="1" stop-color="#7A4400"/></linearGradient><linearGradient id="e" x1="30.043" x2="30.043" y1="30.116" y2="34.252" gradientUnits="userSpaceOnUse"><stop offset=".001" stop-color="#3C2200"/><stop offset="1" stop-color="#512D00"/></linearGradient><linearGradient id="f" x1="53.124" x2="53.124" y1="26.252" y2="23.041" gradientUnits="userSpaceOnUse"><stop offset=".001" stop-color="#3C2200"/><stop offset="1" stop-color="#7A4400"/></linearGradient><linearGradient id="h" x1="49.943" x2="49.943" y1="30.116" y2="34.252" gradientUnits="userSpaceOnUse"><stop offset=".001" stop-color="#3C2200"/><stop offset="1" stop-color="#512D00"/></linearGradient><linearGradient id="i" x1="39.992" x2="39.992" y1="51.069" y2="55.618" gradientUnits="userSpaceOnUse"><stop offset=".001" stop-color="#3C2200"/><stop offset="1" stop-color="#512D00"/></linearGradient><radialGradient id="a" cx="0" cy="0" r="1" gradientTransform="translate(33.996 27.649) scale(36.7656)" gradientUnits="userSpaceOnUse"><stop stop-color="#FFE030"/><stop offset="1" stop-color="#FFB92E"/></radialGradient><radialGradient id="b" cx="0" cy="0" r="1" gradientTransform="translate(33.996 27.649) scale(28.9251)" gradientUnits="userSpaceOnUse"><stop stop-color="#FFEA5F"/><stop offset="1" stop-color="#FFBC47" stop-opacity="0"/></radialGradient><radialGradient id="d" cx="0" cy="0" r="1" gradientTransform="matrix(1.19746 4.13621 -2.67607 .77474 29.162 34.697)" gradientUnits="userSpaceOnUse"><stop offset=".001" stop-color="#7A4400"/><stop offset="1" stop-color="#643800"/></radialGradient><radialGradient id="g" cx="0" cy="0" r="1" gradientTransform="matrix(1.19746 4.13621 -2.67607 .77474 49.063 34.698)" gradientUnits="userSpaceOnUse"><stop offset=".001" stop-color="#7A4400"/><stop offset="1" stop-color="#643800"/></radialGradient></defs></svg>